<?xml version="1.0" encoding="utf-8"?>
<!-- Generator: Adobe Illustrator 23.0.1, SVG Export Plug-In . SVG Version: 6.00 Build 0)  -->
<svg version="1.1" id="Layer_1" xmlns="http://www.w3.org/2000/svg" xmlns:xlink="http://www.w3.org/1999/xlink" x="0px" y="0px"
	 viewBox="0 0 650 650" style="enable-background:new 0 0 650 650;" xml:space="preserve">
<style type="text/css">
	.st0{fill:#A1D3D6;}
	.st1{fill:#C1DBDB;}
	.st2{opacity:0.25;fill:#1D4C5C;enable-background:new    ;}
	.st3{fill:#598951;}
	.st4{fill:#CAE8B2;}
	.st5{fill:#1D4C5C;}
	.st6{fill:#38353B;}
	.st7{fill:#F4F4F4;}
	.st8{font-family:'MyriadPro-Regular';}
	.st9{font-size:58.2062px;}
</style>
<polygon class="st0" points="47.3,195.04 246,2 447,1 651,201 651,399 447.29,600.15 245.57,598.15 48.56,394.64 "/>
<polygon class="st1" points="1.04,199.38 198,1 400,1 600.08,198.86 602.08,398.43 400.36,598 198.65,596 1,394 "/>
<g>
	<path id="path8208_1_" class="st2" d="M248.8,125.07l54.97-38.42c-2.07,11.67,1.78,17.18,7.54,25.42l57.63,82.46
		c9.61,13.74,0.67,30.22-6.21,35.02c-6.87,4.8-25.42,7.54-35.02-6.21l-57.63-82.46C264.32,132.64,260.47,127.14,248.8,125.07z"/>
	<path id="path8210_1_" class="st3" d="M248.8,125.07l54.97-38.42c-2.07,11.67,1.78,17.18,7.54,25.42l57.63,82.46
		c9.61,13.74,0.67,30.22-6.21,35.02c-6.87,4.8-25.42,7.54-35.02-6.21l-57.63-82.46C264.32,132.64,260.47,127.14,248.8,125.07z"/>
	<g id="g3285_1_" transform="matrix(1.4211965,1.6572667,-1.6572667,1.4211965,68.01894,-22.557433)">
		<path id="path3287_1_" class="st4" d="M137.23-19.28l-28.96-30.13c3.44,4.2,6.5,4.5,11.09,4.96l45.86,4.55
			c7.64,0.76,10.71,8.78,10.33,12.6c-0.38,3.82-4.96,11.08-12.6,10.33C147.76-18.31,153.5-17.49,137.23-19.28z"/>
		<path id="path3289_1_" class="st5" d="M123.31-43.66l-1.19,9.54"/>
		<path id="path3291_1_" class="st5" d="M134.84-42.31l-1.19,9.54"/>
		<path id="path3293_1_" class="st5" d="M146.19-41.18l-1.19,9.54"/>
		<path id="path3295_1_" class="st5" d="M157.55-40.06l-1.19,9.54"/>
	</g>
	<path id="rect3162_1_" class="st6" d="M246.24,124.9c-0.09,1.31,0.82,2.47,2.1,2.7c5.5,0.98,8.84,2.64,11.64,5.01
		c2.8,2.38,5.12,5.6,8,9.72l57.62,82.49c5.29,7.57,13.21,10.64,20.48,11.12c7.28,0.47,13.98-1.42,18.11-4.31
		c4.14-2.89,8.2-8.51,10.26-15.5c2.06-7,1.87-15.48-3.42-23.05l-57.62-82.5c-2.88-4.12-5.13-7.36-6.4-10.81
		c-1.27-3.45-1.69-7.19-0.71-12.69c0.18-1.03-0.27-2.05-1.15-2.61c-0.88-0.55-2.02-0.53-2.86,0.08l-54.94,38.41
		C246.7,123.4,246.29,124.12,246.24,124.9z M254.59,124.16l46.31-32.39c-0.07,3.6,0.27,6.88,1.33,9.74
		c1.58,4.28,4.13,7.91,7.01,12.03l3.52,5.05l-16.04,10.59c-0.74,0.47-1.18,1.3-1.18,2.17c-0.01,0.95,0.5,1.82,1.35,2.26
		c0.84,0.45,1.88,0.4,2.67-0.14l16.14-10.7l11.62,16.59l-16.43,10.87c-0.73,0.47-1.17,1.27-1.17,2.13c-0.01,0.95,0.5,1.82,1.34,2.26
		c0.84,0.45,1.88,0.4,2.67-0.14l16.52-10.94l11.34,16.2l-16.43,10.87c-0.74,0.47-1.19,1.3-1.18,2.17c-0.01,0.95,0.5,1.82,1.34,2.26
		c0.84,0.45,1.88,0.4,2.67-0.14l16.52-10.94l11.37,16.24l-16.43,10.83c-0.67,0.41-1.11,1.11-1.19,1.89c-0.11,1,0.37,1.98,1.24,2.49
		c0.87,0.51,1.97,0.46,2.79-0.12l16.52-10.94l8.09,11.62c4.32,6.17,4.46,12.8,2.73,18.68c-1.73,5.88-5.56,10.85-8.3,12.76
		c-2.74,1.91-8.73,3.79-14.85,3.39c-6.12-0.4-12.32-2.79-16.64-8.97l-57.62-82.46c-2.88-4.12-5.39-7.74-8.87-10.69
		C260.98,126.76,257.99,125.33,254.59,124.16z"/>
	<path id="path8291_1_" class="st4" d="M301.78,91.31c-0.6,2.82-1.54,8.9,2.39,14.26l63.62,92.29c3.94,6.34,2.29,11.53-0.25,16.79
		c0.03-5.19-3.71-11.39-8.15-17.8l-64.16-94.84C292.41,97.98,298.09,94.24,301.78,91.31z"/>
	<path id="path8321_1_" class="st7" d="M255.34,124.12c5.03,2.41,8.24,3.8,12.37,8.44l63.51,90.93c4.84,5.71,15.67,10.37,27.53,4.73
		c-8.2,0.65-11.49-8.12-15.78-14.63l-64.26-92.38C273.81,114.53,265.06,116.53,255.34,124.12z"/>
</g>
<text transform="matrix(1 0 0 1 212.4648 335.5479)"><tspan x="0" y="0" class="st8 st9">¿QUE ES </tspan><tspan x="-121.65" y="69.85" class="st8 st9">EL CORONAVIRUS?</tspan></text>
</svg>
