<?xml version="1.0" encoding="utf-8"?>
<!-- Generator: Adobe Illustrator 23.0.1, SVG Export Plug-In . SVG Version: 6.00 Build 0)  -->
<svg version="1.1" id="Layer_1" xmlns="http://www.w3.org/2000/svg" xmlns:xlink="http://www.w3.org/1999/xlink" x="0px" y="0px"
	 viewBox="0 0 650 650" style="enable-background:new 0 0 650 650;" xml:space="preserve">
<style type="text/css">
	.st0{fill:#5D96A3;}
	.st1{fill:#A1D3D6;}
	.st2{font-family:'MyriadPro-Regular';}
	.st3{font-size:54.4174px;}
	.st4{fill:#CAE8B2;}
	.st5{fill:#38353B;}
	.st6{fill:#AFD136;}
</style>
<polygon class="st0" points="47.3,196.04 245.57,2 447,0 650,203 650,401 447.29,601.15 245.57,599.15 48.56,395.64 "/>
<polygon class="st1" points="0,203 199,0 400,0 600.08,201.86 602.08,401.43 400.36,601 198.65,599 0,397 "/>
<text transform="matrix(1 0 0 1 127.6338 334.5479)" class="st2 st3">¿QUE DISTINGUE </text>
<text transform="matrix(1 0 0 1 102.6038 399.8479)" class="st2 st3">AL CORONAVIRUS ?</text>
<g>
	<path class="st4" d="M407.67,102.34c-1.73-1.67-4.53-1.66-6.26,0c-0.51,0.5-1.33,0.12-2.19-0.7c-5.08-4.87-21.91-20.99-22.52-21.72
		c-0.72-0.86-0.58-1.49-0.34-1.72c1.73-1.67,1.73-4.37,0.01-6.04c-1.73-1.67-4.53-1.67-6.26,0c-13.14,12.75-16.57,29.34-18.47,45.52
		c-0.07,0.58-0.3,0.83-0.83,0.88c-19.32,1.85-39.72,3.12-54.27,16.99c-14.38,14.03-15.69,33.69-17.61,52.32
		c-0.04,0.41-0.52,0.76-1.08,0.83c-16.73,1.83-33.86,5.16-47.04,17.79c-1.73,1.67-1.73,4.37,0,6.04s4.53,1.67,6.26,0
		c0.41-0.4,0.83-0.78,1.25-1.16c0.64-0.57,1.06-0.66,1.97,0.21c4.59,4.42,22.68,21.84,23.1,22.27c0.48,0.5,0.25,1.25,0.01,1.52
		c-0.41,0.44-0.84,0.88-1.29,1.3c-1.73,1.67-1.73,4.37,0,6.04s4.53,1.67,6.26,0c13.11-12.73,16.56-29.28,18.46-45.43
		c0.08-0.66,0.2-0.92,0.85-0.98c19.32-1.85,39.71-3.12,54.26-16.98c14.38-14.03,15.7-33.69,17.62-52.32c0.05-0.51,0.3-0.74,0.92-0.8
		c16.78-1.83,33.98-5.14,47.21-17.8C409.4,106.71,409.4,104,407.67,102.34z M272.95,219.75c-0.88,2.32-1.9,4.57-3.08,6.72
		c-0.16,0.29-0.79,0.56-1.33,0.03c-3.92-3.78-20.07-19.36-20.8-20.05c-0.83-0.79-0.25-1.34,0.12-1.53c2.23-1.13,4.56-2.1,6.97-2.94
		c0.37-0.13,1.34-0.21,1.86,0.32c0.44,0.45,12.29,11.86,15.78,15.22C273.41,218.42,273.31,218.78,272.95,219.75z M277.81,198.12
		c-0.4,3.18-0.88,6.32-1.48,9.36c-0.08,0.41-0.37,1.16-0.99,0.51c-0.49-0.52-6.22-6.02-8.43-8.13c-0.53-0.51,0.04-1,0.5-1.08
		c3.11-0.56,6.31-1.01,9.55-1.4C277.48,197.32,277.88,197.54,277.81,198.12z M291.94,187.33c-1.02,0.09-2.04,0.19-3.08,0.28
		c-0.81,0.07-0.98-0.43-0.92-1c0.09-0.97,0.19-1.94,0.29-2.9c0.04-0.36,0.27-0.95,0.98-0.24c0.45,0.46,1.91,1.85,2.91,2.81
		C292.68,186.82,292.33,187.29,291.94,187.33z M314.43,183.99c-2.88,0.71-5.87,1.28-8.97,1.75c-0.33,0.05-1.05,0.04-1.72-0.57
		c-0.56-0.52-10.13-9.76-13.13-12.66c-0.9-0.87-0.81-1.42-0.67-2.23c0.46-2.73,1.01-5.37,1.67-7.92c0.25-0.96,0.83-0.78,1.41-0.31
		c0,0,20.94,20.25,21.53,20.76C315.14,183.33,314.78,183.9,314.43,183.99z M332.17,176.23c-1.91,1.42-3.98,2.65-6.16,3.71
		c-0.82,0.4-1.33,0.33-2.05-0.36c-4.89-4.71-27.43-26.45-27.89-26.89c-0.51-0.5-0.43-1.3-0.28-1.6c1.12-2.17,2.42-4.22,3.93-6.12
		c0.25-0.32,1.16-0.42,1.4-0.19c0,0,30.33,29.21,30.91,29.8C332.6,175.17,332.46,176.01,332.17,176.23z M343.44,162.26
		c-0.98,2.1-2.12,4.08-3.43,5.94c-0.25,0.35-1.09,0.73-1.89-0.05c-0.8-0.78-30.62-29.53-30.62-29.53c-0.28-0.27-0.19-0.74,0.26-1.03
		c2.02-1.35,4.18-2.51,6.47-3.51c0.42-0.18,1.28-0.48,2.36,0.52c0.95,0.87,21.29,20.52,26.3,25.36
		C343.59,160.64,343.63,161.85,343.44,162.26z M348.96,141.85c-0.44,3.02-0.98,5.96-1.64,8.78c-0.08,0.35-0.42,0.87-1.06,0.28
		c-0.63-0.59-19.56-18.85-20.24-19.52s-0.1-0.97,0.27-1.05c2.77-0.6,5.64-1.09,8.6-1.5c0.5-0.07,1.3-0.43,2.26,0.5
		c0.81,0.78,8.58,8.27,11.13,10.74C348.8,140.57,349.01,141.52,348.96,141.85z M350.39,129.79l-2.48-2.39
		c0.91-0.08,1.82-0.16,2.73-0.25C350.55,128.03,350.47,128.92,350.39,129.79z M373.73,115.55c-3.1,0.64-6.32,1.13-9.58,1.56
		c-3.3,0.44-3.53,0.05-3.1-2.99c0.44-3.12,0.94-6.18,1.6-9.15c0.07-0.31,0.54-0.7,1.05-0.21c2.52,2.42,9.96,9.55,10.24,9.88
		C374.28,115.05,374.05,115.48,373.73,115.55z M391.83,109.32c-1.81,0.98-3.69,1.84-5.63,2.61c-0.55,0.22-1.73,0.38-2.76-0.45
		c-0.83-0.68-12.04-11.56-16.15-15.57c-0.94-0.91-1.05-2.6-0.81-3.16c0.81-1.89,1.72-3.72,2.76-5.49c0.28-0.48,1.36-0.95,2.19-0.16
		c4.58,4.39,19.57,18.8,20.58,19.85C393.18,108.19,392.38,109.02,391.83,109.32z"/>
	<g>
		<path class="st5" d="M278.31,193.91c0.07-0.68,0.15-1.36,0.22-2.04c0.08-0.81-0.58-0.79-0.92-0.75
			c-16.37,1.82-32.54,5.06-45.05,17.05c-0.77,0.74-0.77,1.93,0,2.67c0.76,0.73,1.99,0.73,2.75,0c10.7-10.41,25.3-13.91,42-15.88
			C278.03,194.87,278.26,194.41,278.31,193.91z"/>
		<path class="st5" d="M374.63,73.84c-0.77-0.74-2-0.74-2.76-0.01c-14.8,14.36-16.76,33.71-18.67,52.56
			c-1.73,18.15-3.52,36.92-15.76,48.55c-11.43,11.18-29.47,13.34-47.44,14.96c-0.13,1.27-0.26,2.54-0.4,3.81l0.69-0.07
			c18.04-1.7,36.7-3.45,49.88-16.02c13.06-12.74,14.88-30.73,16.64-48.13l0.28-2.74c1.95-20.19,4.61-37.9,17.53-50.26
			C375.38,75.77,375.38,74.57,374.63,73.84z"/>
	</g>
	<path class="st5" d="M279.94,200.67c-2.12,14.94-5.93,27.97-16.08,37.68c-0.76,0.74-0.76,1.93,0,2.67s2,0.74,2.76,0
		c11.72-11.38,15.38-25.89,17.35-40.8l1.37-12.28c1.72-17.99,3.59-36.51,15.71-48.03c11.82-11.56,30.67-13.47,49.21-15.12
		c0.21-0.02,0.68-0.53,0.71-0.76c0.08-0.81,0.17-1.62,0.26-2.43c0.05-0.54-0.23-0.75-0.59-0.63l-2.46,0.24
		c-18.03,1.7-36.69,3.45-49.86,16.02c-13.05,12.73-14.87,30.7-16.63,48.09L279.94,200.67z"/>
	<g>
		<path class="st6" d="M345.56,157.25c0.17-0.53,0.34-1.07,0.5-1.62c0.24-0.8,0.17-1.38-0.8-2.32
			c-4.06-3.93-17.53-16.95-18.37-17.71c-1-0.91-1.96-0.84-2.38-0.72c-0.58,0.16-1.16,0.33-1.73,0.51c-0.47,0.15-1.18,0.73-0.24,1.59
			c0.79,0.72,16.36,15.76,21.15,20.38C344.56,158.21,345.4,157.74,345.56,157.25z"/>
		<path class="st6" d="M349.99,137.34c0.15-0.98,0.3-1.97,0.45-2.96c0.05-0.34-0.04-1.19-0.46-1.61c-0.42-0.41-1.45-1.4-1.45-1.4
			c-0.43-0.38-0.62-0.41-1.28-0.35c-1.17,0.12-2.32,0.24-3.47,0.37c-0.59,0.07-0.48,0.45-0.24,0.73c0,0,5.28,5.11,5.64,5.44
			C349.53,137.89,349.94,137.63,349.99,137.34z"/>
		<path class="st6" d="M336.8,173.39c0.21-0.21,0.41-0.42,0.61-0.65c0.96-1.07,0.34-1.5-0.28-2.17c0,0-26.87-25.99-27.74-26.75
			c-0.87-0.75-1.43-0.62-1.64-0.44c-0.54,0.46-1.06,0.95-1.58,1.45c-0.26,0.24-0.58,0.82,0.27,1.72
			c0.85,0.9,27.92,26.92,27.92,26.92C334.87,173.93,335.93,174.27,336.8,173.39z"/>
		<path class="st6" d="M298.17,187.24c0.75-0.08,1.53-0.16,2.32-0.27c0.47-0.06,0.81-0.79-0.1-1.66c-2.01-1.95-5.41-5.24-6.34-6.11
			c-1.35-1.26-1.53-0.38-1.59,0.1c-0.09,0.69-0.17,1.39-0.26,2.09c-0.06,0.48-0.1,1.3,0.72,2.29c0.54,0.65,2.04,2.06,3,2.94
			C296.43,187.09,297.41,187.32,298.17,187.24z"/>
		<path class="st6" d="M319.65,182.95c0.62-0.2,1.23-0.41,1.84-0.62c0.44-0.16,1.15-0.65,0.04-1.72s-22.58-21.78-22.58-21.78
			c-0.57-0.6-1.51-0.76-1.8-0.03c-0.23,0.6-0.45,1.2-0.66,1.81c-0.12,0.35-0.13,1.18,0.57,1.97c0.59,0.67,15.57,15.04,20.16,19.45
			C318.05,182.82,319.28,183.07,319.65,182.95z"/>
	</g>
	<g>
		<path class="st6" d="M398.67,104.46L377.76,84.3c-0.9,1.02-1.72,2.08-2.5,3.16l20.13,19.41
			C396.47,106.13,397.57,105.33,398.67,104.46z"/>
		<path class="st6" d="M381.81,113.28l-13.18-12.71c-0.48,1.41-0.9,2.86-1.3,4.33l10,9.64
			C378.86,114.15,380.35,113.74,381.81,113.28z"/>
	</g>
	<g>
		<path class="st6" d="M274.54,214.41c0.19-0.63,0.38-1.25,0.56-1.89c0.1-0.37,0.34-1.01-0.6-1.99c-0.7-0.73-4.56-4.42-6.47-6.25
			c-0.8-0.76-1.37-0.96-2.09-0.79c-0.85,0.2-1.69,0.42-2.53,0.65c-0.76,0.21-0.64,0.66-0.1,1.17c2.47,2.35,9.04,8.62,9.76,9.42
			C273.96,215.7,274.4,214.86,274.54,214.41z"/>
		<path class="st6" d="M266.42,231.82c0.32-0.45,0.64-0.91,0.95-1.38c0.23-0.34,0.33-1.37-0.25-1.94
			c-3.65-3.53-16.97-16.41-17.73-17.1c-0.89-0.79-1.64-0.69-1.91-0.51c-0.53,0.35-1.06,0.71-1.57,1.08
			c-0.32,0.23-0.8,0.79-0.05,1.58c0.64,0.68,15.14,14.61,18.98,18.3C265.41,232.42,266.2,232.14,266.42,231.82z"/>
	</g>
	<g>
		<path class="st5" d="M405.93,104.02c-0.76-0.74-2-0.74-2.76,0c-9.69,9.42-22.55,13.17-37.28,15.26c-1.51,0.21-1.83,0.46-1.96,1.49
			c-0.05,0.37-0.09,0.73-0.13,1.1c-0.13,1.03,0.36,1.47,1.63,1.31c14.78-1.95,29.14-5.62,40.5-16.49
			C406.69,105.95,406.69,104.76,405.93,104.02z"/>
	</g>
</g>
</svg>
