<?xml version="1.0" encoding="utf-8"?>
<!-- Generator: Adobe Illustrator 23.0.1, SVG Export Plug-In . SVG Version: 6.00 Build 0)  -->
<svg version="1.1" id="Layer_1" xmlns="http://www.w3.org/2000/svg" xmlns:xlink="http://www.w3.org/1999/xlink" x="0px" y="0px"
	 viewBox="0 0 650 650" style="enable-background:new 0 0 650 650;" xml:space="preserve">
<style type="text/css">
	.st0{fill:#53848C;}
	.st1{fill:#5D96A3;}
	.st2{font-family:'MyriadPro-Regular';}
	.st3{font-size:54.4174px;}
	.st4{fill:#38353B;}
</style>
<polygon class="st0" points="49.3,194.04 247.57,0 449,0 650,200 651,399.43 449.29,599.15 247.57,597.15 50.56,393.64 "/>
<polygon class="st1" points="0.04,200.38 197.65,0.3 399,0 599.08,199.86 601.08,399.43 399.36,599 197.65,597 0,395 "/>
<text transform="matrix(1 0 0 1 71.9707 334.5479)" class="st2 st3">¿COMO SE PROPAGA </text>
<text transform="matrix(1 0 0 1 102.6307 399.8479)" class="st2 st3">EL CORONAVIRUS?</text>
<g>
	<g>
		<g>
			<g>
				<path class="st4" d="M342.92,71.93c16.25,11.94,26.79,31.19,26.79,52.91c0,36.24-29.38,65.62-65.62,65.62
					c-21.35,0-40.32-10.2-52.3-25.98l-6.72,5.37c13.56,17.76,34.96,29.21,59.02,29.21c40.99,0,74.22-33.23,74.22-74.22
					c0-24.56-11.93-46.33-30.31-59.84L342.92,71.93z"/>
				<path class="st4" d="M305,67.36c-32.49,0-58.83,26.34-58.83,58.83c0,32.5,26.34,58.84,58.83,58.84
					c32.5,0,58.83-26.34,58.83-58.84C363.83,93.71,337.49,67.36,305,67.36z M305,182.32c-30.99,0-56.12-25.13-56.12-56.12
					c0-31,25.12-56.12,56.12-56.12c30.99,0,56.12,25.12,56.12,56.12C361.12,157.19,335.99,182.32,305,182.32z"/>
				<path class="st4" d="M296.63,69.98c0,0-19.82,2.56-33.3,18.07c0,0,10.38-10.79,16.72-10.79l1.41,0.61c0,0-0.2,0.54-0.4,0.74
					c-0.2,0.21-1.01,1.28-1.01,1.55c0,0.27,0.07,1.15,0.07,1.15l-0.47,0.67c0,0-0.47,0.21-0.61,0.41c-0.13,0.2-0.4,0.27-0.4,0.74
					s0.13,1.08,0.13,1.08l0.07,1.15l-0.34,0.67l-0.87,0.54c0,0-1.01,0.2-1.41,0c-0.41-0.2-0.54-1.01-0.54-1.01l1.15-0.74
					c0,0,0.14-0.21-0.2-0.4c-0.33-0.2-0.26-0.88-0.88-0.74c-0.61,0.13-1.55,0.94-1.55,0.94l-1.01,0.68c0,0-0.47,1.21-0.27,1.21
					s0.74,0.34,0.74,0.34s0.13,0.34,0.13,0.67c0,0.34-0.33,1.01-0.33,1.01s-0.2,0.34-0.88,0.2c-0.67-0.14-1.28-0.27-1.68-0.4
					c-0.41-0.14-0.81-0.34-1.22-0.2c-0.4,0.13-0.54,0.27-0.61,0.47c-0.06,0.2-1.48,1.01-1.48,1.01s-0.47,0.2-0.47,0.47
					c0,0.27-0.4,1.28-0.4,1.28s-0.47,0.47-1.35,0.67c-0.87,0.2-1.07,0.47-1.07,0.47l-0.47,1.01c0,0-0.68,0.47-1.15,1.08
					s-1.89,1.61-2.09,1.69c-0.21,0.06-0.74,0.67-0.95,1.21c-0.2,0.54-0.13,1.35-0.33,1.62c-0.21,0.28-0.47,1.02-0.54,1.55
					c-0.06,0.54-0.4,1.21-0.67,1.41c-0.27,0.21-0.67,0.61-0.88,0.67c-0.2,0.07-1.42,0.47-1.82,0.74c-0.4,0.28-0.6,0.94-0.6,1.15
					c0,0.2,0.6,0.67,0.81,0.67c0.2,0,0.81,0.2,0.81,0.2s0.06,1.08,0.06,1.28s-0.4,1.21,0,1.21c0.41,0,1.02,0.14,1.02,0.14l1.07,0.27
					l0.94,0.6l0.54,0.4c0,0-0.13,0.61-0.27,0.81c-0.14,0.2-0.41,0.67-0.61,0.61c-0.2-0.07-0.13-0.07-0.33-0.54
					c-0.21-0.47-0.14-0.68-0.61-0.81c-0.47-0.13-0.95,0.34-1.15,0.2c-0.2-0.13-0.53-0.13-0.88-0.47c-0.33-0.34-0.41,0.27-0.33-0.34
					c0.07-0.61,0.33-0.88,0.2-1.15c-0.14-0.27-0.54-0.88-0.81-0.88s0.13,0.54-0.27,0c-0.41-0.53-0.67-0.74-0.88-0.67
					c-0.2,0.07-0.47,0.14-0.47-0.2s0.2-1.02,0.2-1.35c0-0.34,0.2-0.88,0.2-1.15c0-0.27,0.28-1.88,0.28-1.88s-1.8,3.53-2.42,6.22
					c0,0,0.71-0.09,0.71,0.36s0.18,0.9,0.09,1.35s-0.09,0.36-0.09,1.8s0.37,1.8,0.18,2.25c-0.18,0.45-0.45,1.08-0.54,1.62
					c-0.09,0.53,0.36,1.88,0.54,2.15c0.18,0.28,0.18,0.36,0.45,0.63s-0.45,1.35,0.27,0.27s0.99-1.53,0.99-1.53l0.45-0.54
					c0,0,0-0.72,0.89-0.54c0.91,0.18,0.99,0,1.26,0.36c0.28,0.36-0.36,1.26,0.09,1.35c0.46,0.09,1.8-0.54,2.16-0.45
					c0.36,0.09,0.81,0.18,0.99,0.81s0.45,1.53,0.81,1.71s0.27,0.99,0.45,1.53c0.18,0.53,1.44,0.9,1.71,0.9s1.53,0.18,1.89,0.36
					c0.36,0.18,0,0.81,0.72,0.99s0.9,1.62,0.9,1.62s0.27,1.26,0.09,1.62s-0.09,0.99,0.36,1.08c0.45,0.09,1.62,0.27,1.62,0.27
					s-0.63,0.89,0.36,1.26c0.98,0.36,1.97,0.72,2.25,0.9c0.26,0.18-0.63,0.99,0.53,0.9c1.18-0.09,2.25-0.27,2.79,0.18
					s0.09,1.08,1.53,1.89s1.89,1.07,2.25,1.26c0.36,0.18,1.08,0.09,0.89,1.17c-0.17,1.08-0.35,1.8-0.89,2.24
					c-0.54,0.45-1.26,1.89-1.62,2.34s-0.72,1.26-0.36,1.98c0.36,0.72,0.8,1.53,0.8,1.98s0.18,1.8-0.08,2.34
					c-0.27,0.54-0.81,1.53-0.81,1.53s0.99,0.81,0.27,1.52c-0.72,0.72-1.8,1.53-2.33,1.71c-0.55,0.18-1.62,1.17-1.62,1.17
					s0.08,2.25,0,2.7c-0.09,0.45-2.16,4.05-1.44,4.85c0.72,0.81,0.81,1.71,0.62,2.25c-0.18,0.53-0.44,0.44-0.62,0.89
					s-1.53,0.09-0.72,1.35c0.81,1.25,1.26,1.53,1.62,2.24c0.36,0.72,0.27,0.99,0.81,1.71c0.54,0.71,0.81,1.44,1.44,1.98
					s1.35,0.9,1.35,1.52c0,0.63,1.35,2.07-0.27,0.99c-1.61-1.08-0.18-0.08-2.24-1.79c-2.07-1.71-2.61-1-3.51-2.07
					c-0.9-1.08,0.45,2.69-1.26-1.8c-1.71-4.5-2.16-3.96-2.61-4.95c-0.45-0.99-0.09,0.09-1.35-2.15c-1.26-2.25-0.18-0.81-1.26-2.25
					c-1.08-1.44-1.17,0.54-1.7-2.07c-0.54-2.6-0.63-0.9-1.36-3.86c-0.71-2.97,0.54-3.06-1.08-4.5c-1.61-1.44-1.52-0.72-2.07-1.71
					c-0.54-0.99,0.18-0.09-1.25-2.61c-1.44-2.52-3.41-3.51-3.33-7.82c0.09-4.31,0.09-5.04,0.09-5.04s-2.15-1.7-1.43-4.22
					c0.71-2.52,0.99-1.71,0.71-2.52c-0.27-0.81-0.54-0.63-1.25-1.62c-0.72-0.99-0.81-0.89-0.99-1.52c-0.18-0.63-0.45-1.98-0.45-1.98
					l-0.54,0.45c0,0-5.75,56.81,50.88,65.18c0,0-13.08-2.83-14.16-5.4c0,0-0.27-2.43,0.27-2.43s1.35,0.41,2.16-0.27
					c0.81-0.67,1.76-1.48,1.76-1.48l0.13,1.08c0,0-0.81,0.13,1.75-0.27c2.57-0.4,2.57-0.13,3.51-0.53c0.95-0.41,2.03-2.43,2.56-1.22
					c0.53,1.22-0.67,0.67,0.53,1.22c1.22,0.53,3.51-0.28,3.51-0.28s3.91,0.28,4.32-0.14c0.4-0.4,0.4-1.08,1.08-0.94
					c0.67,0.14,1.07,1.21,1.07,1.21l-2.15,1.22l-2.02,1.49c0,0-0.94,0.27-0.13,0.67s1.21,0.27,2.16,0.4
					c0.94,0.13,3.23,1.89,3.78,0.81c0.54-1.08,0.66-1.22,1.08-1.89c0.4-0.67,0.26-1.49,1.22-1.49c0.93,0,1.88,0.27,1.88,0.27
					l-0.81,1.75c0,0,1.62-0.13,2.3-0.13c0.67,0,0.81,1.08,1.75,0.13c0.95-0.94,1.08-0.94,2.02-1.08c0.95-0.13,2.29-0.54,2.7-0.41
					c0.4,0.14,1.21,0.28,1.62,0.28c0.4,0,2.42,1.48,2.83,1.21c0.4-0.27,2.83-0.13,2.83-0.13s-6.61,6.07-20.63,6.34
					c0,0,31.37,1.44,48.99-29.13s5.39-69.76-34.88-83.43c0,0,30.12,11.15,38.07,40.01l-0.27,0.54c-0.81-0.81-0.81-0.4-1.48-1.75
					s-0.14-1.08-0.67-2.02c-0.54-0.94-0.4-0.27-1.07-1.21c-0.68-0.94-0.81-0.81-1.35-1.35s-1.08-2.29-1.49-2.83s-1.61-0.67-2.16-0.8
					c-0.54-0.14-0.26-0.81-0.54-0.14c-0.26,0.68,0.81,1.75,0.81,1.75v2.16c0,0,0.81,2.02,0.81,2.56s-0.67,2.02-0.67,2.02
					s-0.27,1.62-0.81,1.89c-0.53,0.27-3.63,0.81-3.63,0.81s-0.95-1.08-1.49-2.02c-0.54-0.94-2.29-1.22-2.56-1.62s0.4-1.22-0.41-2.29
					c-0.8-1.08,0-0.81-1.08-1.76c-1.08-0.94-1.08-0.94-1.08-0.94s-2.42-0.81-1.62,0.53c0.81,1.35-0.13,2.84,0.54,2.97
					c0.68,0.13,1.08-0.41,1.62,0.81c0.53,1.21,0.67,1.75,1.07,2.15c0.41,0.4,0.54,2.16,1.08,2.29c0.55,0.14,2.02,0,1.9,0.67
					c-0.14,0.68-0.95,1.62,0,1.89c0.94,0.27,1.07,0.67,1.61,0.54c0.54-0.13,0.27,0.13,1.21-0.27c0.95-0.4,2.03-0.4,2.03-0.4
					s1.2,0.94,1.2,1.35c0,0.4-0.4,2.7-0.4,2.7l-1.21,2.29c0,0,0.13,4.04-0.55,4.04c-0.67,0-1.48,1.75-1.88,2.02
					c-0.41,0.27-0.55,2.97-0.55,2.97l-1.21,1.48c0,0-0.13,2.02,0,2.56c0.14,0.54,0.41,2.7,0.14,3.77c-0.27,1.08-1.75,2.16-1.75,2.16
					s2.02,1.89,0.94,2.15c-1.08,0.27-2.15,1.89-2.43,2.29c-0.26,0.4-0.13,1.22-0.81,1.35c-0.67,0.13-1.88,0.27-1.88,0.68
					c0,0.4,0,2.02,0,2.02l-2.16,3.1l-2.57,2.16c0,0,0.28,1.48-0.54,1.61c-0.8,0.14-3.5,1.22-3.91,1.62c-0.4,0.4-2.42,1.34-3.1,1.34
					c-0.67,0,0.41,1.89-0.67,0c-1.08-1.88-0.27-0.67-1.21-2.83c-0.95-2.16-0.95-0.54-0.95-2.16c0-1.61,0.14-0.13,0-1.61
					c-0.13-1.49,0.41-0.41-0.4-2.16s-0.67-1.22-1.75-2.3c-1.08-1.07-1.89,0-1.21-1.75c0.68-1.75,0.27,0,0.68-1.75
					c0.4-1.76-0.14-2.03,0.94-2.84c1.09-0.81,2.02-0.94,1.89-2.02c-0.14-1.08-0.14-1.48-0.4-2.16c-0.27-0.68-1.35-1.75-1.49-2.16
					c-0.14-0.4-0.14-0.13-0.94-1.35c-0.81-1.21-1.35-1.89-1.35-1.89s-0.27-2.83-0.27-3.91s-0.41,0.67,0-1.08
					c0.4-1.75,0.54-2.83,0.54-2.83s-2.02-1.35-2.83-1.22c-0.8,0.14-0.67,1.35-1.88,0.4c-1.21-0.94-0.94-1.62-1.34-1.89
					c-0.41-0.27-1.22-0.4-1.89,0.14c-0.68,0.54-2.16,0.54-3.38,1.07c-1.21,0.55-1.61,0.41-3.24,0.41c-1.62,0-3.5,0.54-4.72-0.14
					c-1.21-0.67-1.35,0.28-1.89-1.08c-0.54-1.35,0-1.21-1.22-1.89c-1.22-0.67-1.48-0.14-1.62-1.35c-0.13-1.21,0.54-0.95-0.4-2.02
					c-0.94-1.08,0.54,0.54-0.94-1.08s-2.02-0.27-1.48-1.62c0.53-1.35,0.94-0.54,0.94-2.16s2.43,0.67,0.94-2.56
					c-1.48-3.24-1.75-2.57-0.4-4.99c1.35-2.43,3.1-3.24,3.37-3.78s0.81-1.89,1.35-2.29s0.14-0.81,1.35-0.68
					c1.22,0.14,2.56-0.4,3.37-1.21c0.8-0.81,1.89-2.02,2.43-2.16c0.54-0.13,0.27,0.14,1.49-0.13c1.21-0.27,1.47-0.4,2.29-0.4
					c0.8,0-0.82,0.27,1.48-0.14c2.29-0.41,1.75-0.41,2.29-0.41c0.53,0,0.27,0.13,1.21,0.27s0.81-1.89,0.94,0.14
					c0.14,2.02-0.81,2.97,0.81,3.1s0,0.13,1.62,0.13s1.21,0.27,2.02,0.67c0.81,0.41,1.21,0.94,2.43,0.94c1.21,0-0.55,1.75,1.21,0
					c1.75-1.75-1.36-2.02,1.75-1.75c3.1,0.27,3.51,0.94,4.05,0.67c0.54-0.27,0.67,0.27,2.02-0.4c1.34-0.67,1.48-0.67,2.02-0.41
					c0.54,0.27,0.54,1.48,1.08,0.27c0.54-1.21,1.62-0.81,0-1.62c-1.62-0.81-2.16,0.13-2.43-0.95c-0.28-1.08,1.34-0.81-0.28-1.08
					c-1.62-0.27-1.35-0.27-2.56-0.67c-1.22-0.4-2.43,1.22-2.83,0c-0.4-1.21-2.7,0.81-0.4-1.21c2.29-2.02,1.34-2.83,2.83-2.43
					c1.48,0.4,1.08,1.75,2.02,0.94c0.95-0.81,2.7-1.35,0.95-2.56c-1.76-1.21-0.53-0.67-2.3-1.48c-1.75-0.81-3.36,3.1-4.18,2.56
					c-0.81-0.54-1.21-0.95-1.75-0.68c-0.55,0.27-0.55,1.75-0.68,2.83s0.94,1.35-0.81,0.54s1.88-0.4-2.03-1.89
					c-3.91-1.48-5.26-1.08-5.8-0.54c-0.54,0.54-1.35,0.4-1.76,0.81c-0.4,0.4,1.22,1.35-0.4,0.4c-1.62-0.94-3.23,0.54-3.23,0.54
					s-0.54-0.27-1.22,0.27c-0.67,0.54-2.03,0.94-2.83,0.67c-0.81-0.27-2.56,0.27-1.08-1.62c1.49-1.89,0.4-0.81,2.7-1.75
					c2.29-0.94,5.66-1.08,2.7-1.75c-2.97-0.68,1.61-0.68-2.3-2.57c-3.91-1.89-4.04,0.68-3.91-1.89c0.13-2.56-0.27-2.7-1.08-2.56
					c-0.8,0.13-3.23,0.67-4.17,0.81c-0.95,0.13,0.13,0.94-1.62-0.14c-1.76-1.08-2.43,0.54-1.76-1.08c0.68-1.62,0.81-1.89,1.89-2.83
					c1.08-0.94,0.81-4.45,3.5-3.1c2.7,1.35,1.62,0.95,3.78,1.08c2.15,0.14,3.1-0.27,3.1-0.67c0-0.41-2.43-1.62-2.43-1.62
					s-0.8,0.27-0.54-0.14c0.27-0.4,0.81-1.21,0.81-1.21l-0.81-0.68C306.07,69.57,298.52,69.57,296.63,69.98z"/>
			</g>
			<g>
				<path class="st4" d="M300.46,197.25v13.58c0,0-3.5,6.79-11.3,9.51c-7.81,2.71-14.96,6.9-14.28,10.98
					c0.68,4.07,9.94,7.69,37.31,7.69v-44.47L300.46,197.25z"/>
				<path class="st4" d="M316.1,197.25v13.58c0,0,2.8,6.79,10.61,9.51c7.81,2.71,17.26,6.9,16.58,10.98
					c-0.68,4.07-15.45,7.69-35.01,7.69v-44.47L316.1,197.25z"/>
			</g>
		</g>
	</g>
	<g>
		<g>
			<path class="st4" d="M342.92,71.93c16.25,11.94,26.79,31.19,26.79,52.91c0,36.24-29.38,65.62-65.62,65.62
				c-21.35,0-40.32-10.2-52.3-25.98l-6.72,5.37c13.56,17.76,34.96,29.21,59.02,29.21c40.99,0,74.22-33.23,74.22-74.22
				c0-24.56-11.93-46.33-30.31-59.84L342.92,71.93z"/>
			<path class="st4" d="M305,67.36c-32.49,0-58.83,26.34-58.83,58.83c0,32.5,26.34,58.84,58.83,58.84
				c32.5,0,58.83-26.34,58.83-58.84C363.83,93.71,337.49,67.36,305,67.36z M305,182.32c-30.99,0-56.12-25.13-56.12-56.12
				c0-31,25.12-56.12,56.12-56.12c30.99,0,56.12,25.12,56.12,56.12C361.12,157.19,335.99,182.32,305,182.32z"/>
			<path class="st4" d="M296.63,69.98c0,0-19.82,2.56-33.3,18.07c0,0,10.38-10.79,16.72-10.79l1.41,0.61c0,0-0.2,0.54-0.4,0.74
				c-0.2,0.21-1.01,1.28-1.01,1.55c0,0.27,0.07,1.15,0.07,1.15l-0.47,0.67c0,0-0.47,0.21-0.61,0.41c-0.13,0.2-0.4,0.27-0.4,0.74
				s0.13,1.08,0.13,1.08l0.07,1.15l-0.34,0.67l-0.87,0.54c0,0-1.01,0.2-1.41,0c-0.41-0.2-0.54-1.01-0.54-1.01l1.15-0.74
				c0,0,0.14-0.21-0.2-0.4c-0.33-0.2-0.26-0.88-0.88-0.74c-0.61,0.13-1.55,0.94-1.55,0.94l-1.01,0.68c0,0-0.47,1.21-0.27,1.21
				s0.74,0.34,0.74,0.34s0.13,0.34,0.13,0.67c0,0.34-0.33,1.01-0.33,1.01s-0.2,0.34-0.88,0.2c-0.67-0.14-1.28-0.27-1.68-0.4
				c-0.41-0.14-0.81-0.34-1.22-0.2c-0.4,0.13-0.54,0.27-0.61,0.47c-0.06,0.2-1.48,1.01-1.48,1.01s-0.47,0.2-0.47,0.47
				c0,0.27-0.4,1.28-0.4,1.28s-0.47,0.47-1.35,0.67c-0.87,0.2-1.07,0.47-1.07,0.47l-0.47,1.01c0,0-0.68,0.47-1.15,1.08
				s-1.89,1.61-2.09,1.69c-0.21,0.06-0.74,0.67-0.95,1.21c-0.2,0.54-0.13,1.35-0.33,1.62c-0.21,0.28-0.47,1.02-0.54,1.55
				c-0.06,0.54-0.4,1.21-0.67,1.41c-0.27,0.21-0.67,0.61-0.88,0.67c-0.2,0.07-1.42,0.47-1.82,0.74c-0.4,0.28-0.6,0.94-0.6,1.15
				c0,0.2,0.6,0.67,0.81,0.67c0.2,0,0.81,0.2,0.81,0.2s0.06,1.08,0.06,1.28s-0.4,1.21,0,1.21c0.41,0,1.02,0.14,1.02,0.14l1.07,0.27
				l0.94,0.6l0.54,0.4c0,0-0.13,0.61-0.27,0.81c-0.14,0.2-0.41,0.67-0.61,0.61c-0.2-0.07-0.13-0.07-0.33-0.54
				c-0.21-0.47-0.14-0.68-0.61-0.81c-0.47-0.13-0.95,0.34-1.15,0.2c-0.2-0.13-0.53-0.13-0.88-0.47c-0.33-0.34-0.41,0.27-0.33-0.34
				c0.07-0.61,0.33-0.88,0.2-1.15c-0.14-0.27-0.54-0.88-0.81-0.88s0.13,0.54-0.27,0c-0.41-0.53-0.67-0.74-0.88-0.67
				c-0.2,0.07-0.47,0.14-0.47-0.2s0.2-1.02,0.2-1.35c0-0.34,0.2-0.88,0.2-1.15c0-0.27,0.28-1.88,0.28-1.88s-1.8,3.53-2.42,6.22
				c0,0,0.71-0.09,0.71,0.36s0.18,0.9,0.09,1.35s-0.09,0.36-0.09,1.8s0.37,1.8,0.18,2.25c-0.18,0.45-0.45,1.08-0.54,1.62
				c-0.09,0.53,0.36,1.88,0.54,2.15c0.18,0.28,0.18,0.36,0.45,0.63s-0.45,1.35,0.27,0.27s0.99-1.53,0.99-1.53l0.45-0.54
				c0,0,0-0.72,0.89-0.54c0.91,0.18,0.99,0,1.26,0.36c0.28,0.36-0.36,1.26,0.09,1.35c0.46,0.09,1.8-0.54,2.16-0.45
				c0.36,0.09,0.81,0.18,0.99,0.81s0.45,1.53,0.81,1.71s0.27,0.99,0.45,1.53c0.18,0.53,1.44,0.9,1.71,0.9s1.53,0.18,1.89,0.36
				c0.36,0.18,0,0.81,0.72,0.99s0.9,1.62,0.9,1.62s0.27,1.26,0.09,1.62s-0.09,0.99,0.36,1.08c0.45,0.09,1.62,0.27,1.62,0.27
				s-0.63,0.89,0.36,1.26c0.98,0.36,1.97,0.72,2.25,0.9c0.26,0.18-0.63,0.99,0.53,0.9c1.18-0.09,2.25-0.27,2.79,0.18
				s0.09,1.08,1.53,1.89s1.89,1.07,2.25,1.26c0.36,0.18,1.08,0.09,0.89,1.17c-0.17,1.08-0.35,1.8-0.89,2.24
				c-0.54,0.45-1.26,1.89-1.62,2.34s-0.72,1.26-0.36,1.98c0.36,0.72,0.8,1.53,0.8,1.98s0.18,1.8-0.08,2.34
				c-0.27,0.54-0.81,1.53-0.81,1.53s0.99,0.81,0.27,1.52c-0.72,0.72-1.8,1.53-2.33,1.71c-0.55,0.18-1.62,1.17-1.62,1.17
				s0.08,2.25,0,2.7c-0.09,0.45-2.16,4.05-1.44,4.85c0.72,0.81,0.81,1.71,0.62,2.25c-0.18,0.53-0.44,0.44-0.62,0.89
				s-1.53,0.09-0.72,1.35c0.81,1.25,1.26,1.53,1.62,2.24c0.36,0.72,0.27,0.99,0.81,1.71c0.54,0.71,0.81,1.44,1.44,1.98
				s1.35,0.9,1.35,1.52c0,0.63,1.35,2.07-0.27,0.99c-1.61-1.08-0.18-0.08-2.24-1.79c-2.07-1.71-2.61-1-3.51-2.07
				c-0.9-1.08,0.45,2.69-1.26-1.8c-1.71-4.5-2.16-3.96-2.61-4.95c-0.45-0.99-0.09,0.09-1.35-2.15c-1.26-2.25-0.18-0.81-1.26-2.25
				c-1.08-1.44-1.17,0.54-1.7-2.07c-0.54-2.6-0.63-0.9-1.36-3.86c-0.71-2.97,0.54-3.06-1.08-4.5c-1.61-1.44-1.52-0.72-2.07-1.71
				c-0.54-0.99,0.18-0.09-1.25-2.61c-1.44-2.52-3.41-3.51-3.33-7.82c0.09-4.31,0.09-5.04,0.09-5.04s-2.15-1.7-1.43-4.22
				c0.71-2.52,0.99-1.71,0.71-2.52c-0.27-0.81-0.54-0.63-1.25-1.62c-0.72-0.99-0.81-0.89-0.99-1.52c-0.18-0.63-0.45-1.98-0.45-1.98
				l-0.54,0.45c0,0-5.75,56.81,50.88,65.18c0,0-13.08-2.83-14.16-5.4c0,0-0.27-2.43,0.27-2.43s1.35,0.41,2.16-0.27
				c0.81-0.67,1.76-1.48,1.76-1.48l0.13,1.08c0,0-0.81,0.13,1.75-0.27c2.57-0.4,2.57-0.13,3.51-0.53c0.95-0.41,2.03-2.43,2.56-1.22
				c0.53,1.22-0.67,0.67,0.53,1.22c1.22,0.53,3.51-0.28,3.51-0.28s3.91,0.28,4.32-0.14c0.4-0.4,0.4-1.08,1.08-0.94
				c0.67,0.14,1.07,1.21,1.07,1.21l-2.15,1.22l-2.02,1.49c0,0-0.94,0.27-0.13,0.67s1.21,0.27,2.16,0.4
				c0.94,0.13,3.23,1.89,3.78,0.81c0.54-1.08,0.66-1.22,1.08-1.89c0.4-0.67,0.26-1.49,1.22-1.49c0.93,0,1.88,0.27,1.88,0.27
				l-0.81,1.75c0,0,1.62-0.13,2.3-0.13c0.67,0,0.81,1.08,1.75,0.13c0.95-0.94,1.08-0.94,2.02-1.08c0.95-0.13,2.29-0.54,2.7-0.41
				c0.4,0.14,1.21,0.28,1.62,0.28c0.4,0,2.42,1.48,2.83,1.21c0.4-0.27,2.83-0.13,2.83-0.13s-6.61,6.07-20.63,6.34
				c0,0,31.37,1.44,48.99-29.13s5.39-69.76-34.88-83.43c0,0,30.12,11.15,38.07,40.01l-0.27,0.54c-0.81-0.81-0.81-0.4-1.48-1.75
				s-0.14-1.08-0.67-2.02c-0.54-0.94-0.4-0.27-1.07-1.21c-0.68-0.94-0.81-0.81-1.35-1.35s-1.08-2.29-1.49-2.83s-1.61-0.67-2.16-0.8
				c-0.54-0.14-0.26-0.81-0.54-0.14c-0.26,0.68,0.81,1.75,0.81,1.75v2.16c0,0,0.81,2.02,0.81,2.56s-0.67,2.02-0.67,2.02
				s-0.27,1.62-0.81,1.89c-0.53,0.27-3.63,0.81-3.63,0.81s-0.95-1.08-1.49-2.02c-0.54-0.94-2.29-1.22-2.56-1.62s0.4-1.22-0.41-2.29
				c-0.8-1.08,0-0.81-1.08-1.76c-1.08-0.94-1.08-0.94-1.08-0.94s-2.42-0.81-1.62,0.53c0.81,1.35-0.13,2.84,0.54,2.97
				c0.68,0.13,1.08-0.41,1.62,0.81c0.53,1.21,0.67,1.75,1.07,2.15c0.41,0.4,0.54,2.16,1.08,2.29c0.55,0.14,2.02,0,1.9,0.67
				c-0.14,0.68-0.95,1.62,0,1.89c0.94,0.27,1.07,0.67,1.61,0.54c0.54-0.13,0.27,0.13,1.21-0.27c0.95-0.4,2.03-0.4,2.03-0.4
				s1.2,0.94,1.2,1.35c0,0.4-0.4,2.7-0.4,2.7l-1.21,2.29c0,0,0.13,4.04-0.55,4.04c-0.67,0-1.48,1.75-1.88,2.02
				c-0.41,0.27-0.55,2.97-0.55,2.97l-1.21,1.48c0,0-0.13,2.02,0,2.56c0.14,0.54,0.41,2.7,0.14,3.77c-0.27,1.08-1.75,2.16-1.75,2.16
				s2.02,1.89,0.94,2.15c-1.08,0.27-2.15,1.89-2.43,2.29c-0.26,0.4-0.13,1.22-0.81,1.35c-0.67,0.13-1.88,0.27-1.88,0.68
				c0,0.4,0,2.02,0,2.02l-2.16,3.1l-2.57,2.16c0,0,0.28,1.48-0.54,1.61c-0.8,0.14-3.5,1.22-3.91,1.62c-0.4,0.4-2.42,1.34-3.1,1.34
				c-0.67,0,0.41,1.89-0.67,0c-1.08-1.88-0.27-0.67-1.21-2.83c-0.95-2.16-0.95-0.54-0.95-2.16c0-1.61,0.14-0.13,0-1.61
				c-0.13-1.49,0.41-0.41-0.4-2.16s-0.67-1.22-1.75-2.3c-1.08-1.07-1.89,0-1.21-1.75c0.68-1.75,0.27,0,0.68-1.75
				c0.4-1.76-0.14-2.03,0.94-2.84c1.09-0.81,2.02-0.94,1.89-2.02c-0.14-1.08-0.14-1.48-0.4-2.16c-0.27-0.68-1.35-1.75-1.49-2.16
				c-0.14-0.4-0.14-0.13-0.94-1.35c-0.81-1.21-1.35-1.89-1.35-1.89s-0.27-2.83-0.27-3.91s-0.41,0.67,0-1.08
				c0.4-1.75,0.54-2.83,0.54-2.83s-2.02-1.35-2.83-1.22c-0.8,0.14-0.67,1.35-1.88,0.4c-1.21-0.94-0.94-1.62-1.34-1.89
				c-0.41-0.27-1.22-0.4-1.89,0.14c-0.68,0.54-2.16,0.54-3.38,1.07c-1.21,0.55-1.61,0.41-3.24,0.41c-1.62,0-3.5,0.54-4.72-0.14
				c-1.21-0.67-1.35,0.28-1.89-1.08c-0.54-1.35,0-1.21-1.22-1.89c-1.22-0.67-1.48-0.14-1.62-1.35c-0.13-1.21,0.54-0.95-0.4-2.02
				c-0.94-1.08,0.54,0.54-0.94-1.08s-2.02-0.27-1.48-1.62c0.53-1.35,0.94-0.54,0.94-2.16s2.43,0.67,0.94-2.56
				c-1.48-3.24-1.75-2.57-0.4-4.99c1.35-2.43,3.1-3.24,3.37-3.78s0.81-1.89,1.35-2.29s0.14-0.81,1.35-0.68
				c1.22,0.14,2.56-0.4,3.37-1.21c0.8-0.81,1.89-2.02,2.43-2.16c0.54-0.13,0.27,0.14,1.49-0.13c1.21-0.27,1.47-0.4,2.29-0.4
				c0.8,0-0.82,0.27,1.48-0.14c2.29-0.41,1.75-0.41,2.29-0.41c0.53,0,0.27,0.13,1.21,0.27s0.81-1.89,0.94,0.14
				c0.14,2.02-0.81,2.97,0.81,3.1s0,0.13,1.62,0.13s1.21,0.27,2.02,0.67c0.81,0.41,1.21,0.94,2.43,0.94c1.21,0-0.55,1.75,1.21,0
				c1.75-1.75-1.36-2.02,1.75-1.75c3.1,0.27,3.51,0.94,4.05,0.67c0.54-0.27,0.67,0.27,2.02-0.4c1.34-0.67,1.48-0.67,2.02-0.41
				c0.54,0.27,0.54,1.48,1.08,0.27c0.54-1.21,1.62-0.81,0-1.62c-1.62-0.81-2.16,0.13-2.43-0.95c-0.28-1.08,1.34-0.81-0.28-1.08
				c-1.62-0.27-1.35-0.27-2.56-0.67c-1.22-0.4-2.43,1.22-2.83,0c-0.4-1.21-2.7,0.81-0.4-1.21c2.29-2.02,1.34-2.83,2.83-2.43
				c1.48,0.4,1.08,1.75,2.02,0.94c0.95-0.81,2.7-1.35,0.95-2.56c-1.76-1.21-0.53-0.67-2.3-1.48c-1.75-0.81-3.36,3.1-4.18,2.56
				c-0.81-0.54-1.21-0.95-1.75-0.68c-0.55,0.27-0.55,1.75-0.68,2.83s0.94,1.35-0.81,0.54s1.88-0.4-2.03-1.89
				c-3.91-1.48-5.26-1.08-5.8-0.54c-0.54,0.54-1.35,0.4-1.76,0.81c-0.4,0.4,1.22,1.35-0.4,0.4c-1.62-0.94-3.23,0.54-3.23,0.54
				s-0.54-0.27-1.22,0.27c-0.67,0.54-2.03,0.94-2.83,0.67c-0.81-0.27-2.56,0.27-1.08-1.62c1.49-1.89,0.4-0.81,2.7-1.75
				c2.29-0.94,5.66-1.08,2.7-1.75c-2.97-0.68,1.61-0.68-2.3-2.57c-3.91-1.89-4.04,0.68-3.91-1.89c0.13-2.56-0.27-2.7-1.08-2.56
				c-0.8,0.13-3.23,0.67-4.17,0.81c-0.95,0.13,0.13,0.94-1.62-0.14c-1.76-1.08-2.43,0.54-1.76-1.08c0.68-1.62,0.81-1.89,1.89-2.83
				c1.08-0.94,0.81-4.45,3.5-3.1c2.7,1.35,1.62,0.95,3.78,1.08c2.15,0.14,3.1-0.27,3.1-0.67c0-0.41-2.43-1.62-2.43-1.62
				s-0.8,0.27-0.54-0.14c0.27-0.4,0.81-1.21,0.81-1.21l-0.81-0.68C306.07,69.57,298.52,69.57,296.63,69.98z"/>
		</g>
	</g>
</g>
</svg>
