<?xml version="1.0" encoding="utf-8"?>
<!-- Generator: Adobe Illustrator 23.0.1, SVG Export Plug-In . SVG Version: 6.00 Build 0)  -->
<svg version="1.1" id="Layer_1" xmlns="http://www.w3.org/2000/svg" xmlns:xlink="http://www.w3.org/1999/xlink" x="0px" y="0px"
	 viewBox="0 0 700 700" style="enable-background:new 0 0 700 700;" xml:space="preserve">
<style type="text/css">
	.st0{fill:#38353B;}
	.st1{fill:#EBEBED;}
	.st2{fill:#B6B6B7;}
</style>
<g>
	<g>
		<polygon class="st0" points="101.25,361.73 192.54,316.9 192.54,220.31 100.02,171.41 12,220.72 12,316.9 		"/>
		<polygon class="st0" points="295.79,361.73 387.08,316.9 387.08,220.31 294.56,171.41 206.53,220.72 206.53,316.9 		"/>
		<polygon class="st0" points="195.8,206.32 287.09,161.49 287.09,64.91 194.57,16 106.55,65.31 106.55,161.49 		"/>
	</g>
	<g>
		<polygon class="st1" points="101.25,677 192.54,632.18 192.54,535.59 100.02,486.68 12,536 12,632.18 		"/>
		<polygon class="st1" points="295.79,677 387.08,632.18 387.08,535.59 294.56,486.68 206.53,536 206.53,632.18 		"/>
		<polygon class="st1" points="195.8,521.59 287.09,476.77 287.09,380.18 194.57,331.27 106.55,380.58 106.55,476.77 		"/>
	</g>
	<g>
		<polygon class="st2" points="400.22,524.8 491.51,479.98 491.51,383.39 398.99,334.48 310.96,383.8 310.96,479.98 		"/>
		<polygon class="st2" points="594.75,524.8 686.04,479.98 686.04,383.39 593.53,334.48 505.5,383.8 505.5,479.98 		"/>
		<polygon class="st2" points="494.76,369.39 586.06,324.56 586.06,227.98 493.53,179.07 405.51,228.38 405.51,324.56 		"/>
	</g>
</g>
</svg>
