<?xml version="1.0" encoding="utf-8"?>
<!-- Generator: Adobe Illustrator 23.0.1, SVG Export Plug-In . SVG Version: 6.00 Build 0)  -->
<svg version="1.1" id="Layer_1" xmlns="http://www.w3.org/2000/svg" xmlns:xlink="http://www.w3.org/1999/xlink" x="0px" y="0px"
	 viewBox="0 0 700 700" style="enable-background:new 0 0 700 700;" xml:space="preserve">
<style type="text/css">
	.st0{fill:#EBEBED;}
</style>
<path class="st0" d="M630.4,458.82v-253.4c22-7.2,37.91-27.87,37.91-52.27c0-30.38-24.64-55.01-55.01-55.01
	c-19.16,0-36.02,9.8-45.87,24.66L408.64,70.1c0.15-1.69,0.42-3.36,0.42-5.08c0-30.38-24.64-55.01-55.01-55.01
	c-30.39,0-55.01,24.63-55.01,55.01c0,1.78,0.1,3.54,0.27,5.27L142.9,122.68c-9.86-14.8-26.69-24.55-45.8-24.55
	c-30.38,0-55.01,24.64-55.01,55.01c0,26.41,18.62,48.44,43.44,53.77v250.42c-24.82,5.32-43.44,27.35-43.44,53.77
	c0,30.38,24.63,55.01,55.01,55.01c22.91,0,42.55-14.02,50.82-33.95l158.32,73.65c-4.57,8.01-7.18,17.3-7.18,27.18
	c0,30.38,24.62,55.01,55.01,55.01c30.38,0,55.01-24.63,55.01-55.01c0-9.85-2.69-19.01-7.23-27.01l160.57-74.03
	c8.22,20.03,27.91,34.15,50.9,34.15c30.37,0,55.01-24.63,55.01-55.01C668.31,486.67,652.4,466.01,630.4,458.82z M114.19,458.82
	v-253.4c9.83-3.22,18.32-9.23,24.85-16.94l161.24,75.01c-0.81,3.73-1.24,7.6-1.24,11.57c0,26.41,18.61,48.44,43.43,53.77v36.3v30.27
	l-212.95,71.3C124.9,463.33,119.75,460.64,114.19,458.82z M148.04,490.75l194.42-65.1v153.57c-5.03,1.08-9.76,2.86-14.18,5.21
	l-176.91-82.31C150.71,498.14,149.49,494.39,148.04,490.75z M371.14,580.72V427.43l191.04,63.41c-1.4,3.52-2.47,7.23-3.12,11.07
	l-179.18,82.6C377.1,583.03,374.18,581.71,371.14,580.72z M371.14,397.21v-35.56v-34.33c22-7.2,37.91-27.87,37.91-52.27
	c0-3.91-0.43-7.72-1.2-11.4l163.25-75.26c7.73,9.23,18.41,15.91,30.62,18.53v250.4c-7.71,1.65-14.82,4.94-20.98,9.45L371.14,397.21z
	 M558.44,150.04c-0.06,1.04-0.15,2.06-0.15,3.11c0,3.14,0.27,6.2,0.78,9.2l-164.34,75.77c-6.34-6.99-14.41-12.35-23.59-15.35V117.28
	c11.22-3.67,20.81-10.87,27.56-20.25L558.44,150.04z M309.44,97.15c7.84,10.83,19.5,18.73,33.03,21.63v102.51
	c-11.39,2.44-21.41,8.42-28.99,16.69l-162.2-75.46c0.52-3.05,0.83-6.18,0.83-9.38c0-1.09-0.1-2.17-0.17-3.25L309.44,97.15z"/>
</svg>
