<?xml version="1.0" encoding="utf-8"?>
<!-- Generator: Adobe Illustrator 23.0.1, SVG Export Plug-In . SVG Version: 6.00 Build 0)  -->
<svg version="1.1" id="Layer_1" xmlns="http://www.w3.org/2000/svg" xmlns:xlink="http://www.w3.org/1999/xlink" x="0px" y="0px"
	 viewBox="0 0 700 700" style="enable-background:new 0 0 700 700;" xml:space="preserve">
<style type="text/css">
	.st0{fill:#EBEBED;}
</style>
<g>
	<path class="st0" d="M626.02,427.23c-5.61,0-6.62-0.21-9.35-5.13c-4.5-8.16-12.69-22.9-16.16-29.01
		c-4.93-8.65-0.68-11.91,0.77-14.26c3.57-5.78,5.61-12.57,5.61-19.85c0-7.11-1.96-13.77-5.38-19.46c-1.5-2.51-5.58-6.37-1.75-13.33
		c2.83-5.14,12.47-22.44,17.28-31.05c3.03-5.48,3.64-4.43,8.97-4.43c20.97,0,37.98-17,37.98-37.97s-17.01-37.98-37.98-37.98
		s-37.99,17.01-37.99,37.98c0,9.86,3.79,18.83,9.99,25.58c2.78,3.03,5.21,4.89,2.46,9.91c-4.13,7.52-11.69,21.26-14.88,26.66
		c-4.5,7.6-12.42,6.11-16.66,6.11c-15.21,0-28.27,8.94-34.33,21.84c-0.97,2.06-3.46,6.47-8.72,6.47c-2.86,0-9.67,0-15.22,0
		c-6.31,0-8.7-3.16-11.82-8.77c-6.49-11.65-18.89-19.54-33.15-19.54c-9.16,0-10.53,0.65-13.84-5.05
		c-7.56-13.01-24.08-41.45-25.83-44.78c-2.28-4.37-0.46-10.71,1.06-12.79c4.59-6.26,7.3-13.97,7.3-22.33
		c0-6.58-1.67-12.75-4.62-18.13c-3.6-6.59-5.82-7.77-2.27-13.72c2.34-3.88,5.32-8.89,7.3-12.2c3.68-6.14,9.88-5.32,12.88-5.06
		c7.42,0.61,15.08-0.94,22.03-4.95c18.17-10.49,24.38-33.71,13.9-51.87c-10.49-18.15-33.71-24.38-51.88-13.89
		c-18.15,10.49-24.38,33.71-13.89,51.87c3.51,6.08,5.94,7.63,1.72,14.8c-2.18,3.73-4.81,8.1-6.77,11.08
		c-4.03,6.11-11.94,4.1-16.36,4.1c-15.27,0-28.38,9.01-34.41,22c-1.04,2.24-5.84,7.04-11.01,7.04c-15.05,0-45.21,0-51.1,0
		c-7.92,0-10.24-5.19-11.4-7.57c-6.12-12.7-19.11-21.46-34.15-21.46c-2.72,0-9.51-1.97-11.57-5.67c-1.98-3.55-4.4-7.9-6.3-11.38
		c-3.87-7.12-0.05-12.54,1.71-15.16c4.08-6.04,6.48-13.31,6.48-21.16c0-9.01-3.15-17.27-8.4-23.78c-1.75-2.16-4.29-8.68-2.01-12.59
		c4.38-7.54,11.24-19.17,13.7-22.68c3.71-5.31,8.74-5.08,11.17-4.56c8.85,1.88,18.38,0.64,26.83-4.23
		c18.15-10.48,24.38-33.71,13.89-51.87C289.38,6.83,266.16,0.61,248,11.09s-24.39,33.7-13.9,51.88c1.07,1.83,2.23,5.84-1.07,12.86
		c-2.17,4.62-9.66,16.83-14.55,24.66c-5.44,5.56-7.24,6.26-11.77,6.26c-14.25,0-26.65,7.85-33.14,19.46
		c-3,5.38-3.65,7.83-11.48,7.83c-5.72,0-13.09,0-17.65,0c-8.27,0-10.88-5.77-12.15-8.42c-6.09-12.8-19.14-21.66-34.29-21.66
		c-20.96,0-37.96,16.99-37.96,37.96s17,37.98,37.96,37.98c14.08,0,26.33-7.66,32.88-19.03c3.64-6.3,4.76-8.95,11.06-8.95
		c5.99,0,14.21,0,19.07,0c8.28,0,9.46,4.31,10.24,6.35c5.44,14.28,19.26,24.42,35.45,24.42c3.31,0,8.68-1.09,13.51,5.86
		c2.06,2.97,4.2,6.7,5.97,10c2.38,4.45,0.06,11.84-1.64,13.99c-5.12,6.47-8.17,14.64-8.17,23.52c0,7.44,2.15,14.37,5.85,20.22
		c1.66,2.61,5.14,8.11,0.93,15.95c-3.04,5.67-16.79,29.31-24.17,41.97c-5.23,6.54-11.08,6.82-14.42,6.82
		c-14.35,0-26.82,7.98-33.27,19.72c-2.01,3.67-3.46,8.58-12.59,8.58c-4.45,0-9.6,0-13.32,0c-7.91,0-9.85-7.13-11.79-10.28
		c-6.69-10.82-18.63-18.03-32.28-18.03c-20.97,0-37.96,17-37.96,37.98c0,20.97,16.99,37.97,37.96,37.97
		c14.7,0,27.45-8.37,33.74-20.59c2.36-4.55,3.57-9.19,10.33-9.19c3.46,0,7.69,0,11.51,0c8.28,0,12.49,6.43,13.99,9.34
		c6.34,12.14,19.04,20.44,33.68,20.44c3.61,0,10.37-0.6,15.18,6.76c3.39,5.2,16.28,27.79,23.48,40.49
		c4.81,8.48,3.12,9.55-0.96,15.99c-3.72,5.85-5.88,12.8-5.88,20.25c0,6.05,1.43,11.76,3.96,16.81c1.55,3.12,5.85,7.32,1.5,15.8
		c-2.17,4.23-4.76,8.57-6.83,11.85c-4.01,6.42-7.68,4.08-12.26,3.64c-7.62-0.76-15.53,0.77-22.64,4.89
		c-7.04,4.07-12.27,10.05-15.43,16.92c-1.2,2.58-4.75,8.08-11.95,8.08c-2.56,0-5.51,0-8.28,0c-6.2,0-10.4-5.19-12.83-9.78
		c-6.34-12.08-19.02-20.31-33.61-20.31c-20.96,0-37.96,17-37.96,37.97c0,20.97,17,37.97,37.96,37.97c14.06,0,26.31-7.65,32.86-19.01
		c3.27-5.68,7.58-8.97,12.5-8.97c3.17,0,6.7,0,9.71,0c7.56,0,11.45,6.1,13.12,8.99c6.79,11.74,18.9,18.48,31.53,18.93
		c7.66,0.28,8.61,0.07,12.65,6.35l3.19,5.75c2.86,5.6-0.03,8.59-4.62,16.54c-10.5,18.16-4.27,41.39,13.9,51.87
		c18.16,10.49,41.38,4.27,51.87-13.9c10.47-18.15,4.26-41.37-13.91-51.87c-5.61-3.23-11.7-4.87-17.76-5.04
		c-7.15-0.21-10.78-0.27-13.07-4.88l-3.55-6.36c-2.8-4.51-3.05-5.83,2.59-13.06c9.22-11.82,10.92-28.51,2.96-42.29
		c-1.56-2.7-5.02-7.24-1.66-13.64c1.81-3.45,4.74-8.32,7.08-12.1c3.04-4.91,6.52-3.18,16.97-3.18c15.25,0,28.39-9,34.41-21.98
		c1.04-2.24,2.1-7.07,8.84-7.07c5.31,0,40.66,0,55.45,0c3.99,0,7.93,4.86,8.98,7.11c6.04,12.95,19.16,21.94,34.39,21.94
		c2.41,0,7.19-1,10.02,4.71c1.4,2.84,4.22,7.88,6.66,12.2c3.13,5.54,1.46,10.65-1.15,14.36c-4.3,6.15-6.83,13.61-6.83,21.69
		c0,20.97,17.01,37.96,37.98,37.96c16.57,0.01,30.62-10.62,35.79-25.42c0.83-2.32,2.8-7.25,8.8-7.25c3.32,0,9.72,0,14.74,0
		c3.98,0,7.95,4.54,8.66,6.7c5.03,15.08,19.22,25.97,36,25.97c20.97,0,37.96-17,37.96-37.97c0-20.97-16.99-37.97-37.96-37.97
		c-14.33,0-26.76,7.94-33.23,19.65c-2.74,5-4.46,5.75-9.93,5.75c-5.19,0-12.06,0-16.99,0c-9,0-9.82-4.43-11.03-6.47
		c-6.57-11.31-18.78-18.93-32.81-18.93c-8.33,0-9.82,1.17-13.27-5.11c-2.04-3.69-4.54-8.19-6.32-11.21
		c-3.51-5.98,0.26-10.2,1.96-12.23c5.56-6.6,8.91-15.11,8.91-24.4c0-8.47-2.78-16.27-7.47-22.57c-1.47-1.98-5.64-5.19-1.16-12.08
		c3.44-5.3,18.82-32.26,25.73-44.44c2.56-4.51,7.63-4.39,14.21-4.39c15.42,0,28.69-9.21,34.61-22.44c1.06-2.34,3.1-7.35,9.35-7.35
		c3.29,0,9.3,0,14.23,0c5.95,0,8.56,3.48,10.71,8.02c6.1,12.86,19.16,21.76,34.33,21.76c4.24,0,11.69-2.8,16.17,5.21
		c3,5.36,10.13,18.21,14.54,26.1c3.06,5.54,2.08,7.11-2.2,12.01c-5.86,6.65-9.41,15.37-9.41,24.93c0,20.97,17.01,37.97,37.99,37.97
		c20.97,0,37.98-17,37.98-37.97C664,444.24,646.99,427.23,626.02,427.23z M435.77,392.7c-2.25,3.5-17.36,29.85-25.04,43.27
		c-4.5,7.89-9.04,6.48-14.31,6.48c-14.98,0-27.91,8.69-34.08,21.3c-1.18,2.45-3.04,7.74-9.28,7.74c-4.9,0-40.26,0-55.19,0
		c-6.04,0-7.64-4.01-9.25-7.37c-6.1-12.81-19.13-21.66-34.26-21.66c-3.72,0-10.92,1.6-15.42-6.63c-4.53-8.23-23.8-41.21-23.8-41.21
		c-3.75-5.16-2.65-9.11,1.11-14.75c3.96-5.99,6.28-13.16,6.28-20.88c0-8.25-2.65-15.88-7.12-22.08c-3.4-4.72-4.15-8.43-1.11-13.82
		c7.15-12.68,20.9-36.94,24.52-42.25c4.95-7.24,11.83-6.8,15.55-6.8c14.81,0,27.62-8.5,33.87-20.87c1.29-2.57,3.4-8.17,13.12-8.17
		c7.27,0,36.24,0,50.38,0c4.76,0,9.37,5.15,10.51,7.54c6.12,12.72,19.1,21.5,34.19,21.5c3.42,0,10.51-0.34,13.93,5.71
		c2.57,4.58,18.29,31.73,25.73,44.59c2.37,4.1,0.71,9.98-0.67,11.79c-4.83,6.36-7.7,14.27-7.7,22.87c0,7.54,2.2,14.56,6,20.47
		C435.36,381.97,438.8,387.99,435.77,392.7z"/>
	<path class="st0" d="M282.56,236.05c0,15.29-12.4,27.68-27.68,27.68s-27.68-12.39-27.68-27.68c0-15.3,12.4-27.68,27.68-27.68
		C270.17,208.37,282.56,220.75,282.56,236.05z"/>
	<path class="st0" d="M415.95,571.35c0-15.3,12.38-27.69,27.67-27.69c15.31,0,27.69,12.4,27.69,27.69
		c0,15.28-12.38,27.67-27.69,27.67C428.33,599.02,415.95,586.63,415.95,571.35z"/>
	<path class="st0" d="M465.08,173.08c-13.24,7.63-30.16,3.1-37.81-10.13c-7.64-13.25-3.11-30.17,10.14-37.83
		c13.24-7.63,30.16-3.09,37.8,10.14C482.86,148.51,478.32,165.43,465.08,173.08z"/>
	<path class="st0" d="M234.9,144.71c0,15.3-12.38,27.68-27.67,27.68c-15.28,0-27.69-12.39-27.69-27.68s12.41-27.67,27.69-27.67
		C222.52,117.04,234.9,129.42,234.9,144.71z"/>
	<path class="st0" d="M185.77,542.33c13.24-7.65,30.16-3.11,37.82,10.13c7.63,13.24,3.1,30.16-10.13,37.81
		c-13.25,7.64-30.18,3.11-37.83-10.13C167.99,566.89,172.52,549.98,185.77,542.33z"/>
	<path class="st0" d="M282.56,480.42c0,15.3-12.4,27.68-27.68,27.68s-27.68-12.38-27.68-27.68c0-15.29,12.4-27.68,27.68-27.68
		C270.17,452.75,282.56,465.14,282.56,480.42z"/>
	<path class="st0" d="M424.63,236.05c0,15.29-12.39,27.68-27.68,27.68c-15.3,0-27.69-12.39-27.69-27.68
		c0-15.3,12.39-27.68,27.69-27.68C412.24,208.37,424.63,220.75,424.63,236.05z"/>
	<path class="st0" d="M424.63,480.42c0,15.3-12.39,27.68-27.68,27.68c-15.3,0-27.69-12.38-27.69-27.68
		c0-15.29,12.39-27.68,27.69-27.68C412.24,452.75,424.63,465.14,424.63,480.42z"/>
	<path class="st0" d="M212.76,358.97c0,15.28-12.39,27.67-27.69,27.67c-15.28,0-27.67-12.39-27.67-27.67
		c0-15.29,12.39-27.68,27.67-27.68C200.38,331.29,212.76,343.68,212.76,358.97z"/>
	<path class="st0" d="M109.51,358.97c0,15.28-12.4,27.67-27.67,27.67c-15.29,0-27.69-12.39-27.69-27.67
		c0-15.29,12.4-27.68,27.69-27.68C97.11,331.29,109.51,343.68,109.51,358.97z"/>
	<path class="st0" d="M126.22,566.3c0,15.29-12.4,27.67-27.69,27.67s-27.67-12.39-27.67-27.67c0-15.29,12.39-27.68,27.67-27.68
		S126.22,551.01,126.22,566.3z"/>
	<path class="st0" d="M493.9,358.97c0,15.28-12.41,27.67-27.69,27.67s-27.67-12.39-27.67-27.67c0-15.29,12.39-27.68,27.67-27.68
		S493.9,343.68,493.9,358.97z"/>
	<path class="st0" d="M597.13,358.97c0,15.28-12.38,27.67-27.67,27.67s-27.69-12.39-27.69-27.67c0-15.29,12.4-27.68,27.69-27.68
		S597.13,343.68,597.13,358.97z"/>
	<path class="st0" d="M654.22,465.2c0,15.29-12.39,27.68-27.67,27.68c-15.29,0-27.69-12.39-27.69-27.68
		c0-15.29,12.41-27.68,27.69-27.68C641.84,437.53,654.22,449.92,654.22,465.2z"/>
	<path class="st0" d="M654.22,252.74c0-15.29-12.39-27.68-27.67-27.68c-15.29,0-27.69,12.39-27.69,27.68s12.41,27.67,27.69,27.67
		C641.84,280.42,654.22,268.03,654.22,252.74z"/>
	<path class="st0" d="M253.65,20c13.26-7.64,30.18-3.1,37.83,10.14c7.64,13.24,3.1,30.17-10.14,37.82
		c-13.24,7.64-30.16,3.1-37.8-10.13C235.9,44.56,240.43,27.65,253.65,20z"/>
	<path class="st0" d="M126.22,141.91c0,15.3-12.4,27.69-27.69,27.69s-27.67-12.4-27.67-27.69s12.39-27.67,27.67-27.67
		S126.22,126.62,126.22,141.91z"/>
	<path class="st0" d="M256.18,627.86c-13.24-7.63-30.16-3.1-37.81,10.13c-7.65,13.25-3.11,30.17,10.13,37.83
		c13.25,7.63,30.16,3.11,37.81-10.14C273.96,652.44,269.42,635.52,256.18,627.86z"/>
	<path class="st0" d="M575.3,571.34c0,15.29-12.39,27.68-27.68,27.68c-15.28,0-27.68-12.39-27.68-27.68s12.4-27.68,27.68-27.68
		C562.91,543.65,575.3,556.05,575.3,571.34z"/>
</g>
</svg>
