<?xml version="1.0" encoding="utf-8"?>
<!-- Generator: Adobe Illustrator 23.0.1, SVG Export Plug-In . SVG Version: 6.00 Build 0)  -->
<svg version="1.1" id="Layer_1" xmlns="http://www.w3.org/2000/svg" xmlns:xlink="http://www.w3.org/1999/xlink" x="0px" y="0px"
	 viewBox="0 0 400 400" style="enable-background:new 0 0 400 400;" xml:space="preserve">
<style type="text/css">
	.st0{opacity:0.3;}
	.st1{fill:#9CAAAD;}
	.st2{fill:#7E8889;}
	.st3{fill:none;}
	.st4{fill:#FFFFFF;}
	.st5{font-family:'HelveticaNeue-Medium';}
	.st6{font-size:13.6038px;}
	.st7{fill:#F0F4F6;}
	.st8{fill:#2A3161;}
	.st9{fill:#97C7D6;}
	.st10{fill:#FFC8A0;}
	.st11{fill:#1F89A9;}
	.st12{opacity:0.7;}
	.st13{fill:url(#SVGID_1_);}
	.st14{opacity:0.8;}
	.st15{fill:#FF3C71;}
	.st16{opacity:0.4;}
	.st17{fill:none;stroke:#FFFFFF;stroke-width:10;stroke-linecap:round;stroke-linejoin:round;stroke-miterlimit:10;}
	.st18{fill:none;stroke:#FFFFFF;stroke-width:12;stroke-linecap:round;stroke-linejoin:round;stroke-miterlimit:10;}
	.st19{fill:none;stroke:#FFFFFF;stroke-width:11;stroke-miterlimit:10;}
	.st20{fill:#AFD136;}
	.st21{fill:#92A00B;}
	.st22{display:none;}
	.st23{display:inline;}
	.st24{fill:#00D99C;}
	.st25{display:inline;fill:#00D99C;}
	.st26{fill:#00EBC4;}
	.st27{fill:#1B637A;}
	.st28{font-size:20.4057px;}
</style>
<g>
	<g class="st0">
		<path class="st1" d="M257.45,41.2c-51.16-22.64-62.64,30.65-106.11,52.89c-46.16,20.24-119.37-7.58-132.41,59.85
			c-9.51,49.17,29.11,62.68,69.83,100.67c25.37,23.67-32.32,58.98,2.38,97.66c52.08,58.05,90.55,9.09,140.55-41.42
			c16.73-16.9,34.96-33.37,58.41-39.54c26.11-7.28,59.92,9.33,80.92-27.2c32.09-55.83-24.4-87.01-62.26-105.63
			c-41.79-20.54-10.28-77.28-51.3-96.36"/>
	</g>
	<g>
		<path class="st2" d="M50.09,373.18c0,11.27,9.14,20.4,20.4,20.4h256.98c11.27,0,20.4-9.14,20.4-20.4v-42.43
			c0-11.27-9.14-20.4-20.4-20.4H70.5c-11.27,0-20.4,9.14-20.4,20.4L50.09,373.18L50.09,373.18z"/>
		<g>
			<g>
				<rect x="89.55" y="340.43" class="st3" width="93.59" height="47.07"/>
				<text transform="matrix(1 0 0 1 89.5498 350.1504)" class="st4 st5 st6">Fiebre</text>
				<text transform="matrix(1 0 0 1 89.5498 365.1152)" class="st4 st5 st6">Tos seca</text>
				<text transform="matrix(1 0 0 1 89.5498 380.0771)" class="st4 st5 st6">Falta de aire</text>
				<g>
					<g>
						<g>
							<path class="st7" d="M82.39,347.26c1.25,0,1.25-1.94,0-1.94C81.14,345.32,81.14,347.26,82.39,347.26L82.39,347.26z"/>
						</g>
					</g>
					<g>
						<g>
							<path class="st7" d="M82.39,362.22c1.25,0,1.25-1.94,0-1.94C81.14,360.28,81.14,362.22,82.39,362.22L82.39,362.22z"/>
						</g>
					</g>
					<g>
						<g>
							<path class="st7" d="M82.39,377.19c1.25,0,1.25-1.94,0-1.94C81.14,375.25,81.14,377.19,82.39,377.19L82.39,377.19z"/>
						</g>
					</g>
				</g>
			</g>
			<g>
				<rect x="211.41" y="340.43" class="st3" width="117.78" height="47.07"/>
				<text transform="matrix(1 0 0 1 211.4092 350.1504)" class="st4 st5 st6">Cansancio</text>
				<text transform="matrix(1 0 0 1 211.4092 365.1152)" class="st4 st5 st6">Dolor de cabeza</text>
				<text transform="matrix(1 0 0 1 211.4092 380.0771)" class="st4 st5 st6">Malestar</text>
				<g>
					<g>
						<g>
							<path class="st7" d="M203.94,347.26c1.25,0,1.25-1.94,0-1.94C202.69,345.32,202.69,347.26,203.94,347.26L203.94,347.26z"/>
						</g>
					</g>
					<g>
						<g>
							<path class="st7" d="M203.94,362.22c1.25,0,1.25-1.94,0-1.94C202.69,360.28,202.69,362.22,203.94,362.22L203.94,362.22z"/>
						</g>
					</g>
					<g>
						<g>
							<path class="st7" d="M203.94,377.19c1.25,0,1.25-1.94,0-1.94C202.69,375.25,202.69,377.19,203.94,377.19L203.94,377.19z"/>
						</g>
					</g>
				</g>
			</g>
		</g>
	</g>
	<g>
		<g>
			<path class="st8" d="M153.97,124.68c-0.45,11.33-2.72,24.94-8.16,35.37c-6.8,12.24-23.13,20.4-31.29,31.29
				c-9.98,13.15-12.7,30.38-4.08,44.44c12.7,21.31,46.71,24.49,69.38,26.3c26.3,2.27,54.87,0.91,79.81-9.07
				c17.68-6.8,23.13-19.95,21.31-37.18c-1.36-14.51-14.06-21.77-20.86-34.47c-6.35-12.24-3.01-62.96-6.11-79.9"/>
		</g>
		<g>
			<path class="st9" d="M141.72,321.39c0-25.36-1.36-71.27,10.88-93.94c9.52-18.35,29.02-23.21,45.8-24.83
				c27.21-2.16,49.88,6.48,62.12,38.32c3.63,10.8,5.44,21.59,6.35,32.92c0.91,9.18-0.45,36.28-0.45,47.53"/>
		</g>
		<g>
			<g>
				<path class="st10" d="M240.07,280.09c-1.87-6.66-4.29-13.02-6.16-19.69c-0.81-2.12-0.31-8.52-4.05-8.65
					c-3.86,0.31-4.05,7.27-3.24,9.39c-3.74-3.43-12.65-17.59-18.03-16.62c-7.06,1.28,5.8,12.59,8.04,16.23
					c-2.24-2.06-13.93-11.64-17.73-9.9c-6.6,3.3,10.69,13.08,12.93,15.13c-2.61-0.75-16.48-9.02-18.35-5.78
					c-2.68,4.42,10.97,10.26,15.3,12.87c-1.8,0.45-15.51-7.71-16.12-3.59c-0.68,4.57,11.03,9.15,13.4,10.78
					c9.03,6.36,17.19,9.16,27.65,12.16"/>
			</g>
			<g>
				<path class="st11" d="M315.62,269.85c-6.92-48.59-40.09-60.32-75.85-58.24c7.32,15.09,12.7,36.29,16.14,52.71
					c15.49,1.38,12.75,10.19,12.75,10.19c-4.15,9.78-21.99-0.39-32.52-7.55l-19.95,29.9C261.54,331.91,323.31,325.95,315.62,269.85
					C315.82,271.32,315.62,269.85,315.62,269.85"/>
			</g>
		</g>
		<g>
			<g>
				<g>
					<path class="st10" d="M163.02,146.9c-20.31-9.26-22.67,22.22,0.91,14.51"/>
				</g>
				<g>
					<path class="st10" d="M245.86,146.9c20.31-9.26,22.67,22.22-0.91,14.51"/>
				</g>
			</g>
			<g>
				<g>
					<path class="st10" d="M161.54,106.9c-0.58,40.14-15.43,85.65,40.81,85.7c62.96,0.05,46.1-48.88,42.17-91.15"/>
				</g>
				<g class="st12">
					
						<linearGradient id="SVGID_1_" gradientUnits="userSpaceOnUse" x1="204.4296" y1="300.5419" x2="204.4296" y2="209.3958" gradientTransform="matrix(1 0 0 -1 0 402)">
						<stop  offset="0.1652" style="stop-color:#FF3C71"/>
						<stop  offset="0.3637" style="stop-color:#FF6C81;stop-opacity:0.7705"/>
						<stop  offset="0.5578" style="stop-color:#FF948E;stop-opacity:0.5462"/>
						<stop  offset="0.7344" style="stop-color:#FFB198;stop-opacity:0.3421"/>
						<stop  offset="0.8875" style="stop-color:#FFC29E;stop-opacity:0.1651"/>
						<stop  offset="1" style="stop-color:#FFC8A0;stop-opacity:0.035"/>
					</linearGradient>
					<path class="st13" d="M161.54,106.9c-0.58,40.14-15.43,85.65,40.81,85.7c62.96,0.05,46.1-48.88,42.17-91.15"/>
				</g>
			</g>
			<g>
				<g>
					<path class="st10" d="M200.55,179.1c0,9.98,0,19.95,0,29.93c0,4.99,7.76,5,7.76,0c0-9.98,0-19.95,0-29.93
						C208.31,174.1,200.55,174.1,200.55,179.1L200.55,179.1z"/>
				</g>
			</g>
			<g>
				<g>
					<g>
						<path class="st8" d="M194.91,150.53c-0.78,1.28-2.02,2.29-3.41,2.96c-1.39,0.67-2.92,1.03-4.45,1.12
							c-1.53,0.09-3.07-0.1-4.53-0.55c-1.45-0.45-2.84-1.14-3.94-2.17c1.42,0.46,2.8,0.79,4.2,0.98c1.4,0.19,2.79,0.26,4.18,0.19
							s2.76-0.29,4.09-0.69C192.39,151.96,193.66,151.35,194.91,150.53z"/>
					</g>
					<g>
						<path class="st8" d="M213.95,150.53c1.25,0.83,2.52,1.44,3.86,1.83c1.33,0.41,2.7,0.62,4.09,0.69s2.78,0.01,4.18-0.19
							c1.4-0.19,2.78-0.52,4.2-0.98c-1.09,1.03-2.49,1.72-3.94,2.17c-1.45,0.44-3,0.63-4.53,0.55s-3.06-0.44-4.45-1.12
							C215.98,152.82,214.73,151.81,213.95,150.53z"/>
					</g>
				</g>
				<g class="st14">
					<path class="st15" d="M203.81,145.54c-1.32,4.99-5.43,15.86,0.62,15.87C211.75,161.43,204.72,148.71,203.81,145.54"/>
				</g>
				<g>
					<g>
						<g>
							<path class="st8" d="M191.61,143.51c-4.07,2.85-10.42,2.71-14.72,0.45c-0.28-0.14-0.52,0.28-0.24,0.42
								c4.45,2.33,11,2.51,15.21-0.45C192.11,143.76,191.86,143.34,191.61,143.51L191.61,143.51z"/>
						</g>
					</g>
					<g>
						<g>
							<path class="st8" d="M217,143.93c4.21,2.96,10.76,2.78,15.21,0.45c0.28-0.14,0.03-0.56-0.24-0.42
								c-4.3,2.25-10.65,2.41-14.72-0.45C216.99,143.34,216.75,143.76,217,143.93L217,143.93z"/>
						</g>
					</g>
				</g>
				<g class="st16">
					<g>
						<g>
							<path class="st15" d="M180.63,172.22c3.12,0,3.13-4.85,0-4.85C177.5,167.37,177.5,172.22,180.63,172.22L180.63,172.22z"/>
						</g>
					</g>
					<g>
						<g>
							<path class="st15" d="M228.24,172.22c3.12,0,3.13-4.85,0-4.85C225.12,167.37,225.11,172.22,228.24,172.22L228.24,172.22z"/>
						</g>
					</g>
				</g>
				<g>
					<g>
						<path class="st8" d="M196.39,170.69c6.4-3.51,14.24-2.47,18.71,3.54c0.18,0.25,0.61,0.01,0.42-0.24
							c-4.64-6.23-12.73-7.37-19.38-3.71C195.87,170.42,196.12,170.83,196.39,170.69L196.39,170.69z"/>
					</g>
				</g>
			</g>
			<g>
				<g>
					<path class="st8" d="M214.35,104.27c-11.37,20.83-35.04,39.86-59.4,41.27c-2.7-14.17-7.35-47.04,1.07-59.69
						c7.45-11.19,27.62-16.4,35.2-2.43"/>
				</g>
				<g>
					<path class="st8" d="M187.84,82.06c-2.26,22.58,28.23,36.91,45.8,40.81c2.95,0.42,13.93,35.41,15.42,33.92
						c5.98-5.97,6.17-43.24,5.9-51.6C253.65,65.59,199.23,47.31,187.84,82.06"/>
				</g>
				<g>
					<path class="st8" d="M173.79,114.25c-6.35,10.88-6.35,36.28-11.79,42.54c-6.3-6.26-7.71-22.58-8.16-33.92"/>
				</g>
			</g>
		</g>
		<g>
			<g>
				<path class="st10" d="M143.17,128.76c4.99-8.16,9.27-15.86,15.53-25.68c4.08-6.4,12.59-11.85,12.59-6.52
					c0,2.72-9.07,16.32-10.43,18.14c1.82-2.72,12.24-15.87,16.32-14.06c5.9,2.72-7.71,14.06-9.98,16.32
					c1.81-1.36,14.06-9.97,15.42-6.8c1.36,3.63-7.25,11.34-9.52,12.7c2.72-1.36,11.33-6.8,12.7-3.18
					c1.36,4.53-7.71,9.07-10.43,10.88c-7.26,5.44-14.06,10.43-22.67,13.6"/>
			</g>
			<g>
				<path class="st11" d="M118.05,195.42c0.66-1.8,37.87-46.98,39.22-48.07c-5.02-9.11-10.88-17.73-15.77-26.92
					c-3.39,1.11-19.2,7.98-22.91,9.75c-40.31,19.29-64.94,54.49-45.6,96.19c11.97,25.81,50.49,35.87,69.92,32.57
					c5.28-0.89,4.54-18.19,25.46-45.64C149.67,202.22,111.97,211.89,118.05,195.42z"/>
			</g>
		</g>
		<g>
			<path class="st17" d="M178.99,201.77c8.74,19.25,50.33,20.86,58.5,0"/>
			<path class="st18" d="M163.57,209.93c10.22,28.69,75.27,34.92,89.78-0.45"/>
			<path class="st19" d="M235.67,230.33c18.14,21.77,44.44-4.53,54.42-19.95c12.7-19.95,21.77-24.49,46.25-22.67"/>
		</g>
	</g>
	<g>
		<g>
			<g>
				<g>
					<path class="st20" d="M64.97,47.46c4.12-4.89,6.13-12.27,2.79-17.12C63.47,24.1,65.61,18,71.7,18.23
						c5.47,0.21,6.78,6.94,2.95,12.6c-3.38,5,0.81,13.85,4.51,16.62"/>
					<path class="st20" d="M79.16,112.82c-4.12,4.89-6.13,12.27-2.79,17.12c4.29,6.23,2.15,12.34-3.94,12.1
						c-5.47-0.21-6.78-6.94-2.95-12.6c3.38-5-0.81-13.85-4.51-16.62"/>
					<path class="st20" d="M39.39,87.23c-4.89-4.12-12.27-6.13-17.12-2.79c-6.24,4.29-12.34,2.15-12.1-3.94
						c0.21-5.47,6.94-6.78,12.6-2.95c5,3.38,13.85-0.8,16.62-4.51"/>
					<path class="st20" d="M104.74,73.04c4.89,4.12,12.27,6.13,17.12,2.79c6.23-4.29,12.34-2.15,12.1,3.94
						c-0.21,5.47-6.94,6.78-12.6,2.95c-5-3.38-13.85,0.81-16.62,4.51"/>
					<path class="st20" d="M43.63,62.54c-0.66-6.36-4.57-12.93-10.38-13.9c-7.47-1.24-10.37-7.02-5.97-11.24
						c3.95-3.79,9.7-0.06,11.12,6.63c1.25,5.9,10.52,9.04,15.09,8.3"/>
					<path class="st20" d="M100.5,97.73c0.66,6.36,4.57,12.93,10.38,13.9c7.47,1.24,10.37,7.02,5.97,11.24
						c-3.95,3.79-9.7,0.05-11.12-6.63c-1.25-5.9-10.52-9.04-15.09-8.3"/>
					<path class="st20" d="M54.47,108.57c-6.35,0.66-12.93,4.57-13.9,10.38c-1.24,7.47-7.02,10.37-11.24,5.97
						c-3.79-3.95-0.05-9.7,6.63-11.11c5.9-1.25,9.04-10.52,8.3-15.09"/>
					<path class="st20" d="M89.66,51.7c6.36-0.66,12.93-4.57,13.9-10.38c1.24-7.47,7.02-10.37,11.24-5.97
						c3.79,3.95,0.05,9.7-6.63,11.12c-5.9,1.25-9.04,10.52-8.3,15.09"/>
				</g>
				<g>
					<path class="st20" d="M56.25,57.33c1.6-5.05,0.8-11.36-3.3-14.02c-5.28-3.42-5.57-8.77-0.82-10.53
						c4.26-1.58,7.4,3.17,6.26,8.73c-1,4.91,5.02,10.36,8.74,11.31"/>
					<path class="st20" d="M87.89,102.94c-1.61,5.05-0.8,11.36,3.3,14.01c5.27,3.42,5.57,8.77,0.82,10.54
						c-4.26,1.57-7.4-3.17-6.26-8.73c1-4.91-5.02-10.36-8.74-11.31"/>
					<path class="st20" d="M49.26,95.96c-5.05-1.61-11.35-0.8-14.02,3.3c-3.42,5.27-8.77,5.57-10.53,0.82
						c-1.58-4.26,3.17-7.4,8.73-6.26c4.91,1,10.37-5.02,11.31-8.74"/>
					<path class="st20" d="M94.87,64.32c5.05,1.61,11.36,0.8,14.02-3.3c3.42-5.27,8.77-5.57,10.53-0.82
						c1.58,4.26-3.17,7.4-8.73,6.26c-4.91-1-10.36,5.02-11.31,8.74"/>
					<path class="st20" d="M44.67,75.67c-2.52-4.67-7.61-8.47-12.37-7.36c-6.12,1.42-10.18-2.09-8.15-6.73
						c1.83-4.16,7.42-3.13,10.63,1.56c2.84,4.13,10.94,3.59,14.21,1.57"/>
					<path class="st20" d="M99.46,84.6c2.52,4.67,7.61,8.46,12.37,7.36c6.12-1.42,10.18,2.09,8.15,6.73
						c-1.82,4.16-7.42,3.12-10.63-1.56c-2.84-4.13-10.94-3.59-14.21-1.57"/>
					<path class="st20" d="M67.61,107.53c-4.67,2.52-8.47,7.61-7.36,12.37c1.42,6.12-2.09,10.18-6.73,8.15
						c-4.16-1.82-3.12-7.42,1.56-10.63c4.13-2.84,3.59-10.94,1.57-14.21"/>
					<path class="st20" d="M76.53,52.74c4.67-2.53,8.47-7.61,7.36-12.37c-1.42-6.12,2.09-10.18,6.73-8.15
						c4.16,1.82,3.13,7.42-1.56,10.63c-4.13,2.84-3.59,10.94-1.57,14.21"/>
				</g>
			</g>
			<path class="st20" d="M73.3,44.04c-15.76-0.02-28.47,7.86-34.25,20.42c-5.78,12.96-3.32,29.24,6.21,40.84
				c12.27,14.92,43.74,14.71,55.29-1.39c8.66-12.17,10.49-30.58,2.65-43.93C97.83,50.17,84.44,43.65,73.3,44.04"/>
			<g>
				<path class="st21" d="M72.78,54.03c-4.57-5.51-22.15,2.07-15.04,9.61C62.37,68.54,80.3,62.38,72.78,54.03"/>
				<path class="st21" d="M89.88,98.52c-2.94-6.53-21.9-3.9-17.05,5.26C75.98,109.73,94.9,108.57,89.88,98.52"/>
				<path class="st21" d="M94.39,63.13c-2.68-3.58-12.99,1.35-8.82,6.25C88.29,72.56,98.81,68.56,94.39,63.13"/>
				<path class="st21" d="M55.43,86.65c0-4.48-11.2-6.71-10.8-0.29C44.88,90.53,55.7,93.65,55.43,86.65"/>
				<path class="st21" d="M81.79,76.51c-3.02-9.02-22.48-5.38-17.5,7.27C67.53,91.99,86.95,90.39,81.79,76.51"/>
				<g>
					<path class="st21" d="M95.68,90.08c6.18,0,6.18-9.59,0-9.59C89.5,80.5,89.5,90.08,95.68,90.08L95.68,90.08z"/>
				</g>
				<g>
					<path class="st21" d="M48.07,73.79c5.15,0,5.15-7.99,0-7.99C42.92,65.8,42.92,73.79,48.07,73.79L48.07,73.79z"/>
				</g>
				<g>
					<path class="st21" d="M60.85,104.46c4.12,0,4.12-6.39,0-6.39S56.73,104.46,60.85,104.46L60.85,104.46z"/>
				</g>
			</g>
		</g>
		<g>
			<g>
				<g>
					<path class="st20" d="M312.88,89.39c3.29-3.91,4.9-9.82,2.23-13.7c-3.44-4.99-1.72-9.87,3.15-9.68
						c4.38,0.17,5.42,5.55,2.36,10.08c-2.7,4,0.64,11.08,3.61,13.3"/>
					<path class="st20" d="M324.23,141.68c-3.29,3.91-4.9,9.82-2.23,13.7c3.44,4.99,1.72,9.87-3.15,9.68
						c-4.38-0.17-5.42-5.55-2.36-10.08c2.7-4-0.64-11.08-3.61-13.3"/>
					<path class="st20" d="M292.42,121.21c-3.91-3.29-9.82-4.9-13.7-2.23c-4.99,3.44-9.87,1.72-9.68-3.15
						c0.17-4.38,5.55-5.42,10.09-2.36c4,2.7,11.08-0.64,13.29-3.61"/>
					<path class="st20" d="M344.7,109.86c3.91,3.29,9.82,4.9,13.7,2.23c4.99-3.44,9.87-1.72,9.68,3.15
						c-0.17,4.38-5.55,5.42-10.08,2.36c-4-2.7-11.08,0.64-13.3,3.6"/>
					<path class="st20" d="M295.81,101.46c-0.52-5.09-3.65-10.35-8.3-11.12c-5.97-0.99-8.29-5.62-4.78-9
						c3.16-3.03,7.76-0.05,8.89,5.31c1,4.72,8.42,7.23,12.07,6.64"/>
					<path class="st20" d="M341.31,129.62c0.53,5.09,3.66,10.35,8.31,11.12c5.97,0.99,8.29,5.62,4.78,9
						c-3.16,3.03-7.76,0.05-8.89-5.31c-1-4.72-8.42-7.23-12.07-6.64"/>
					<path class="st20" d="M304.48,138.29c-5.09,0.53-10.35,3.66-11.12,8.3c-0.99,5.97-5.62,8.29-9,4.78
						c-3.03-3.16-0.05-7.76,5.31-8.89c4.72-1,7.23-8.42,6.64-12.07"/>
					<path class="st20" d="M332.64,92.79c5.09-0.53,10.35-3.66,11.12-8.3c0.99-5.97,5.62-8.29,9-4.78c3.03,3.16,0.05,7.76-5.31,8.89
						c-4.72,1-7.23,8.42-6.64,12.07"/>
				</g>
				<g>
					<path class="st20" d="M305.9,97.29c1.28-4.05,0.64-9.09-2.64-11.21c-4.22-2.73-4.45-7.02-0.66-8.43
						c3.41-1.26,5.92,2.53,5.01,6.98c-0.8,3.93,4.01,8.29,6.99,9.05"/>
					<path class="st20" d="M331.21,133.78c-1.28,4.05-0.64,9.08,2.64,11.21c4.22,2.73,4.45,7.02,0.66,8.43
						c-3.41,1.26-5.92-2.53-5.01-6.98c0.8-3.93-4.01-8.29-6.99-9.05"/>
					<path class="st20" d="M300.31,128.19c-4.04-1.28-9.08-0.64-11.21,2.64c-2.73,4.22-7.02,4.46-8.43,0.66
						c-1.26-3.41,2.53-5.92,6.98-5.01c3.93,0.8,8.29-4.01,9.05-6.99"/>
					<path class="st20" d="M336.8,102.88c4.05,1.28,9.08,0.64,11.21-2.64c2.73-4.22,7.02-4.46,8.43-0.66
						c1.26,3.41-2.53,5.92-6.98,5.01c-3.93-0.8-8.29,4.01-9.05,6.99"/>
					<path class="st20" d="M296.64,111.97c-2.02-3.73-6.09-6.77-9.9-5.89c-4.9,1.14-8.14-1.67-6.52-5.38
						c1.46-3.33,5.93-2.5,8.5,1.25c2.27,3.3,8.76,2.87,11.37,1.26"/>
					<path class="st20" d="M340.47,119.1c2.02,3.73,6.09,6.77,9.9,5.89c4.9-1.14,8.15,1.67,6.52,5.38c-1.46,3.33-5.93,2.5-8.5-1.25
						c-2.27-3.3-8.75-2.87-11.36-1.26"/>
					<path class="st20" d="M314.99,137.45c-3.73,2.02-6.77,6.09-5.89,9.9c1.14,4.9-1.68,8.15-5.38,6.52
						c-3.33-1.46-2.5-5.93,1.25-8.51c3.3-2.27,2.87-8.75,1.26-11.37"/>
					<path class="st20" d="M322.13,93.62c3.73-2.02,6.77-6.09,5.89-9.9c-1.14-4.9,1.67-8.14,5.38-6.52c3.33,1.46,2.5,5.93-1.25,8.5
						c-3.3,2.27-2.87,8.76-1.26,11.37"/>
				</g>
			</g>
			<path class="st20" d="M319.54,86.66c-12.61-0.02-22.77,6.28-27.4,16.33c-4.62,10.36-2.65,23.4,4.97,32.67
				c9.81,11.94,34.99,11.77,44.23-1.11c6.93-9.74,8.39-24.47,2.12-35.15C339.17,91.56,328.45,86.35,319.54,86.66"/>
			<g>
				<path class="st21" d="M319.13,94.65c-3.66-4.41-17.72,1.66-12.03,7.68C310.8,106.26,325.15,101.33,319.13,94.65"/>
				<path class="st21" d="M332.81,130.24c-2.35-5.23-17.52-3.11-13.64,4.21C321.69,139.21,336.83,138.28,332.81,130.24"/>
				<path class="st21" d="M336.42,101.93c-2.15-2.87-10.39,1.07-7.06,5C331.54,109.47,339.95,106.27,336.42,101.93"/>
				<path class="st21" d="M305.25,120.75c0-3.58-8.96-5.37-8.64-0.24C296.81,123.86,305.46,126.34,305.25,120.75"/>
				<path class="st21" d="M326.34,112.63c-2.42-7.22-17.98-4.31-14,5.81C314.93,125.02,330.46,123.74,326.34,112.63"/>
				<g>
					<path class="st21" d="M337.45,123.49c4.95,0,4.95-7.67,0-7.67C332.51,115.83,332.51,123.49,337.45,123.49L337.45,123.49z"/>
				</g>
				<g>
					<path class="st21" d="M299.36,110.46c4.12,0,4.12-6.39,0-6.39C295.24,104.06,295.24,110.46,299.36,110.46L299.36,110.46z"/>
				</g>
				<g>
					<path class="st21" d="M309.58,135c3.3,0,3.3-5.12,0-5.12C306.29,129.88,306.29,135,309.58,135L309.58,135z"/>
				</g>
			</g>
		</g>
		<g>
			<g>
				<g>
					<path class="st20" d="M51.26,232.78c2.63-3.13,3.92-7.86,1.78-10.96c-2.75-3.99-1.37-7.9,2.52-7.75
						c3.5,0.14,4.34,4.44,1.89,8.07c-2.16,3.2,0.52,8.87,2.89,10.64"/>
					<path class="st20" d="M60.34,274.61c-2.63,3.13-3.92,7.86-1.78,10.96c2.75,3.99,1.38,7.89-2.52,7.75
						c-3.5-0.13-4.34-4.44-1.89-8.07c2.16-3.2-0.52-8.87-2.89-10.64"/>
					<path class="st20" d="M34.88,258.23c-3.13-2.63-7.85-3.92-10.95-1.78c-3.99,2.75-7.89,1.38-7.75-2.52
						c0.13-3.5,4.44-4.34,8.07-1.89c3.2,2.16,8.86-0.52,10.64-2.89"/>
					<path class="st20" d="M76.71,249.15c3.13,2.63,7.86,3.93,10.96,1.78c3.99-2.75,7.89-1.38,7.75,2.52
						c-0.14,3.5-4.44,4.34-8.07,1.89c-3.2-2.16-8.86,0.51-10.64,2.89"/>
					<path class="st20" d="M37.6,242.43c-0.42-4.07-2.92-8.28-6.64-8.89c-4.78-0.8-6.64-4.49-3.82-7.2
						c2.53-2.42,6.21-0.03,7.11,4.25c0.8,3.78,6.73,5.79,9.65,5.31"/>
					<path class="st20" d="M73.99,264.95c0.42,4.07,2.92,8.28,6.64,8.89c4.78,0.8,6.64,4.49,3.82,7.2
						c-2.53,2.42-6.21,0.03-7.11-4.25c-0.8-3.78-6.73-5.79-9.65-5.31"/>
					<path class="st20" d="M44.54,271.89c-4.07,0.42-8.28,2.92-8.89,6.64c-0.8,4.78-4.5,6.64-7.2,3.82
						c-2.42-2.53-0.04-6.21,4.25-7.11c3.78-0.8,5.79-6.73,5.31-9.66"/>
					<path class="st20" d="M67.06,235.49c4.07-0.42,8.28-2.92,8.89-6.64c0.8-4.78,4.49-6.63,7.2-3.82c2.42,2.53,0.03,6.21-4.25,7.11
						c-3.78,0.8-5.79,6.73-5.31,9.65"/>
				</g>
				<g>
					<path class="st20" d="M45.67,239.09c1.02-3.24,0.51-7.27-2.11-8.97c-3.37-2.19-3.56-5.62-0.53-6.74
						c2.73-1.01,4.74,2.03,4.01,5.59c-0.64,3.14,3.21,6.63,5.59,7.24"/>
					<path class="st20" d="M65.92,268.28c-1.03,3.24-0.52,7.27,2.11,8.97c3.37,2.19,3.56,5.62,0.52,6.74
						c-2.73,1.01-4.74-2.03-4.01-5.59c0.64-3.14-3.21-6.63-5.59-7.24"/>
					<path class="st20" d="M41.2,263.82c-3.24-1.03-7.27-0.51-8.97,2.11c-2.19,3.37-5.62,3.56-6.74,0.52
						c-1.01-2.73,2.03-4.74,5.59-4.01c3.14,0.64,6.64-3.21,7.24-5.59"/>
					<path class="st20" d="M70.39,243.57c3.24,1.02,7.27,0.51,8.97-2.11c2.19-3.37,5.62-3.56,6.74-0.53
						c1.01,2.73-2.02,4.74-5.59,4.01c-3.14-0.64-6.63,3.21-7.24,5.59"/>
					<path class="st20" d="M38.26,250.83c-1.61-2.98-4.87-5.42-7.92-4.71c-3.92,0.91-6.52-1.34-5.21-4.31c1.17-2.66,4.75-2,6.8,1
						c1.81,2.65,7,2.3,9.09,1.01"/>
					<path class="st20" d="M73.33,256.55c1.61,2.99,4.87,5.42,7.92,4.71c3.92-0.91,6.52,1.34,5.21,4.31c-1.17,2.66-4.75,2-6.8-1
						c-1.82-2.65-7-2.3-9.09-1.01"/>
					<path class="st20" d="M52.94,271.22c-2.99,1.61-5.42,4.87-4.71,7.92c0.91,3.92-1.34,6.51-4.31,5.22c-2.66-1.17-2-4.75,1-6.8
						c2.65-1.82,2.3-7,1.01-9.09"/>
					<path class="st20" d="M58.65,236.16c2.99-1.61,5.42-4.87,4.71-7.92c-0.91-3.92,1.34-6.52,4.31-5.21c2.66,1.17,2,4.75-1,6.8
						c-2.65,1.82-2.3,7.01-1.01,9.09"/>
				</g>
			</g>
			<path class="st20" d="M56.58,230.59c-10.09-0.01-18.22,5.03-21.92,13.07c-3.7,8.29-2.13,18.72,3.98,26.13
				c7.85,9.55,27.99,9.41,35.38-0.89c5.55-7.79,6.71-19.57,1.7-28.12C72.29,234.51,63.72,230.34,56.58,230.59"/>
			<g>
				<path class="st21" d="M56.26,236.98c-2.92-3.53-14.17,1.32-9.62,6.15C49.59,246.27,61.07,242.33,56.26,236.98"/>
				<path class="st21" d="M67.2,265.45c-1.88-4.18-14.02-2.49-10.91,3.37C58.3,272.63,70.41,271.89,67.2,265.45"/>
				<path class="st21" d="M70.08,242.81c-1.71-2.29-8.31,0.86-5.64,4C66.18,248.84,72.91,246.28,70.08,242.81"/>
				<path class="st21" d="M45.15,257.86c0-2.86-7.16-4.3-6.91-0.19C38.4,260.35,45.32,262.33,45.15,257.86"/>
				<path class="st21" d="M62.02,251.37c-1.93-5.77-14.38-3.44-11.2,4.65C52.89,261.28,65.32,260.25,62.02,251.37"/>
				<g>
					<path class="st21" d="M70.91,260.06c3.96,0,3.96-6.14,0-6.14C66.95,253.92,66.95,260.06,70.91,260.06L70.91,260.06z"/>
				</g>
				<g>
					<path class="st21" d="M40.44,249.63c3.3,0,3.3-5.11,0-5.11C37.14,244.52,37.14,249.63,40.44,249.63L40.44,249.63z"/>
				</g>
				<g>
					<path class="st21" d="M48.62,269.26c2.64,0,2.64-4.09,0-4.09S45.98,269.26,48.62,269.26L48.62,269.26z"/>
				</g>
			</g>
		</g>
		<g>
			<g>
				<g>
					<path class="st20" d="M159.15,18.31c2.11-2.5,3.14-6.28,1.43-8.77c-2.2-3.19-1.1-6.32,2.02-6.19c2.8,0.11,3.47,3.55,1.51,6.45
						c-1.73,2.56,0.42,7.09,2.31,8.51"/>
					<path class="st20" d="M166.41,51.78c-2.11,2.5-3.14,6.28-1.43,8.77c2.2,3.19,1.1,6.32-2.02,6.2c-2.8-0.11-3.47-3.55-1.51-6.45
						c1.73-2.56-0.41-7.09-2.31-8.51"/>
					<path class="st20" d="M146.05,38.68c-2.5-2.11-6.28-3.14-8.77-1.43c-3.19,2.2-6.32,1.1-6.2-2.02c0.1-2.8,3.55-3.47,6.45-1.51
						c2.56,1.73,7.09-0.41,8.51-2.31"/>
					<path class="st20" d="M179.51,31.41c2.5,2.11,6.28,3.14,8.77,1.43c3.19-2.2,6.32-1.1,6.2,2.02c-0.11,2.8-3.55,3.47-6.45,1.51
						c-2.56-1.73-7.09,0.41-8.51,2.31"/>
					<path class="st20" d="M148.22,26.04c-0.34-3.25-2.34-6.62-5.31-7.12c-3.82-0.64-5.31-3.6-3.06-5.76
						c2.02-1.94,4.97-0.03,5.69,3.4c0.64,3.02,5.39,4.63,7.72,4.25"/>
					<path class="st20" d="M177.34,44.06c0.34,3.25,2.34,6.62,5.31,7.11c3.82,0.64,5.31,3.6,3.06,5.76
						c-2.02,1.94-4.97,0.03-5.69-3.4c-0.64-3.02-5.39-4.63-7.72-4.25"/>
					<path class="st20" d="M153.77,49.61c-3.25,0.34-6.62,2.34-7.12,5.31c-0.64,3.82-3.6,5.31-5.76,3.06
						c-1.94-2.02-0.03-4.97,3.4-5.69c3.02-0.64,4.63-5.39,4.25-7.72"/>
					<path class="st20" d="M171.79,20.49c3.25-0.34,6.62-2.34,7.11-5.31c0.64-3.82,3.6-5.31,5.76-3.06c1.94,2.02,0.03,4.97-3.4,5.69
						c-3.02,0.64-4.63,5.39-4.25,7.72"/>
				</g>
				<g>
					<path class="st20" d="M154.68,23.37c0.82-2.59,0.41-5.81-1.69-7.18c-2.7-1.75-2.85-4.49-0.42-5.39
						c2.18-0.81,3.79,1.62,3.21,4.47c-0.51,2.51,2.57,5.31,4.47,5.79"/>
					<path class="st20" d="M170.88,46.72c-0.82,2.59-0.41,5.81,1.69,7.18c2.7,1.75,2.85,4.49,0.42,5.39
						c-2.18,0.81-3.79-1.62-3.21-4.47c0.51-2.51-2.57-5.31-4.47-5.79"/>
					<path class="st20" d="M151.11,43.15c-2.59-0.82-5.81-0.41-7.17,1.69c-1.75,2.7-4.5,2.85-5.39,0.42
						c-0.81-2.18,1.62-3.79,4.47-3.21c2.51,0.51,5.31-2.57,5.79-4.47"/>
					<path class="st20" d="M174.46,26.95c2.59,0.82,5.81,0.41,7.18-1.69c1.75-2.7,4.49-2.85,5.39-0.42
						c0.81,2.18-1.62,3.79-4.47,3.21c-2.51-0.51-5.31,2.57-5.79,4.47"/>
					<path class="st20" d="M148.76,32.76c-1.29-2.39-3.9-4.33-6.33-3.77c-3.13,0.73-5.21-1.07-4.17-3.44c0.93-2.13,3.8-1.6,5.44,0.8
						c1.45,2.11,5.6,1.84,7.27,0.81"/>
					<path class="st20" d="M176.81,37.33c1.29,2.39,3.9,4.33,6.33,3.77c3.13-0.73,5.21,1.07,4.17,3.44c-0.93,2.13-3.8,1.6-5.44-0.8
						c-1.45-2.11-5.6-1.84-7.27-0.81"/>
					<path class="st20" d="M160.5,49.07c-2.39,1.29-4.34,3.9-3.77,6.33c0.73,3.13-1.07,5.21-3.44,4.17c-2.13-0.93-1.6-3.8,0.8-5.44
						c2.11-1.45,1.84-5.6,0.81-7.27"/>
					<path class="st20" d="M165.07,21.02c2.39-1.29,4.34-3.9,3.77-6.33c-0.73-3.13,1.07-5.21,3.44-4.17c2.13,0.93,1.6,3.8-0.8,5.44
						c-2.12,1.45-1.84,5.6-0.81,7.27"/>
				</g>
			</g>
			<path class="st20" d="M163.41,16.57c-8.07-0.01-14.58,4.02-17.53,10.45c-2.96,6.63-1.7,14.97,3.18,20.91
				c6.28,7.64,22.39,7.53,28.31-0.71c4.44-6.23,5.37-15.66,1.35-22.49C175.97,19.7,169.11,16.37,163.41,16.57"/>
			<g>
				<path class="st21" d="M163.15,21.68c-2.34-2.82-11.34,1.06-7.7,4.92C157.81,29.11,167,25.96,163.15,21.68"/>
				<path class="st21" d="M171.9,44.46c-1.51-3.34-11.21-1.99-8.73,2.69C164.78,50.2,174.48,49.6,171.9,44.46"/>
				<path class="st21" d="M174.21,26.34c-1.37-1.83-6.65,0.69-4.52,3.2C171.09,31.17,176.47,29.12,174.21,26.34"/>
				<path class="st21" d="M154.26,38.38c0-2.29-5.73-3.44-5.53-0.15C148.86,40.37,154.4,41.96,154.26,38.38"/>
				<path class="st21" d="M167.76,33.19c-1.55-4.62-11.51-2.75-8.96,3.72C160.46,41.12,170.4,40.3,167.76,33.19"/>
				<g>
					<path class="st21" d="M174.87,40.14c3.17,0,3.17-4.91,0-4.91C171.71,35.23,171.71,40.14,174.87,40.14L174.87,40.14z"/>
				</g>
				<g>
					<path class="st21" d="M150.49,31.8c2.64,0,2.64-4.09,0-4.09C147.86,27.71,147.86,31.8,150.49,31.8L150.49,31.8z"/>
				</g>
				<g>
					<path class="st21" d="M157.04,47.5c2.11,0,2.11-3.27,0-3.27C154.93,44.23,154.93,47.5,157.04,47.5L157.04,47.5z"/>
				</g>
			</g>
		</g>
		<g>
			<g>
				<g>
					<path class="st20" d="M352.49,266.52c2.11-2.5,3.14-6.28,1.43-8.77c-2.2-3.19-1.1-6.32,2.02-6.19c2.8,0.1,3.47,3.55,1.51,6.45
						c-1.73,2.56,0.42,7.09,2.31,8.51"/>
					<path class="st20" d="M359.76,299.99c-2.11,2.5-3.14,6.28-1.43,8.77c2.2,3.19,1.1,6.32-2.02,6.19c-2.8-0.1-3.47-3.55-1.51-6.45
						c1.73-2.56-0.41-7.09-2.31-8.51"/>
					<path class="st20" d="M339.39,286.88c-2.5-2.11-6.28-3.14-8.77-1.43c-3.19,2.2-6.32,1.1-6.2-2.02c0.1-2.8,3.55-3.47,6.45-1.51
						c2.56,1.73,7.09-0.41,8.51-2.31"/>
					<path class="st20" d="M372.85,279.62c2.5,2.11,6.28,3.14,8.77,1.43c3.19-2.2,6.32-1.1,6.2,2.02c-0.11,2.8-3.55,3.47-6.45,1.51
						c-2.56-1.73-7.09,0.41-8.51,2.31"/>
					<path class="st20" d="M341.56,274.24c-0.34-3.25-2.34-6.62-5.31-7.11c-3.82-0.64-5.31-3.6-3.06-5.76
						c2.02-1.94,4.97-0.03,5.69,3.39c0.64,3.02,5.39,4.63,7.72,4.25"/>
					<path class="st20" d="M370.68,292.26c0.34,3.26,2.34,6.63,5.31,7.12c3.82,0.64,5.31,3.6,3.06,5.76
						c-2.02,1.94-4.97,0.03-5.69-3.39c-0.64-3.02-5.39-4.63-7.72-4.25"/>
					<path class="st20" d="M347.11,297.81c-3.25,0.33-6.62,2.34-7.12,5.31c-0.64,3.82-3.6,5.31-5.76,3.06
						c-1.94-2.02-0.03-4.97,3.4-5.69c3.02-0.64,4.63-5.39,4.25-7.72"/>
					<path class="st20" d="M365.13,268.7c3.25-0.34,6.62-2.34,7.11-5.31c0.64-3.82,3.6-5.31,5.76-3.06c1.94,2.02,0.03,4.97-3.4,5.69
						c-3.02,0.64-4.63,5.39-4.25,7.72"/>
				</g>
				<g>
					<path class="st20" d="M348.02,271.58c0.82-2.59,0.41-5.81-1.69-7.18c-2.7-1.75-2.85-4.49-0.42-5.39
						c2.18-0.81,3.79,1.62,3.21,4.47c-0.51,2.51,2.57,5.31,4.47,5.79"/>
					<path class="st20" d="M364.22,294.93c-0.82,2.59-0.41,5.81,1.69,7.18c2.7,1.75,2.85,4.49,0.42,5.39
						c-2.18,0.81-3.79-1.62-3.21-4.47c0.51-2.51-2.57-5.31-4.47-5.79"/>
					<path class="st20" d="M344.45,291.35c-2.59-0.82-5.81-0.41-7.17,1.69c-1.75,2.7-4.5,2.85-5.39,0.42
						c-0.81-2.18,1.62-3.79,4.47-3.21c2.51,0.51,5.31-2.57,5.79-4.47"/>
					<path class="st20" d="M367.8,275.15c2.59,0.82,5.81,0.41,7.18-1.69c1.75-2.7,4.49-2.85,5.39-0.42
						c0.81,2.18-1.62,3.79-4.47,3.21c-2.51-0.51-5.31,2.57-5.79,4.47"/>
					<path class="st20" d="M342.1,280.97c-1.29-2.39-3.9-4.34-6.33-3.77c-3.13,0.73-5.21-1.07-4.17-3.44c0.93-2.13,3.8-1.6,5.44,0.8
						c1.45,2.11,5.6,1.84,7.27,0.81"/>
					<path class="st20" d="M370.15,285.54c1.29,2.39,3.89,4.34,6.33,3.77c3.13-0.73,5.21,1.07,4.17,3.44
						c-0.93,2.13-3.8,1.6-5.44-0.8c-1.45-2.11-5.6-1.84-7.27-0.81"/>
					<path class="st20" d="M353.84,297.28c-2.39,1.29-4.34,3.9-3.77,6.34c0.73,3.13-1.07,5.21-3.44,4.17
						c-2.13-0.93-1.6-3.8,0.8-5.45c2.11-1.45,1.84-5.6,0.81-7.27"/>
					<path class="st20" d="M358.41,269.23c2.39-1.29,4.34-3.9,3.77-6.34c-0.73-3.13,1.07-5.21,3.44-4.17c2.13,0.93,1.6,3.8-0.8,5.44
						c-2.12,1.45-1.84,5.6-0.81,7.27"/>
				</g>
			</g>
			<path class="st20" d="M356.75,264.77c-8.07-0.01-14.58,4.02-17.53,10.45c-2.96,6.63-1.7,14.97,3.18,20.91
				c6.28,7.64,22.39,7.54,28.31-0.71c4.44-6.23,5.37-15.66,1.35-22.49C369.31,267.91,362.45,264.57,356.75,264.77"/>
			<g>
				<path class="st21" d="M356.49,269.89c-2.34-2.82-11.34,1.06-7.7,4.92C351.16,277.31,360.34,274.16,356.49,269.89"/>
				<path class="st21" d="M365.24,292.66c-1.51-3.34-11.21-1.99-8.73,2.7C358.13,298.41,367.82,297.81,365.24,292.66"/>
				<path class="st21" d="M367.55,274.55c-1.37-1.83-6.65,0.69-4.52,3.2C364.43,279.37,369.81,277.33,367.55,274.55"/>
				<path class="st21" d="M347.6,286.59c0-2.29-5.73-3.44-5.53-0.15C342.2,288.58,347.74,290.17,347.6,286.59"/>
				<path class="st21" d="M361.1,281.4c-1.55-4.62-11.51-2.75-8.96,3.72C353.8,289.32,363.74,288.5,361.1,281.4"/>
				<g>
					<path class="st21" d="M368.21,288.35c3.17,0,3.17-4.91,0-4.91C365.05,283.44,365.05,288.35,368.21,288.35L368.21,288.35z"/>
				</g>
				<g>
					<path class="st21" d="M343.83,280c2.64,0,2.64-4.09,0-4.09C341.2,275.91,341.2,280,343.83,280L343.83,280z"/>
				</g>
				<g>
					<path class="st21" d="M350.38,295.71c2.11,0,2.11-3.27,0-3.27C348.27,292.44,348.27,295.71,350.38,295.71L350.38,295.71z"/>
				</g>
			</g>
		</g>
		<g class="st22">
			<g class="st23">
				<g>
					<path class="st24" d="M-71.18,137.84c4.12-4.89,6.13-12.27,2.79-17.12c-4.29-6.23-2.15-12.34,3.94-12.1
						c5.47,0.21,6.78,6.94,2.95,12.6c-3.38,5,0.81,13.85,4.51,16.62"/>
					<path class="st24" d="M-56.99,203.2c-4.12,4.89-6.13,12.27-2.79,17.12c4.29,6.23,2.15,12.34-3.94,12.1
						c-5.47-0.21-6.78-6.94-2.95-12.6c3.38-5-0.81-13.85-4.51-16.62"/>
					<path class="st24" d="M-96.77,177.61c-4.89-4.12-12.27-6.13-17.12-2.79c-6.24,4.29-12.34,2.15-12.1-3.94
						c0.21-5.47,6.94-6.78,12.6-2.95c5,3.38,13.85-0.8,16.62-4.51"/>
					<path class="st24" d="M-31.41,163.43c4.89,4.12,12.27,6.13,17.12,2.79c6.23-4.29,12.34-2.15,12.1,3.94
						c-0.21,5.47-6.94,6.78-12.6,2.95c-5-3.38-13.85,0.81-16.62,4.51"/>
					<path class="st24" d="M-92.53,152.92c-0.66-6.36-4.57-12.93-10.38-13.9c-7.47-1.24-10.37-7.02-5.97-11.24
						c3.95-3.79,9.7-0.06,11.12,6.63c1.25,5.9,10.52,9.04,15.09,8.3"/>
					<path class="st24" d="M-35.65,188.12c0.66,6.36,4.57,12.93,10.38,13.9c7.47,1.24,10.37,7.02,5.97,11.24
						c-3.95,3.79-9.7,0.05-11.12-6.63c-1.25-5.9-10.52-9.04-15.09-8.3"/>
					<path class="st24" d="M-81.69,198.95c-6.35,0.66-12.93,4.57-13.9,10.38c-1.24,7.47-7.02,10.37-11.24,5.97
						c-3.79-3.95-0.05-9.7,6.63-11.11c5.9-1.25,9.04-10.52,8.3-15.09"/>
					<path class="st24" d="M-46.49,142.08c6.36-0.66,12.93-4.57,13.9-10.38c1.24-7.47,7.02-10.37,11.24-5.97
						c3.79,3.95,0.05,9.7-6.63,11.12c-5.9,1.25-9.04,10.52-8.3,15.09"/>
				</g>
				<g>
					<path class="st24" d="M-79.91,147.72c1.6-5.05,0.8-11.36-3.3-14.01c-5.28-3.42-5.57-8.77-0.82-10.53
						c4.26-1.58,7.4,3.17,6.26,8.73c-1,4.91,5.02,10.36,8.74,11.31"/>
					<path class="st24" d="M-48.27,193.33c-1.61,5.05-0.8,11.36,3.3,14.01c5.27,3.42,5.57,8.77,0.82,10.54
						c-4.26,1.57-7.4-3.17-6.26-8.73c1-4.91-5.02-10.36-8.74-11.31"/>
					<path class="st24" d="M-86.89,186.34c-5.05-1.61-11.35-0.8-14.02,3.3c-3.42,5.27-8.77,5.57-10.53,0.82
						c-1.58-4.26,3.17-7.4,8.73-6.26c4.91,1,10.37-5.02,11.31-8.74"/>
					<path class="st24" d="M-41.28,154.7c5.05,1.61,11.36,0.8,14.02-3.3c3.42-5.27,8.77-5.57,10.53-0.82
						c1.58,4.26-3.17,7.4-8.73,6.26c-4.91-1-10.36,5.02-11.31,8.74"/>
					<path class="st24" d="M-91.49,166.06c-2.52-4.67-7.61-8.47-12.37-7.36c-6.12,1.42-10.18-2.09-8.15-6.73
						c1.83-4.16,7.42-3.13,10.63,1.56c2.84,4.13,10.94,3.59,14.21,1.57"/>
					<path class="st24" d="M-36.69,174.98c2.52,4.67,7.61,8.46,12.37,7.36c6.12-1.42,10.18,2.09,8.15,6.73
						c-1.82,4.16-7.42,3.12-10.63-1.56c-2.84-4.13-10.94-3.59-14.21-1.57"/>
					<path class="st24" d="M-68.55,197.91c-4.67,2.52-8.47,7.61-7.36,12.37c1.42,6.12-2.09,10.18-6.73,8.15
						c-4.16-1.82-3.12-7.42,1.56-10.63c4.13-2.84,3.59-10.94,1.57-14.21"/>
					<path class="st24" d="M-59.63,143.13c4.67-2.53,8.47-7.61,7.36-12.37c-1.42-6.12,2.09-10.18,6.73-8.15
						c4.16,1.82,3.13,7.42-1.56,10.63c-4.13,2.84-3.59,10.94-1.57,14.21"/>
				</g>
			</g>
			<path class="st25" d="M-62.86,134.43c-15.76-0.02-28.47,7.86-34.25,20.42c-5.78,12.96-3.32,29.24,6.21,40.84
				c12.27,14.92,43.74,14.71,55.29-1.39c8.66-12.17,10.49-30.58,2.65-43.93C-38.32,140.55-51.72,134.03-62.86,134.43"/>
			<g class="st23">
				<path class="st26" d="M-63.37,144.41c-4.57-5.51-22.15,2.07-15.04,9.61C-73.79,158.92-55.85,152.77-63.37,144.41"/>
				<path class="st26" d="M-46.28,188.9c-2.94-6.53-21.9-3.9-17.05,5.26C-60.17,200.11-41.25,198.95-46.28,188.9"/>
				<path class="st26" d="M-41.76,153.51c-2.68-3.58-12.99,1.35-8.82,6.25C-47.87,162.94-37.35,158.94-41.76,153.51"/>
				<path class="st26" d="M-80.73,177.03c0-4.48-11.2-6.71-10.8-0.29C-91.27,180.92-80.46,184.03-80.73,177.03"/>
				<path class="st26" d="M-54.36,166.89c-3.02-9.02-22.48-5.38-17.5,7.27C-68.63,182.38-49.21,180.77-54.36,166.89"/>
				<g>
					<path class="st26" d="M-40.47,180.47c6.18,0,6.18-9.59,0-9.59S-46.66,180.47-40.47,180.47L-40.47,180.47z"/>
				</g>
				<g>
					<path class="st26" d="M-88.09,164.17c5.15,0,5.15-7.99,0-7.99C-93.24,156.18-93.24,164.17-88.09,164.17L-88.09,164.17z"/>
				</g>
				<g>
					<path class="st26" d="M-75.31,194.85c4.12,0,4.12-6.39,0-6.39C-79.43,188.46-79.43,194.85-75.31,194.85L-75.31,194.85z"/>
				</g>
			</g>
		</g>
	</g>
	<g>
		<path class="st27" d="M276.8,315.28c0,8.18-6.63,14.81-14.81,14.81H135.99c-8.18,0-14.81-6.63-14.81-14.81l0,0
			c0-8.18,6.63-14.81,14.81-14.81h125.99C270.16,300.47,276.8,307.1,276.8,315.28L276.8,315.28z"/>
		<rect x="149.11" y="306.6" class="st3" width="120.25" height="24.78"/>
		<text transform="matrix(1 0 0 1 156.1299 321.1699)" class="st4 st5 st28">síntomas</text>
	</g>
</g>
</svg>
