<?xml version="1.0" encoding="utf-8"?>
<!-- Generator: Adobe Illustrator 23.0.1, SVG Export Plug-In . SVG Version: 6.00 Build 0)  -->
<svg version="1.1" id="Layer_1" xmlns="http://www.w3.org/2000/svg" xmlns:xlink="http://www.w3.org/1999/xlink" x="0px" y="0px"
	 viewBox="0 0 400 200" style="enable-background:new 0 0 400 200;" xml:space="preserve">
<style type="text/css">
	.st0{fill:#CAE8B2;}
	.st1{fill:none;stroke:#070707;stroke-miterlimit:10;}
	.st2{fill:#1F89A9;}
	.st3{font-family:'Arial-BoldMT';}
	.st4{font-size:65.1764px;}
</style>
<g>
	<g id="Layer_5">
		<rect class="st0" width="399" height="200"/>
	</g>
	<g id="Layer_3">
		<path class="st1" d="M139.15,61.96"/>
	</g>
	<g id="Layer_4">
		<path class="st1" d="M207.65,144.82"/>
		<path class="st2" d="M303.15,102.02c-0.28-0.07-0.54-0.21-0.77-0.44"/>
		<text transform="matrix(0.9996 0 0 1 116.5237 180.5483)" class="st2 st3 st4">Inicio</text>
	</g>
</g>
<g>
	<path class="st2" d="M225.72,93.34h-16.3V85h35.15c4.8,0,8.7-3.9,8.7-8.7V30.63c0-4.8-3.89-8.69-8.7-8.69h-91.31
		c-4.8,0-8.7,3.89-8.7,8.69V76.3c0,4.8,3.89,8.7,8.7,8.7h34.78v8.34h-15.58c-4.8,0-8.69,3.89-8.69,8.7v1.13c0,4.8,3.89,8.7,8.69,8.7
		h53.26c4.8,0,8.7-3.89,8.7-8.7v-1.13C234.42,97.23,230.53,93.34,225.72,93.34z M158.16,79.15c-3.91,0-7.08-3.17-7.08-7.09V34.87
		c0-3.92,3.17-7.09,7.08-7.09h81.51c3.91,0,7.08,3.17,7.08,7.09v37.19c0,3.92-3.17,7.09-7.08,7.09H158.16z M225.9,101.19h-14.73
		c-0.9,0-1.63-0.73-1.63-1.63c0-0.9,0.73-1.63,1.63-1.63h14.73c0.9,0,1.63,0.73,1.63,1.63C227.53,100.45,226.8,101.19,225.9,101.19z
		"/>
</g>
</svg>
