<?xml version="1.0" encoding="utf-8"?>
<!-- Generator: Adobe Illustrator 23.0.1, SVG Export Plug-In . SVG Version: 6.00 Build 0)  -->
<svg version="1.1" id="Layer_1" xmlns="http://www.w3.org/2000/svg" xmlns:xlink="http://www.w3.org/1999/xlink" x="0px" y="0px"
	 viewBox="0 0 400 200" style="enable-background:new 0 0 400 200;" xml:space="preserve">
<style type="text/css">
	.st0{fill:#1F89A9;}
	.st1{fill:#B8D8E1;}
	.st2{fill:#CAE8B2;}
	.st3{fill:#CAE8B2;stroke:#070707;stroke-miterlimit:10;}
	.st4{fill:#B8D8E1;stroke:#070707;stroke-miterlimit:10;}
	.st5{font-family:'Arial-BoldMT';}
	.st6{font-size:21px;}
</style>
<g id="Layer_5">
	<rect x="-7.34" y="-4.27" class="st0" width="413.36" height="207.2"/>
</g>
<g>
	<path class="st1" d="M96.5,74.5c4.53,5.52,9.41,4.07,15,1c6.68-3.67,5.16-7.53,5-8c-2-6-16-19-37-18
		c-3.57,0.3-13.01,1.66-22.56,9.93C46.85,68.17,45.19,79.08,44.5,82.5c0,0-4,23,13,36c3.54,2.7,10,8,21,9c18.4,1.67,33-10,36-15
		c0.45-0.76,3-7,0-9s-6-4-11-4c-3.16,0-7,4-7,4c-12,12-33,5-33-15c0-6.99,3-16,12-19S88.61,68.36,96.5,74.5z"/>
</g>
<g id="Layer_3">
	<path class="st2" d="M163.5,125.5c7,5,12.47-4.13,13-5c4.46-7.28,59.73-89.6,60-90c0.2-0.3,1-1.45,1-3c0-2-1.46-5-5-5
		c-11,0-20-2-25,5c0,0-3.99,5.99-4,6c-0.6,0.89-35.01,52-36,52c-1.18,0-21.91-31.99-22-32c-3-5-19.01-3.22-21-3c-9,1-7,8-7,8
		C118.1,63.44,159.5,122.5,163.5,125.5z"/>
	<path class="st3" d="M155.5,67.5"/>
</g>
<g id="Layer_4">
	<path class="st4" d="M210.5,137.5"/>
	<path class="st2" d="M219.5,123.5l43-63c5-8,0.5-9.5-10-10c-8.05-0.38-12-1-16,3c0,0-5.99,7.99-6,8c-0.51,0.75-16.17,24-17,24
		c-1-1.67-2-3.33-3-5c-5.33,7.67-11.67,15.33-17,23C199.5,113.5,209.5,135.5,219.5,123.5z"/>
	<path class="st1" d="M314.34,90.98c-0.3-0.08-0.59-0.23-0.84-0.48"/>
	<path class="st1" d="M313.5,90.5c-18-18-34-40-39-40c-3.16,0-4,3-4,5c0,7,0,54.96,0,67c0,4,7,4,7,4c0.17-0.01,0,0,6,0c4,0,7-2,7-4
		c0-8.86,0-20,0-26c0-2,0.5-3,1-3c4,4,17.54,18.58,21,22c1,1,3,2,6-1s13.56-13.6,15-15c4-4,5.5-5.5,5.5-4.5c0,0.49-0.51,22.36,0,27
		c0.07,0.66,0.01,2.01,1,3c1,1,3,2,5,2c1,0,4,0,6,0c1.76,0,4,0,6-1c0.89-0.45,2-1.56,2-3c0-8,0-57,0-66c0-8-4.5-8.5-13,2
		c-4.45,5.5-10.99,12.99-29.5,31.5C315.5,91.5,314.5,91.5,313.5,90.5"/>
	<text transform="matrix(1 0 0 1 34.4331 167.0312)" class="st1 st5 st6">Compounder Wholesalers Mexico</text>
</g>
</svg>
