<?xml version="1.0" encoding="utf-8"?>
<!-- Generator: Adobe Illustrator 23.0.1, SVG Export Plug-In . SVG Version: 6.00 Build 0)  -->
<svg version="1.1" id="Layer_1" xmlns="http://www.w3.org/2000/svg" xmlns:xlink="http://www.w3.org/1999/xlink" x="0px" y="0px"
	 viewBox="0 0 960 560" style="enable-background:new 0 0 960 560;" xml:space="preserve">
<style type="text/css">
	.st0{fill:#4A525B;}
	.st1{fill:#B8D8E1;stroke:#FFFFFF;stroke-miterlimit:10;}
	.st2{fill:#B8D8E1;}
	.st3{fill:#737F82;}
	.st4{clip-path:url(#SVGID_2_);}
	.st5{fill:#1F89A9;}
	.st6{fill:#166375;}
	.st7{fill:none;stroke:#FFFFFF;stroke-miterlimit:10;}
	.st8{fill:none;stroke:#737F82;stroke-width:2;stroke-miterlimit:10;}
	.st9{fill:none;stroke:#4C5051;stroke-width:2;stroke-miterlimit:10;}
	.st10{fill:#1A083C;}
	.st11{fill:#E8B94F;}
	.st12{fill:#616166;}
	.st13{fill:#C4943D;}
	.st14{fill:#4D4C51;}
	.st15{fill:#2F2E33;}
	.st16{fill:#EA634E;}
	.st17{clip-path:url(#SVGID_4_);}
	.st18{fill:#CAE8B2;}
	.st19{fill:#AFD136;}
	.st20{fill:#83CDEC;}
	.st21{fill:#B2CFD6;}
	.st22{fill:none;stroke:#FFFFFF;stroke-width:6;stroke-linecap:round;stroke-miterlimit:10;}
	.st23{fill:none;stroke:#B7BBBC;stroke-width:2.6679;stroke-linecap:round;stroke-miterlimit:10;}
	.st24{fill:none;stroke:#B7BBBC;stroke-width:5.3359;stroke-linecap:round;stroke-miterlimit:10;}
	.st25{fill:#CCCCCC;}
	.st26{fill:#EFEDD5;stroke:#1A083C;stroke-miterlimit:10;}
	.st27{fill:none;stroke:#1A083C;stroke-width:1.186;stroke-linecap:round;stroke-miterlimit:10;}
	.st28{fill:#E9F0F2;stroke:#1A083C;stroke-miterlimit:10;}
	.st29{fill:none;stroke:#1A083C;stroke-width:1.6912;stroke-linecap:round;stroke-miterlimit:10;}
	.st30{fill:none;stroke:#FFFFFF;stroke-width:3;stroke-linecap:round;stroke-miterlimit:10;}
	.st31{fill:none;stroke:#FFFFFF;stroke-width:0.7273;stroke-miterlimit:10;}
	.st32{fill:none;stroke:#B7BBBC;stroke-miterlimit:10;}
	.st33{fill:none;stroke:#FFFFFF;stroke-width:0.2575;stroke-miterlimit:10;}
	.st34{fill:none;stroke:#FFFFFF;stroke-width:0.1228;stroke-miterlimit:10;}
	.st35{clip-path:url(#SVGID_6_);}
	.st36{fill:#FAFAFA;}
	.st37{fill:none;stroke:#1A083C;stroke-linecap:round;stroke-miterlimit:10;}
	.st38{fill:#83CDEC;stroke:#FFFFFF;stroke-miterlimit:10;}
	.st39{clip-path:url(#SVGID_8_);fill:#1F89A9;}
	.st40{clip-path:url(#SVGID_10_);}
	.st41{fill:none;stroke:#FFFFFF;stroke-linecap:round;stroke-miterlimit:10;}
	.st42{fill:#B8D8E1;stroke:#FFFFFF;stroke-linecap:round;stroke-miterlimit:10;}
	.st43{fill:none;stroke:#FFFFFF;stroke-width:1.5;stroke-linecap:round;stroke-miterlimit:10;}
	.st44{fill:#CAE8B2;stroke:#FFFFFF;stroke-miterlimit:10;}
	.st45{clip-path:url(#SVGID_12_);}
	.st46{fill:none;stroke:#FFFFFF;stroke-width:1.1984;stroke-miterlimit:10;}
	.st47{fill:#83CDEC;stroke:#FFFFFF;stroke-linecap:round;stroke-miterlimit:10;}
	.st48{fill:#B8D8E1;stroke:#B8D8E1;stroke-miterlimit:10;}
	.st49{clip-path:url(#SVGID_14_);fill:#1F89A9;}
	.st50{fill:none;stroke:#FFFFFF;stroke-width:2;stroke-linecap:round;stroke-miterlimit:10;}
	.st51{clip-path:url(#SVGID_16_);fill:#CAE8B2;}
	.st52{fill:none;stroke:#FFFFFF;stroke-width:5;stroke-linecap:round;stroke-miterlimit:10;}
	.st53{clip-path:url(#SVGID_18_);fill:#CAE8B2;}
	.st54{fill:none;stroke:#FFFFFF;stroke-linecap:round;stroke-linejoin:round;stroke-miterlimit:10;}
	.st55{clip-path:url(#SVGID_20_);}
	.st56{fill:none;stroke:#B7BBBC;stroke-width:4.3871;stroke-linecap:round;stroke-miterlimit:10;}
	.st57{fill:none;stroke:#B7BBBC;stroke-width:2.1935;stroke-linecap:round;stroke-miterlimit:10;}
	.st58{clip-path:url(#SVGID_22_);fill:#CAE8B2;}
	.st59{fill:none;stroke:#FFFFFF;stroke-width:1.0039;stroke-miterlimit:10;}
	.st60{fill:none;stroke:#FFFFFF;stroke-width:4;stroke-linecap:round;stroke-miterlimit:10;}
	.st61{clip-path:url(#SVGID_24_);}
	.st62{fill:#B7BBBC;}
	.st63{fill:none;stroke:#FFFFFF;stroke-width:8;stroke-linecap:round;stroke-miterlimit:10;}
</style>
<g>
	<g>
		<path class="st0" d="M83.5,535.43c-3.02,0-1.37,7.14,3.85,15.38c5.22,8.24,27.73,7.14,27.73,7.14h723.91c0,0,22.52,1.1,27.73-7.14
			c5.22-8.24,6.86-15.38,3.85-15.38H83.5z"/>
		<g>
			<g>
				<path class="st1" d="M744.55,411c0,0,0,109.99,0,114.94c0,4.96,3.61,9.01,8.56,9.01h87.16c4.96,0,8.56-4.06,8.56-9.01
					c0-4.96,0-114.94,0-114.94H744.55z"/>
				<path class="st2" d="M829.64,410.6c0,0,0,110.39,0,115.35c0,4.96-3.61,9.01-8.56,9.01h19.18c4.96,0,8.56-4.06,8.56-9.01
					s0-114.94,0-114.94L829.64,410.6z"/>
				<path class="st3" d="M829.45,380.82v112.71c0,8.48-6.79,8.48-6.79,8.48h-1.7c0,0-6.79,0-6.79-8.48V380.82H829.45z"/>
				<path class="st3" d="M780.3,380.82v112.71c0,8.48-6.79,8.48-6.79,8.48h-1.7c0,0-6.79,0-6.79-8.48V380.82H780.3z"/>
				<g>
					<g>
						<g>
							<defs>
								<path id="SVGID_1_" d="M848.82,411c0,0,0,109.99,0,114.94c0,4.96-3.61,9.01-8.56,9.01H753.1c-4.96,0-8.56-4.06-8.56-9.01
									c0-4.96,0-114.94,0-114.94H848.82z"/>
							</defs>
							<clipPath id="SVGID_2_">
								<use xlink:href="#SVGID_1_"  style="overflow:visible;"/>
							</clipPath>
							<g class="st4">
								<path class="st5" d="M854.28,456.24h-43.76c0.2-0.61,0.28-1.29,0.17-2c-0.34-2.2-3.22-4.23-5.81-2.77
									c-1.17,0.66-2.48,2.44-1.87,4.76c0,0,0,0,0,0.01h-2.52c-1.3-2.8-5.09-4.9-8.56-2.94c-0.95,0.54-1.96,1.57-2.56,2.94H737.4
									l-8.78,31.58l2.2,34.63c0,0,0.68,16.39,1.35,18.41c0.68,2.03,128.2,7.6,129.21,6.59
									C862.39,546.44,854.28,456.24,854.28,456.24z M795.95,463.37c-0.5,0.11-0.98,0.16-1.45,0.16c-1.49,0-3.43-0.56-4.14-3.21
									c-0.78-2.92,0.91-5.09,2.24-5.84c0.7-0.39,1.43-0.59,2.18-0.59c2.47,0,4.51,2.06,4.79,3.91
									C800,460.47,798.47,462.82,795.95,463.37z M807.37,457.52c-0.29,0.06-0.57,0.1-0.83,0.1c-1.16,0-1.91-0.58-2.21-1.72
									c-0.49-1.82,0.72-2.96,1.22-3.24c0.38-0.21,0.77-0.32,1.18-0.32c1.32,0,2.47,1.12,2.63,2.12
									C809.58,455.93,808.75,457.22,807.37,457.52z"/>
								<path class="st6" d="M805.53,476.19c-1.16,0-1.91-0.58-2.21-1.72c-0.49-1.82,0.72-2.96,1.22-3.24
									c0.38-0.21,0.77-0.32,1.18-0.32c1.32,0,2.47,1.12,2.63,2.12c0.23,1.48-0.61,2.77-1.98,3.07
									C806.07,476.16,805.79,476.19,805.53,476.19L805.53,476.19z"/>
								<path class="st6" d="M798.88,491.37c-1.16,0-1.91-0.58-2.21-1.72c-0.48-1.82,0.72-2.96,1.22-3.24
									c0.38-0.21,0.77-0.32,1.18-0.32c1.32,0,2.47,1.12,2.63,2.12c0.23,1.48-0.61,2.77-1.98,3.07
									C799.42,491.34,799.14,491.37,798.88,491.37L798.88,491.37z"/>
								<path class="st6" d="M794.82,513.66c-1.16,0-1.91-0.58-2.21-1.72c-0.49-1.82,0.72-2.96,1.22-3.24
									c0.38-0.21,0.77-0.32,1.18-0.32c1.32,0,2.47,1.12,2.63,2.12c0.23,1.48-0.61,2.77-1.98,3.07
									C795.37,513.63,795.09,513.66,794.82,513.66L794.82,513.66z"/>
								<path class="st6" d="M788.59,502.95c-1.16,0-1.91-0.58-2.21-1.72c-0.49-1.82,0.72-2.96,1.22-3.24
									c0.38-0.21,0.77-0.32,1.18-0.32c1.32,0,2.47,1.12,2.63,2.12c0.23,1.48-0.61,2.77-1.98,3.07
									C789.13,502.92,788.85,502.95,788.59,502.95L788.59,502.95z"/>
								<path class="st6" d="M808.73,488.96c-1.16,0-1.91-0.58-2.21-1.72c-0.48-1.82,0.72-2.96,1.22-3.24
									c0.38-0.21,0.77-0.32,1.18-0.32c1.32,0,2.47,1.12,2.63,2.12c0.23,1.48-0.61,2.77-1.98,3.07
									C809.28,488.93,808.99,488.96,808.73,488.96L808.73,488.96z"/>
								<path class="st6" d="M789.19,485.46c-2.2,0-3.61-1.09-4.18-3.25c-0.91-3.43,1.36-5.57,2.31-6.11
									c0.71-0.4,1.46-0.61,2.23-0.61c2.48,0,4.67,2.11,4.96,4c0.43,2.79-1.15,5.23-3.74,5.79
									C790.22,485.4,789.69,485.46,789.19,485.46L789.19,485.46z"/>
								<path class="st5" d="M796.32,441c-0.72,0.41-1.53,1.51-1.15,2.93c0.38,1.43,1.59,1.88,2.86,1.6
									c1.27-0.28,2.08-1.48,1.87-2.83C799.68,441.36,797.91,440.1,796.32,441z"/>
							</g>
						</g>
					</g>
				</g>
				<path class="st7" d="M744.55,411c0,0,0,109.99,0,114.94c0,4.96,3.61,9.01,8.56,9.01h87.16c4.96,0,8.56-4.06,8.56-9.01
					c0-4.96,0-114.94,0-114.94H744.55z"/>
				<path class="st1" d="M852.78,401.87c1.58,0,4.06,0.45,3.83,6.31c-0.23,5.86-8.33,6.98-13.96,6.98h-89.63
					c-5.63,0-13.74-1.13-13.96-6.98c-0.23-5.86,2.25-6.31,3.83-6.31H852.78z"/>
				<g>
					<rect x="710.75" y="464.99" width="6.38" height="6.86"/>
				</g>
				<g>
					<rect x="729.94" y="464.99" width="6.38" height="6.86"/>
				</g>
				<path class="st8" d="M712.63,465.76c0,0-19.19-15.61-16.46-41.17c1.78-16.63,7.29-38.17,24.47-38.14
					c17.19,0.04,20.4,17.04,17.23,22.43c-4.64,7.88-19.85-2.28-12.71-32.02c7.15-29.74,47.39-31.06,47.96,7.18"/>
				<path class="st9" d="M822.08,381.79c0.02-3.11-0.29-6.27-1.05-9.41c-5.7-23.62-56.98-34.18-72.49-7.46
					c-15.51,26.72-18.04,59.66,3.17,75.82c21.21,16.16,25.34-16.49,8.55-26.1c-15.2-8.7-40.21-5.9-35.45,21.44
					c0.49,2.82,7.69,24.97,8.69,28.04"/>
				<path class="st10" d="M813.43,382.76c-0.67,0-1.73-0.19-1.64-2.7s3.56-2.99,5.98-2.99h8.1c2.41,0,5.88,0.48,5.98,2.99
					c0.1,2.51-0.97,2.7-1.64,2.7H813.43z"/>
				<path class="st10" d="M764.27,382.76c-0.67,0-1.73-0.19-1.64-2.7s3.56-2.99,5.98-2.99h8.1c2.41,0,5.88,0.48,5.98,2.99
					c0.1,2.51-0.97,2.7-1.64,2.7H764.27z"/>
				<path class="st10" d="M728.61,467.19c-0.37,0-0.94-0.1-0.88-1.45c0.05-1.35,1.92-1.61,3.22-1.61h4.37c1.3,0,3.17,0.26,3.22,1.61
					c0.05,1.35-0.52,1.45-0.88,1.45H728.61z"/>
				<path class="st10" d="M709.42,467.19c-0.37,0-0.94-0.1-0.88-1.45s1.92-1.61,3.22-1.61h4.37c1.3,0,3.17,0.26,3.22,1.61
					c0.05,1.35-0.52,1.45-0.88,1.45H709.42z"/>
				<path class="st11" d="M698.72,470.02c0,0-4.99-1.03-4.99,4.22s1.15,59.21,1.4,60.11c0.26,0.89,3.32,1.03,8.57,1.03h39.65
					c5.24,0,8.31-0.13,8.57-1.03c0.26-0.89,1.4-54.86,1.4-60.11s-4.99-4.22-4.99-4.22H698.72z"/>
				<path class="st10" d="M717.1,479.33c1.29,0,1.29,1.03,1.29,1.03v0.26c0,0,0,1.03-1.29,1.03h-6.31c-1.29,0-1.29-1.03-1.29-1.03
					v-0.26c0,0,0-1.03,1.29-1.03H717.1z"/>
				<g>
					<path class="st10" d="M736.28,479.33c1.29,0,1.29,1.03,1.29,1.03v0.26c0,0,0,1.03-1.29,1.03h-6.31c-1.29,0-1.29-1.03-1.29-1.03
						v-0.26c0,0,0-1.03,1.29-1.03H736.28z"/>
					<path class="st10" d="M731.97,477.34c0-1.29,1.03-1.29,1.03-1.29h0.26c0,0,1.03,0,1.03,1.29v6.31c0,1.29-1.03,1.29-1.03,1.29
						H733c0,0-1.03,0-1.03-1.29V477.34z"/>
				</g>
				<path class="st12" d="M743.36,536.49c5.24,0,8.31-0.13,8.57-1.05c0.18-0.64,0.79-27.68,1.15-45.83
					c-13.6,0.46-44.05,0.48-59.08,0.06c0.35,18.16,0.97,45.14,1.15,45.77c0.26,0.92,3.32,1.05,8.57,1.05L743.36,536.49
					L743.36,536.49z"/>
				<path class="st13" d="M717.95,501.56c0,0-0.13,15.28,0,16.01s5.3,0,5.3,0l-0.98,6.41c0,0,5.05-8.5,5.92-10.22
					c0.86-1.72-0.55-1.37-4.07-1.48c0.37-1.6,5.05-10.72,5.05-10.72S721.78,501.07,717.95,501.56z"/>
			</g>
			<g>
				<g>
					<path class="st10" d="M394.67,503.41c0,0,0.53,0,2.38,0c1.85,0,3.04,0,3.15-0.67v-2.59c-0.11-0.67-1.29-0.67-3.15-0.67
						c-1.85,0-2.38,0-2.38,0V503.41z"/>
					<path class="st10" d="M399.73,507.32c0,0,1.78,0,3.18,0c1.4,0,1.22-2.62,1.22-2.62v-6.5c0,0,0.17-2.62-1.22-2.62
						c-1.4,0-3.18,0-3.18,0V507.32z"/>
					<path class="st14" d="M397.37,516.27c0,0,0-15.2,0-20.78s0-9.12-2.03-9.46h-7.77c-2.03,0.34-2.03,3.88-2.03,9.46
						c0,5.57,0,20.78,0,20.78H397.37z"/>
					<path d="M400.3,527.08c0,0,0-8.78,0-10.98c0-2.2-18.41-2.2-18.41,0c0,2.2,0,10.98,0,10.98H400.3z"/>
					<path class="st15" d="M414.77,535.55c0,0,0-4.31,0-7.69s-6.34-2.96-6.34-2.96h-34.29c0,0-6.34-0.42-6.34,2.96s0,7.69,0,7.69
						H414.77z"/>
					<path class="st16" d="M398.56,479.94c0.93-2.02,1.49-4.69,1.55-7.31c0.05-2.62-1.68-6.73-3.43-10.18
						c-1.28-2.53-3.01-4.7-3.85-5.68c-0.26-0.31-0.73-0.31-0.98,0c-0.84,0.98-2.57,3.16-3.85,5.68c-1.75,3.45-3.47,7.55-3.43,10.18
						c0.05,2.62,0.62,5.29,1.55,7.31c0.26,0.58,0.88,1.09,1.63,1.54c2.83,1.7,6.36,1.7,9.18,0
						C397.69,481.03,398.3,480.51,398.56,479.94z"/>
					<path class="st11" d="M395.31,479.4c0.44-0.96,0.71-2.23,0.73-3.47c0.02-1.25-0.8-3.2-1.63-4.84c-0.61-1.2-1.43-2.23-1.83-2.7
						c-0.13-0.14-0.34-0.14-0.47,0c-0.4,0.47-1.22,1.5-1.83,2.7c-0.83,1.64-1.65,3.59-1.63,4.84c0.02,1.25,0.29,2.51,0.73,3.47
						c0.13,0.27,0.42,0.52,0.77,0.73c1.34,0.81,3.02,0.81,4.36,0C394.89,479.92,395.18,479.67,395.31,479.4z"/>
				</g>
				<g>
					<g>
						<path class="st2" d="M773.61,334.71c3.88,0,9.56,0.89,6.87-6.57c-2.69-7.47-30.77-70.2-30.77-75.57
							c0-5.38,0.6-48.39,0.6-48.39h-28.57c0,0,0.6,43.01,0.6,48.39c0,5.38-28.08,68.1-30.77,75.57c-2.69,7.47,2.99,6.57,6.87,6.57
							H773.61z"/>
						<g>
							<g>
								<g>
									<defs>
										<path id="SVGID_3_" d="M773.61,334.71c3.88,0,9.56,0.89,6.87-6.57c-2.69-7.47-30.77-70.2-30.77-75.57
											c0-5.38,0.6-48.39,0.6-48.39h-28.57c0,0,0.6,43.01,0.6,48.39c0,5.38-28.08,68.1-30.77,75.57
											c-2.69,7.47,2.99,6.57,6.87,6.57H773.61z"/>
									</defs>
									<clipPath id="SVGID_4_">
										<use xlink:href="#SVGID_3_"  style="overflow:visible;"/>
									</clipPath>
									<g class="st17">
										<path class="st18" d="M698.74,289.3c0,0,14.93-1.79,31.96,1.19s46.6-7.17,46.6-7.17s19.12,58.84,17.32,62.13
											c-1.79,3.29-17.92,14.63-17.92,14.63l-50.18,0.89c0,0-23.3-5.08-33.75-10.75c-10.45-5.68-20.31-3.58-16.73-18.82
											s9.56-32.56,9.56-32.56L698.74,289.3z"/>
										<g>
											<circle class="st19" cx="730.62" cy="300.88" r="2.62"/>
											<circle class="st19" cx="741.22" cy="296.55" r="1.42"/>
											<circle class="st19" cx="745.1" cy="305.06" r="1.57"/>
											<circle class="st19" cx="739.06" cy="304.54" r="1.64"/>
											<circle class="st19" cx="730.54" cy="313.35" r="1.49"/>
											<path class="st19" d="M736.82,321.04c0,0.95-0.77,1.72-1.72,1.72s-1.72-0.77-1.72-1.72c0-0.95,0.77-1.72,1.72-1.72
												S736.82,320.1,736.82,321.04z"/>
											<path class="st19" d="M726.81,308.42c0,1.65-1.34,2.99-2.99,2.99s-2.99-1.34-2.99-2.99s1.34-2.99,2.99-2.99
												C725.47,305.44,726.81,306.77,726.81,308.42z"/>
										</g>
									</g>
								</g>
							</g>
						</g>
						<g>
							<path class="st20" d="M698.44,334.71h-3.5C696.09,334.77,697.33,334.71,698.44,334.71z"/>
							<path class="st21" d="M780.48,328.14c-2.69-7.47-30.76-70.2-30.76-75.57c0-5.38,0.59-48.39,0.59-48.39h-10.49
								c0,0-0.59,43.01-0.59,48.39c0,5.38,28.07,68.1,30.76,75.57c1.93,5.35-0.44,6.4-3.37,6.57h6.98
								C777.49,334.71,783.16,335.61,780.48,328.14z"/>
						</g>
						<path class="st7" d="M773.61,334.71c3.88,0,9.56,0.89,6.87-6.57c-2.69-7.47-30.77-70.2-30.77-75.57
							c0-5.38,0.6-48.39,0.6-48.39h-28.57c0,0,0.6,43.01,0.6,48.39c0,5.38-28.08,68.1-30.77,75.57c-2.69,7.47,2.99,6.57,6.87,6.57
							H773.61z"/>
						<path class="st22" d="M710.2,311.73c20.07-46.66,22.92-54.55,22.92-59.16"/>
						<path class="st1" d="M717.23,197.83c-1.18,0-3.04,0.34-2.87,4.73c0.17,4.39,6.25,5.24,10.47,5.24h21.36
							c4.22,0,10.3-0.85,10.47-5.24s-1.69-4.73-2.87-4.73H717.23z"/>
					</g>
					<g>
						<line class="st23" x1="611.7" y1="230.32" x2="721.04" y2="230.32"/>
						<line class="st24" x1="635.68" y1="171.31" x2="635.68" y2="528.82"/>
						<path class="st15" d="M611.64,535.4c-0.88,0-1.23-1.14-0.5-1.63c4.29-2.86,13.3-8.5,17.87-8.5h14.92
							c4.57,0,13.58,5.63,17.87,8.5c0.73,0.49,0.38,1.63-0.5,1.63H611.64z"/>
						<path class="st10" d="M708.86,235.96c0,3.13,2.93,3.55,2.93,3.55h46.4c0,0,2.93-0.42,2.93-3.55v-11.29
							c0-3.13-2.93-3.55-2.93-3.55h-46.4c0,0-2.93,0.42-2.93,3.55V235.96z"/>
						<path class="st10" d="M627.34,234.57c0,2.36,2.2,2.68,2.2,2.68h12.44c0,0,2.2-0.31,2.2-2.68v-8.5c0-2.36-2.2-2.68-2.2-2.68
							h-12.44c0,0-2.2,0.31-2.2,2.68V234.57z"/>
					</g>
				</g>
				<g>
					<g>
						<path class="st25" d="M597.56,535.8c1.35,0,4.73-0.68,4.73-3.38c0-2.7,0.68-64.18,0.68-64.18c-0.17-5.91-3.88-6.5-5.73-6.43
							c-1.27,0.05-2.53,0.13-3.8,0.13H445.62c-1.27,0-2.53-0.07-3.8-0.13c-1.85-0.07-5.56,0.52-5.73,6.43c0,0,0.68,61.48,0.68,64.18
							c0,2.7,3.38,3.38,4.73,3.38H597.56L597.56,535.8z"/>
						<path class="st20" d="M500.64,511.08c3.35,5.95,12.41,12.61,24.21,9.47c11.79-3.14,15.49-13.13,13.21-23.58
							c-2.27-10.46-12.17-17.11-23.35-15.4C503.54,483.29,493.21,497.9,500.64,511.08z"/>
						<path class="st26" d="M500.55,510.87c3.35,5.95,12.41,12.61,24.21,9.47c11.79-3.14,15.49-13.13,13.21-23.58
							c-2.27-10.46-12.17-17.11-23.35-15.4C503.45,483.08,493.12,497.69,500.55,510.87z"/>
						<g>
							<line class="st27" x1="518.85" y1="484.85" x2="518.85" y2="489.24"/>
							<line class="st27" x1="530.18" y1="489.75" x2="527.07" y2="492.86"/>
							<line class="st27" x1="534.72" y1="501.24" x2="530.34" y2="501.24"/>
							<line class="st27" x1="502.47" y1="500.73" x2="506.86" y2="500.73"/>
							<line class="st27" x1="507.37" y1="489.4" x2="510.47" y2="492.5"/>
						</g>
						<g>
							<line class="st27" x1="525.45" y1="486.38" x2="523.65" y2="490.38"/>
							<line class="st27" x1="533.77" y1="495.5" x2="529.67" y2="497.06"/>
							<line class="st27" x1="503.99" y1="494.13" x2="507.99" y2="495.93"/>
							<line class="st27" x1="513.12" y1="485.81" x2="514.67" y2="489.92"/>
						</g>
						<path class="st28" d="M450.42,510.19c0,1.97-1.75,1.97-1.75,1.97h-2.76c0,0-1.75,0-1.75-1.97V492.9
							c0-1.97,1.75-1.97,1.75-1.97h2.76c0,0,1.75,0,1.75,1.97V510.19z"/>
						<path class="st28" d="M460.41,510.19c0,1.97-1.75,1.97-1.75,1.97h-2.76c0,0-1.75,0-1.75-1.97V492.9
							c0-1.97,1.75-1.97,1.75-1.97h2.76c0,0,1.75,0,1.75,1.97V510.19z"/>
						<path class="st28" d="M469.19,510.19c0,1.97-1.75,1.97-1.75,1.97h-2.76c0,0-1.75,0-1.75-1.97V492.9
							c0-1.97,1.75-1.97,1.75-1.97h2.76c0,0,1.75,0,1.75,1.97V510.19z"/>
						<path class="st28" d="M576.28,510.19c0,1.97-1.75,1.97-1.75,1.97h-2.76c0,0-1.75,0-1.75-1.97V492.9
							c0-1.97,1.75-1.97,1.75-1.97h2.76c0,0,1.75,0,1.75,1.97V510.19z"/>
						<path class="st28" d="M585.06,510.19c0,1.97-1.75,1.97-1.75,1.97h-2.76c0,0-1.75,0-1.75-1.97V492.9
							c0-1.97,1.75-1.97,1.75-1.97h2.76c0,0,1.75,0,1.75,1.97V510.19z"/>
						<path class="st28" d="M593.84,510.19c0,1.97-1.75,1.97-1.75,1.97h-2.76c0,0-1.75,0-1.75-1.97V492.9
							c0-1.97,1.75-1.97,1.75-1.97h2.76c0,0,1.75,0,1.75,1.97V510.19z"/>
						<g>
							<g>
								<line class="st29" x1="524.6" y1="494.96" x2="518.73" y2="500.78"/>
								<path class="st10" d="M525.84,497.71c0,0,0.23-2.59,0.17-3.28c-0.06-0.69-0.52-0.86-0.98-0.86s-3.16,0.06-3.16,0.06
									l2.47,1.44L525.84,497.71z"/>
							</g>
							<path class="st10" d="M516.92,501.14c-0.16-0.74,0.56-1.7,1.31-1.95c0.75-0.25,2.02,0.36,2.08,1.27
								c0.06,0.91-0.4,1.93-1.4,1.99C517.9,502.51,517.08,501.87,516.92,501.14z"/>
						</g>
					</g>
					<g>
						<path class="st1" d="M563.03,388.05c0,0,17.38-0.76,18.65,11.33c0.03,0.26,0.04,0.54,0.04,0.8v21.89
							c0,0.27-0.01,0.54-0.04,0.8c-1.28,12.09-18.65,11.33-18.65,11.33l3.61,10.57c0,0,25.34,1.1,27.2-16.52
							c0.04-0.39,0.05-0.79,0.05-1.18v-31.92c0-0.39-0.01-0.79-0.05-1.18c-1.86-17.63-27.2-16.52-27.2-16.52L563.03,388.05z"/>
						<path class="st30" d="M581.35,384.07c4.75,1.62,9.2,4.68,9.81,10.45c0.02,0.22,0.02,0.45,0.02,0.67v31.92
							c0,0.22,0,0.45-0.02,0.67c-0.55,5.25-4.29,8.25-8.54,9.97"/>
						<path class="st1" d="M571.44,448.65c0,0-0.45,13.51-11.26,13.51h-81.53c-10.81,0-11.26-13.51-11.26-13.51l1.35-90.09
							l102.7,1.35L571.44,448.65L571.44,448.65z"/>
						<line class="st31" x1="552.74" y1="434.01" x2="571.44" y2="434.01"/>
						<line class="st31" x1="545.09" y1="441.22" x2="571.44" y2="441.44"/>
						<path class="st32" d="M477.66,345.55c0.69,1.22,2.56,2.6,4.99,1.95c2.43-0.65,3.19-2.71,2.72-4.86
							c-0.47-2.15-2.51-3.53-4.81-3.17C478.25,339.82,476.13,342.83,477.66,345.55z"/>
						<path class="st32" d="M488.43,328.98c0.91,1.61,3.37,3.42,6.57,2.57c3.2-0.85,4.2-3.56,3.58-6.4
							c-0.62-2.83-3.3-4.64-6.34-4.18C489.21,321.43,486.41,325.4,488.43,328.98z"/>
						<path class="st32" d="M554.64,340.46c0.91,1.61,3.37,3.42,6.57,2.57c3.2-0.85,4.2-3.56,3.58-6.4
							c-0.62-2.83-3.3-4.64-6.34-4.18C555.42,332.92,552.62,336.88,554.64,340.46z"/>
						<path class="st32" d="M537.47,329.2c0.53,0.94,1.97,2,3.84,1.51s2.46-2.08,2.09-3.74c-0.36-1.66-1.93-2.72-3.7-2.44
							C537.93,324.79,536.29,327.11,537.47,329.2z"/>
						<path class="st33" d="M531.74,440.64c0.73,1.29,2.69,2.74,5.26,2.06s3.37-2.85,2.87-5.12c-0.49-2.27-2.64-3.71-5.07-3.34
							C532.37,434.61,530.12,437.78,531.74,440.64z"/>
						<path class="st34" d="M502.82,447.05c0.35,0.62,1.28,1.31,2.51,0.98c1.22-0.32,1.6-1.36,1.37-2.44
							c-0.23-1.09-1.26-1.77-2.42-1.6C503.12,444.17,502.05,445.68,502.82,447.05z"/>
						<path class="st34" d="M520.22,435.22c0.35,0.62,1.28,1.31,2.51,0.98c1.22-0.32,1.6-1.36,1.37-2.44
							c-0.23-1.08-1.26-1.77-2.42-1.6C520.52,432.35,519.45,433.86,520.22,435.22z"/>
						<path class="st34" d="M484.05,451.77c-0.35,0.62-1.28,1.31-2.51,0.98c-1.22-0.32-1.6-1.36-1.37-2.44
							c0.23-1.08,1.26-1.77,2.42-1.6C483.75,448.9,484.81,450.41,484.05,451.77z"/>
						<path class="st5" d="M550.83,410.37l-31.98-10.33l-33.54-0.01l-17.29,7.28l-0.62,41.33c0,0,0.45,13.51,11.26,13.51h81.52
							c10.81,0,11.26-13.51,11.26-13.51v-36.24L550.83,410.37z"/>
						<g>
							<g>
								<g>
									<defs>
										<path id="SVGID_5_" d="M571.44,448.65c0,0-0.45,13.51-11.26,13.51h-81.53c-10.81,0-11.26-13.51-11.26-13.51l1.35-90.09
											l102.7,1.35L571.44,448.65L571.44,448.65z"/>
									</defs>
									<clipPath id="SVGID_6_">
										<use xlink:href="#SVGID_5_"  style="overflow:visible;"/>
									</clipPath>
									<g class="st35">
										<circle class="st36" cx="567.84" cy="377.49" r="6.76"/>
										<path class="st36" d="M552.75,379.17c0,3.29,2.67,5.97,5.97,5.97c3.29,0,5.97-2.67,5.97-5.97c0-3.29-2.67-5.97-5.97-5.97
											C555.43,373.21,552.75,375.88,552.75,379.17z"/>
										<circle class="st36" cx="554.45" cy="385.26" r="4.39"/>
										
											<ellipse transform="matrix(0.7071 -0.7071 0.7071 0.7071 -119.5286 504.8909)" class="st36" cx="549.69" cy="396.73" rx="8.9" ry="8.9"/>
										<circle class="st36" cx="537.89" cy="396.18" r="5.18"/>
										
											<ellipse transform="matrix(0.3162 -0.9487 0.9487 0.3162 -15.5514 780.9174)" class="st36" cx="533.97" cy="401.25" rx="5.07" ry="5.07"/>
										<path class="st36" d="M530.91,406.88c0-2.55-2.07-4.61-4.61-4.61c-2.55,0-4.61,2.06-4.61,4.61c0,2.55,2.07,4.61,4.61,4.61
											C528.84,411.5,530.91,409.43,530.91,406.88z"/>
										<path class="st36" d="M526.18,403.5c0-3.55-2.87-6.42-6.42-6.42c-3.55,0-6.42,2.87-6.42,6.42c0,3.55,2.87,6.42,6.42,6.42
											S526.18,407.04,526.18,403.5z"/>
										<path class="st36" d="M522.8,398.65c0-3.98-3.23-7.21-7.21-7.21c-3.98,0-7.21,3.23-7.21,7.21s3.23,7.21,7.21,7.21
											C519.57,405.86,522.8,402.63,522.8,398.65z"/>
										<path class="st36" d="M511.77,392.71c0-4.63-3.76-8.39-8.39-8.39c-4.63,0-8.39,3.76-8.39,8.39s3.76,8.39,8.39,8.39
											C508.01,401.1,511.77,397.35,511.77,392.71z"/>
										<circle class="st36" cx="509.52" cy="376.83" r="4.19"/>
										<ellipse class="st36" cx="488.25" cy="393.36" rx="10.02" ry="10.02"/>
										<ellipse class="st36" cx="476.17" cy="391" rx="11.26" ry="11.26"/>
										<circle class="st36" cx="564.69" cy="420.73" r="8.33"/>
										<circle class="st36" cx="556.25" cy="421.07" r="4.39"/>
										<circle class="st36" cx="546.79" cy="414.98" r="7.09"/>
										<path class="st36" d="M534.06,418.47c0,2.61,2.12,4.73,4.73,4.73c2.61,0,4.73-2.12,4.73-4.73s-2.12-4.73-4.73-4.73
											C536.18,413.75,534.06,415.86,534.06,418.47z"/>
										<path class="st36" d="M525.05,413.18c0,3.67,2.98,6.64,6.64,6.64c3.67,0,6.64-2.98,6.64-6.64s-2.98-6.64-6.64-6.64
											C528.03,406.54,525.05,409.52,525.05,413.18z"/>
										<path class="st36" d="M506.36,409.47c0,2.86,2.32,5.18,5.18,5.18c2.86,0,5.18-2.32,5.18-5.18c0-2.86-2.32-5.18-5.18-5.18
											C508.68,404.29,506.36,406.61,506.36,409.47z"/>
										<circle class="st36" cx="501.85" cy="413.75" r="9.46"/>
										<path class="st36" d="M497.58,406.99c0-4.23-3.43-7.66-7.66-7.66c-4.23,0-7.66,3.43-7.66,7.66c0,4.23,3.43,7.66,7.66,7.66
											C494.15,414.65,497.58,411.22,497.58,406.99z"/>
										<path class="st36" d="M476.86,411.72c0,2.86,2.32,5.18,5.18,5.18s5.18-2.32,5.18-5.18s-2.32-5.18-5.18-5.18
											S476.86,408.86,476.86,411.72z"/>
										<path class="st36" d="M484.06,417.46c0-2.8-2.27-5.07-5.07-5.07s-5.07,2.27-5.07,5.07c0,2.8,2.27,5.07,5.07,5.07
											S484.06,420.26,484.06,417.46z"/>
										<path class="st36" d="M481.03,422.07c0-3.11-2.52-5.63-5.63-5.63c-3.11,0-5.63,2.52-5.63,5.63c0,3.11,2.52,5.63,5.63,5.63
											C478.51,427.71,481.03,425.19,481.03,422.07z"/>
										<path class="st36" d="M469.03,402.77c1.03,1.82,3.81,3.88,7.43,2.91c3.62-0.97,4.76-4.03,4.06-7.24
											c-0.7-3.21-3.74-5.26-7.17-4.73C469.91,394.23,466.75,398.72,469.03,402.77z"/>
										<path class="st36" d="M533.76,438.02c0.5,0.89,1.86,1.89,3.62,1.42c1.76-0.47,2.32-1.97,1.98-3.53s-1.82-2.56-3.5-2.3
											C534.2,433.85,532.65,436.04,533.76,438.02z"/>
										<path class="st36" d="M488.31,445.79c0.66,1.17,2.44,2.48,4.76,1.86c2.32-0.62,3.04-2.58,2.6-4.64
											c-0.45-2.06-2.39-3.37-4.59-3.02C488.87,440.32,486.84,443.19,488.31,445.79z"/>
										<path class="st36" d="M574.28,381.13l-6.08-3.04c0,0-7.77,0-8.78,0.17c-1.01,0.17-5.57,1.86-5.91,3.38
											s-1.18,2.7-1.69,3.21c-0.5,0.5-2.2,0.5-3.55,2.03c-1.35,1.52-3.21,3.21-4.56,4.39c-1.35,1.18-2.03,0.34-4.39,2.53
											s-4.56,4.22-5.24,4.39c-0.68,0.17-1.24,1.41-2.14,1.8c-0.9,0.4-0.73-0.11-2.42,1.91c-1.69,2.03-1.52,2.7-3.71,3.38
											c-2.2,0.68-8.95-3.55-10.3-4.39c-1.35-0.85-1.52-0.5-4.06-3.38c-2.53-2.87-5.35-4.68-6.56-6.05
											c-1.21-1.38-2.9-3.07-4.09-3.57c-1.18-0.5-2.2-3.04-5.91-0.17c-3.71,2.87-4.56,5.57-7.43,4.73
											c-2.87-0.85-7.43-2.2-10.81-2.7c-3.38-0.5-5.41-1.01-6.59-0.68s0.67,7.6,0.67,7.6s1.1,7.1,1.44,8.61
											c0.34,1.52-1.28,6.03-1.12,6.7c0.17,0.68,4.63,7.18,4.63,7.18s-2.23-2.39-0.88-2.72c1.35-0.34,2.2-0.68,4.22-2.7
											c2.03-2.03,2.2-2.87,4.06-4.9c1.86-2.03,2.87-5.41,6.08-4.39c3.21,1.01,2.7,2.87,6.59,4.56c3.88,1.69,8.45,1.86,10.98,2.2
											s2.7-1.69,4.22-3.04c1.52-1.35,2.2-2.36,3.21-3.21c1.01-0.85,2.03-1.18,3.38-0.85c1.35,0.34,5.24,3.04,6.42,4.39
											c1.18,1.35-0.5,1.52,3.04,3.21c3.55,1.69,4.73,2.53,6.59,3.38c1.86,0.85,3.38,0.85,6.08,1.18c2.7,0.34,3.71,0.68,6.76,0.5
											c3.04-0.17,2.2,0.71,7.04,2.23c4.84,1.52,6.25,0.13,9.23,0.47c2.98,0.34,2.98,0.85,6.53,0
											c3.55-0.85,11.15-4.39,11.65-5.24c0.5-0.85,1.69-3.71,2.03-7.6c0.34-3.88,1.01-3.21,0.17-8.11
											C582.22,393.63,574.28,381.13,574.28,381.13z"/>
									</g>
								</g>
							</g>
						</g>
						<g>
							<line class="st37" x1="545.91" y1="404.28" x2="564.6" y2="404.28"/>
							<line class="st37" x1="538.25" y1="411.49" x2="564.6" y2="411.72"/>
							<line class="st37" x1="545.91" y1="419.15" x2="564.6" y2="419.15"/>
							<line class="st37" x1="538.25" y1="426.35" x2="564.6" y2="426.58"/>
						</g>
						<path class="st21" d="M470,358.57l-0.01,0.26l83.22,1.09v88.74c0,0-0.45,13.51-11.26,13.51h19.48
							c10.81,0,11.26-13.51,11.26-13.51v-88.74L470,358.57z"/>
						<path class="st1" d="M572.79,362.62c2.7,0,3.83-1.8,3.83-4.73c0-4.51-4.73-4.06-4.73-4.06H467.61c0,0-4.73-0.45-4.73,4.06
							c0,2.93,1.13,4.73,3.83,4.73H572.79z"/>
						<path class="st22" d="M478.97,451.38c-0.4-0.8-0.73-2.26-0.79-2.93l1.18-75.41"/>
					</g>
				</g>
				<g>
					<path class="st1" d="M435.87,393.07c-3.53-16.21-14.88-28.52-29.74-33.82l0.61-121.62l-32.2-0.45l0.2,121.47
						c-23.45,8.08-42.46,39.19-26.51,67.48c7.85,13.93,29.08,29.54,56.7,22.18C432.54,440.94,441.2,417.56,435.87,393.07z"/>
					<path class="st38" d="M406.74,237.63"/>
					<path class="st38" d="M406.12,359.25"/>
					<line class="st22" x1="383.1" y1="347.88" x2="382.93" y2="255.59"/>
					<g>
						<g>
							<g>
								<defs>
									<path id="SVGID_7_" d="M348.22,426.12c7.85,13.93,29.08,29.54,56.7,22.18c27.62-7.36,36.28-30.74,30.95-55.24
										c-5.33-24.49-28.49-40.08-54.68-36.05C355,361.04,330.82,395.27,348.22,426.12z"/>
								</defs>
								<clipPath id="SVGID_8_">
									<use xlink:href="#SVGID_7_"  style="overflow:visible;"/>
								</clipPath>
								<path class="st39" d="M338.68,422.65c0,0,10.85-16.6,39.1-5.59c20.86,8.13,47.17,6.09,60.98,1.43
									c13.82-4.66,0.49,36.02,0.49,36.02l-93.79,4.78c0,0-5.13-4.39-6.07-8.23C338.45,447.21,338.68,422.65,338.68,422.65z"/>
							</g>
						</g>
						<g>
							<g>
								<defs>
									<path id="SVGID_9_" d="M348.22,426.12c7.85,13.93,29.08,29.54,56.7,22.18c27.62-7.36,36.28-30.74,30.95-55.24
										c-5.33-24.49-28.49-40.08-54.68-36.05C355,361.04,330.82,395.27,348.22,426.12z"/>
								</defs>
								<clipPath id="SVGID_10_">
									<use xlink:href="#SVGID_9_"  style="overflow:visible;"/>
								</clipPath>
								<g class="st40">
									<path class="st5" d="M382.68,391.98c1.16,0,1.91-0.58,2.21-1.72c0.48-1.82-0.72-2.96-1.22-3.24
										c-0.38-0.21-0.77-0.32-1.18-0.32c-1.32,0-2.47,1.12-2.63,2.12c-0.23,1.48,0.61,2.77,1.98,3.07
										C382.13,391.95,382.41,391.98,382.68,391.98L382.68,391.98z"/>
									<path class="st5" d="M389.32,407.17c1.16,0,1.91-0.58,2.21-1.72c0.48-1.82-0.72-2.96-1.22-3.24
										c-0.38-0.21-0.77-0.32-1.18-0.32c-1.32,0-2.47,1.12-2.63,2.12c-0.23,1.48,0.61,2.77,1.98,3.07
										C388.78,407.13,389.06,407.17,389.32,407.17L389.32,407.17z"/>
									<path class="st5" d="M407.22,411.39c1.78,0,2.92-0.89,3.39-2.63c0.74-2.78-1.1-4.52-1.87-4.95
										c-0.58-0.32-1.18-0.49-1.81-0.49c-2.02,0-3.78,1.71-4.02,3.24c-0.35,2.26,0.93,4.24,3.03,4.69
										C406.38,411.34,406.81,411.39,407.22,411.39L407.22,411.39z"/>
									<path class="st6" d="M384.59,431.46c1.16,0,1.91-0.58,2.21-1.72c0.48-1.82-0.72-2.96-1.22-3.24
										c-0.38-0.21-0.77-0.32-1.18-0.32c-1.32,0-2.47,1.12-2.63,2.12c-0.23,1.48,0.61,2.77,1.98,3.07
										C384.04,431.43,384.33,431.46,384.59,431.46L384.59,431.46z"/>
									<path class="st6" d="M401.17,440.05c1.16,0,1.91-0.58,2.21-1.72c0.48-1.82-0.72-2.96-1.22-3.24
										c-0.38-0.21-0.77-0.32-1.18-0.32c-1.32,0-2.47,1.12-2.63,2.12c-0.23,1.48,0.61,2.77,1.98,3.07
										C400.62,440.02,400.9,440.05,401.17,440.05L401.17,440.05z"/>
									<path class="st6" d="M373.2,441.45c1.16,0,1.91-0.58,2.21-1.72c0.48-1.82-0.72-2.96-1.22-3.24
										c-0.38-0.21-0.77-0.32-1.18-0.32c-1.32,0-2.47,1.12-2.63,2.12c-0.23,1.48,0.61,2.77,1.98,3.07
										C372.65,441.42,372.94,441.45,373.2,441.45L373.2,441.45z"/>
									<path class="st5" d="M399.61,418.75c1.16,0,1.91-0.58,2.21-1.72c0.48-1.82-0.72-2.96-1.22-3.24
										c-0.38-0.21-0.77-0.32-1.18-0.32c-1.32,0-2.47,1.12-2.63,2.12c-0.23,1.48,0.61,2.77,1.98,3.07
										C399.07,418.71,399.35,418.75,399.61,418.75L399.61,418.75z"/>
									<path class="st5" d="M399.01,401.25c2.2,0,3.61-1.09,4.18-3.25c0.91-3.43-1.36-5.57-2.31-6.11
										c-0.71-0.4-1.46-0.61-2.23-0.61c-2.48,0-4.67,2.11-4.96,4c-0.43,2.79,1.15,5.23,3.74,5.79
										C397.98,401.19,398.52,401.25,399.01,401.25L399.01,401.25z"/>
								</g>
							</g>
						</g>
					</g>
					<path class="st21" d="M435.87,393.07c-3.53-16.23-14.92-28.53-29.8-33.82h0.06l0.61-121.62h-9.59l-0.6,119.29
						c-4.49-0.61-11.53-1.03-18.56,0.74c-0.08,0.02-0.17,0.05-0.25,0.07c0.29,0.05,0.45,0.08,0.45,0.08
						c17.18,4.2,30.62,17.35,34.51,35.26c5.33,24.49-3.32,47.87-30.95,55.24c-0.77,0.2-1.53,0.38-2.29,0.55
						c7.58,1.79,16.16,1.93,25.46-0.55C432.54,440.94,441.2,417.56,435.87,393.07z"/>
					<path class="st41" d="M377.98,357.66c-24.89,6.18-46.44,38.87-29.76,68.46c7.85,13.93,29.08,29.54,56.7,22.18
						c27.62-7.36,36.28-30.74,30.95-55.24c-3.9-17.91-17.33-31.06-34.51-35.26"/>
					<polyline class="st42" points="397.34,249.23 397.66,201.59 382,201.38 382.11,249.13 					"/>
					<line class="st30" x1="386.5" y1="211.84" x2="386.61" y2="223.23"/>
					<polygon class="st21" points="397.29,240.31 397.4,201.55 392.21,201.38 392.25,240.22 					"/>
					<path class="st10" d="M379.27,234.7c0,0-2.06-0.55-1.92-3.02c0.14-2.47,1.51-2.61,3.29-2.61h18.4c1.79,0,3.16,0.14,3.29,2.61
						c0.14,2.47-1.92,3.02-1.92,3.02H379.27z"/>
					<path class="st1" d="M407.89,129.81c0-9.8-7.6-16.55-7.77-17.74c-0.17-1.18,0.34-8.45,0.34-8.45h-21.15c0,0,0.5,7.27,0.34,8.45
						c-0.17,1.18-7.77,7.94-7.77,17.74v45.61c0,9.8,7.6,16.55,7.77,17.74c0.17,1.18-0.34,8.45-0.34,8.45h21.15
						c0,0-0.5-7.26-0.34-8.45c0.17-1.18,7.77-7.94,7.77-17.74V129.81z"/>
					<path class="st21" d="M393.83,200.99c-0.19-2.89-0.41-6.99-0.31-7.76c0.06-0.17,0.59-0.87,1.07-1.48
						c2.18-2.81,6.71-8.68,6.71-16.34V129.8c0-7.66-4.53-13.52-6.71-16.34c-0.47-0.61-1.01-1.31-1.07-1.51
						c-0.11-0.75,0.11-4.84,0.31-7.73h5.99c-0.13,1.88-0.44,6.89-0.29,7.93c0.06,0.42,0.42,0.91,1.31,2.05
						c2.09,2.71,6.46,8.35,6.46,15.6v45.61c0,7.25-4.36,12.89-6.46,15.6c-0.89,1.15-1.25,1.63-1.31,2.05
						c-0.15,1.04,0.17,6.05,0.29,7.93L393.83,200.99L393.83,200.99L393.83,200.99z"/>
					<path class="st1" d="M407.17,233.12c0,0,3.38,0.9,3.15,4.96c-0.23,4.06-2.48,4.28-5.41,4.28h-30.17
						c-2.93,0-5.18-0.23-5.41-4.28c-0.23-4.06,3.15-4.96,3.15-4.96H407.17z"/>
					<path class="st1" d="M400.41,201.09c0,0,2.06,0.36,1.92,1.99c-0.14,1.63-1.51,1.72-3.29,1.72h-18.4
						c-1.79,0-3.16-0.09-3.29-1.72c-0.14-1.63,1.92-1.99,1.92-1.99H400.41z"/>
					<path class="st41" d="M390.21,155.42"/>
					<path class="st22" d="M365.62,433.28c-4.41-3.34-7.86-7.31-10.09-11.27c-6.97-12.36-5.11-23.71-2.32-31.05
						c2.98-7.83,8.53-14.86,15.17-19.62"/>
					<g>
						<g>
							<path class="st2" d="M692.39,65.93v56.5c0,2.9-2.36,5.27-5.27,5.27c-2.9,0-5.27-2.36-5.27-5.27v-12.21
								c0-6.34-5.15-11.49-11.49-11.49c-6.34,0-11.49,5.15-11.49,11.49v12.8c0,2.44-1.99,4.43-4.43,4.43
								c-2.44,0-4.43-1.99-4.43-4.43v-11.73c0-6.4-5.21-11.61-11.61-11.61H533.39c-5.25,0-9.87,2.74-12.53,6.85
								c-2.15-2.81-4.94-5.15-8.27-6.8L411.91,50.75c-5.6-2.77-12.11-2.45-17.42,0.84c-5.3,3.29-8.47,8.99-8.47,15.24v88.6h7.18
								v-88.6c0-3.74,1.9-7.16,5.08-9.14c3.18-1.97,7.09-2.17,10.46-0.49l100.66,48.98c5.58,2.76,9.04,8.34,9.04,14.57v34.97v19.18
								h7.18v-19.18v-34.97v-6.13c0-4.27-0.41-7.44,7.75-7.74h105.03c2.44,0,4.43,1.99,4.43,4.43v11.73
								c0,6.4,5.21,11.61,11.61,11.61c6.4,0,11.61-5.21,11.61-11.61v-12.8c0-2.38,1.93-4.31,4.31-4.31c2.38,0,4.31,1.93,4.31,4.31
								v12.21c0,6.86,5.59,12.45,12.45,12.45s12.45-5.59,12.45-12.45v-56.5h-7.18L692.39,65.93L692.39,65.93z"/>
							<path class="st41" d="M393.21,155.42v-88.6c0-3.74,1.9-7.16,5.08-9.14c3.18-1.97,7.09-2.17,10.46-0.49l100.66,48.98
								c5.58,2.76,9.04,8.34,9.04,14.57v34.97v19.18h7.18v-19.18v-34.97v-6.13c0-4.27,3.47-7.74,7.75-7.74h105.03
								c2.44,0,4.43,1.99,4.43,4.43v11.73c0,6.4,5.21,11.61,11.61,11.61c6.4,0,11.61-5.21,11.61-11.61v-12.8
								c0-2.38,1.93-4.31,4.31-4.31c2.38,0,4.31,1.93,4.31,4.31v12.21c0,6.86,5.59,12.45,12.45,12.45s12.45-5.59,12.45-12.45v-56.5
								h-7.18v56.5c0,2.9-2.36,5.27-5.27,5.27s-5.27-2.36-5.27-5.27v-12.21c0-6.34-5.15-11.49-11.49-11.49s-11.49,5.15-11.49,11.49
								v12.8c0,2.44-1.99,4.43-4.43,4.43s-4.43-1.99-4.43-4.43V111.3c0-6.4-5.21-11.61-11.61-11.61H533.39
								c-5.25,0-9.87,2.74-12.53,6.85c-2.15-2.81-4.94-5.15-8.27-6.8L411.92,50.76c-5.6-2.77-12.11-2.45-17.42,0.84
								c-5.3,3.29-8.47,8.99-8.47,15.24v88.6"/>
							<g>
								<path class="st21" d="M647.6,111.69v11.73c0,2.44,1.99,4.43,4.43,4.43c0.42,0,0.82-0.08,1.2-0.19
									c-1.85-0.53-3.23-2.22-3.23-4.24v-11.73c0-6.4-5.21-11.61-11.61-11.61H636C642.39,100.08,647.6,105.29,647.6,111.69z"/>
								<path class="st21" d="M409.52,50.75l100.66,48.97c3.33,1.65,6.13,4,8.27,6.8c0.34-0.52,0.53-0.8,0.93-1.28
									c-1.94-2.14-4.1-4.18-6.81-5.53L411.92,50.75c-2.9-1.43-5.96-1.75-9.05-1.54C405.17,49.37,407.37,49.68,409.52,50.75z"/>
								<path class="st21" d="M679.67,110.55v12.21c0,2.9,2.36,5.27,5.27,5.27c0.41,0,0.81-0.06,1.2-0.15
									c-2.33-0.55-4.07-2.63-4.07-5.12v-12.21c0-6.34-5.15-11.49-11.49-11.49c-0.41,0-0.8,0.02-1.2,0.07
									C675.15,99.72,679.67,104.61,679.67,110.55z"/>
								<path class="st21" d="M668.04,105.5c-2.38,0-4.31,1.93-4.31,4.31v12.8c0,6-4.57,10.94-10.41,11.55
									c0.4,0.04,0.79,0.06,1.2,0.06c6.4,0,11.61-5.21,11.61-11.61v-12.8c0-1.96,1.32-3.59,3.11-4.12
									C668.86,105.58,668.46,105.5,668.04,105.5z"/>
								<path class="st21" d="M697.18,65.66v56.5c0,6.46-4.94,11.78-11.25,12.38c0.4,0.04,0.79,0.06,1.2,0.06
									c6.86,0,12.45-5.59,12.45-12.45v-56.5L697.18,65.66L697.18,65.66z"/>
								<path class="st21" d="M523.25,114.6v6.13v34.97v19.18h2.39v-19.18v-34.97v-6.13c0-4.27,3.46-8.2,7.73-8.2l-2.38,0.46
									C526.72,106.86,523.25,110.33,523.25,114.6z"/>
								<path class="st21" d="M395.77,57.57c-3.18,1.97-5.08,5.39-5.08,9.14v88.6h2.39V66.7c0-3.74,1.9-7.16,5.08-9.14
									c1.39-0.86,2.13-1.5,3.69-1.67C399.5,55.62,397.87,56.26,395.77,57.57z"/>
							</g>
							<path class="st41" d="M396.09,54.14c-4.42,2.74-7.06,7.49-7.06,12.69v27.66"/>
							<g>
								<path class="st43" d="M530.1,103.14c-1.78,0.51-3.41,1.43-4.78,2.69"/>
								<path class="st43" d="M664.37,104.21c-1.54,1.54-2.49,3.66-2.49,6.01v12.8"/>
								<path class="st43" d="M695.39,78.21v44.21c0,1.54-0.42,2.97-1.15,4.21"/>
								<path class="st43" d="M674.77,104.38c1.77,1.33,2.91,3.46,2.91,5.83v12.21c0,3.69,2.12,6.89,5.21,8.45"/>
								<path class="st43" d="M644.32,106.79c0.95,1.25,1.52,2.81,1.52,4.5v11.73c0,2.97,1.51,5.59,3.8,7.14"/>
								<path class="st43" d="M518.57,110.56c1.86,2.99,2.89,6.49,2.89,10.18v25.09"/>
							</g>
						</g>
						<g>
							<path class="st2" d="M727.9,155.96c0,7.27,4.22,11.58,4.31,12.39s-0.09,4.94-0.09,4.94h8.02c0,0-0.18-4.13-0.09-4.94
								s4.31-5.12,4.31-12.39V69.69c0-7.27-4.22-11.58-4.31-12.39c-0.09-0.81,0.09-4.94,0.09-4.94h-8.02c0,0,0.18,4.13,0.09,4.94
								c-0.09,0.81-4.31,5.12-4.31,12.39V155.96z"/>
							<path class="st41" d="M727.9,155.96c0,7.27,4.22,11.58,4.31,12.39s-0.09,4.94-0.09,4.94h8.02c0,0-0.18-4.13-0.09-4.94
								s4.31-5.12,4.31-12.39V69.69c0-7.27-4.22-11.58-4.31-12.39c-0.09-0.81,0.09-4.94,0.09-4.94h-8.02c0,0,0.18,4.13,0.09,4.94
								c-0.09,0.81-4.31,5.12-4.31,12.39V155.96z"/>
							<g>
								<path class="st44" d="M737.19,175.99h-2.39v-10.03c0-0.58-0.25-1.13-0.68-1.52l-2.23-1.98c-0.88-0.79-1.39-1.91-1.39-3.1
									v-0.59c0-1.63,0.97-3.12,2.46-3.79l5.12-2.27c0.63-0.28,1.04-0.91,1.04-1.6s-0.41-1.31-1.04-1.6l-5.12-2.27
									c-1.49-0.67-2.46-2.15-2.46-3.79s0.97-3.12,2.46-3.79l5.12-2.27c0.63-0.28,1.04-0.91,1.04-1.6c0-0.69-0.41-1.31-1.04-1.6
									l-5.12-2.27c-1.49-0.67-2.46-2.15-2.46-3.79c0-1.64,0.97-3.12,2.46-3.79l5.12-2.27c0.63-0.28,1.04-0.91,1.04-1.6
									c0-0.69-0.41-1.31-1.04-1.6l-5.12-2.27c-1.49-0.67-2.46-2.15-2.46-3.79s0.97-3.12,2.46-3.79l5.12-2.27
									c0.63-0.28,1.04-0.91,1.04-1.6c0-0.69-0.41-1.31-1.04-1.6l-5.12-2.27c-1.49-0.67-2.46-2.15-2.46-3.79s0.97-3.12,2.46-3.79
									l5.12-2.27c0.63-0.28,1.04-0.91,1.04-1.6s-0.41-1.31-1.04-1.6L732.95,86c-1.49-0.67-2.46-2.15-2.46-3.79
									c0-1.63,0.97-3.12,2.46-3.79l5.12-2.27c0.63-0.28,1.04-0.91,1.04-1.6s-0.41-1.31-1.04-1.6l-5.12-2.27
									c-1.49-0.67-2.46-2.15-2.46-3.79V66.3c0-1.18,0.5-2.31,1.39-3.1l2.23-1.98c0.44-0.38,0.68-0.94,0.68-1.52v-6.2h2.39v6.2
									c0,1.27-0.55,2.47-1.49,3.31L733.47,65c-0.37,0.33-0.59,0.8-0.59,1.3v0.59c0,0.69,0.41,1.31,1.04,1.6l5.12,2.27
									c1.49,0.67,2.46,2.15,2.46,3.79s-0.97,3.12-2.46,3.79l-5.12,2.27c-0.63,0.28-1.04,0.91-1.04,1.6c0,0.69,0.41,1.31,1.04,1.6
									l5.12,2.27c1.49,0.67,2.46,2.15,2.46,3.79c0,1.63-0.97,3.12-2.46,3.79l-5.12,2.27c-0.63,0.28-1.04,0.91-1.04,1.6
									s0.41,1.31,1.04,1.6l5.12,2.27c1.49,0.67,2.46,2.15,2.46,3.79s-0.97,3.12-2.46,3.79l-5.12,2.27
									c-0.63,0.28-1.04,0.91-1.04,1.6c0,0.69,0.41,1.31,1.04,1.6l5.12,2.27c1.49,0.67,2.46,2.15,2.46,3.79s-0.97,3.12-2.46,3.79
									l-5.12,2.27c-0.63,0.28-1.04,0.91-1.04,1.6c0,0.69,0.41,1.31,1.04,1.6l5.12,2.27c1.49,0.67,2.46,2.15,2.46,3.79
									c0,1.64-0.97,3.12-2.46,3.79l-5.12,2.27c-0.63,0.28-1.04,0.91-1.04,1.6s0.41,1.31,1.04,1.6l5.12,2.27
									c1.49,0.67,2.46,2.15,2.46,3.79s-0.97,3.12-2.46,3.79l-5.12,2.27c-0.63,0.28-1.04,0.91-1.04,1.6v0.59
									c0,0.5,0.22,0.97,0.59,1.3l2.23,1.98c0.95,0.84,1.49,2.05,1.49,3.32V175.99z"/>
							</g>
							<path class="st21" d="M737.26,172.69c-0.07-1.63-0.13-3.77-0.07-4.27c0.03-0.09,0.3-0.5,0.53-0.86
								c1.22-1.9,3.77-5.83,3.77-11.59V69.7c0-5.75-2.55-9.7-3.77-11.59c-0.23-0.37-0.5-0.78-0.55-0.91
								c-0.05-0.46,0.01-2.61,0.08-4.24h2.25c-0.05,1.22-0.13,3.74-0.06,4.4c0.04,0.33,0.26,0.68,0.72,1.39
								c1.16,1.79,3.58,5.53,3.58,10.94v86.27c0,5.4-2.42,9.14-3.58,10.94c-0.46,0.7-0.68,1.06-0.72,1.39
								c-0.07,0.66,0.01,3.19,0.06,4.4L737.26,172.69L737.26,172.69z"/>
							<g>
								<path class="st16" d="M739.79,49.65h-7.18v-13.6c0-3.32-2.71-6.02-6.02-6.02h-4.99v-7.18h4.99
									c7.28,0,13.21,5.92,13.21,13.21V49.65z"/>
							</g>
							<g>
								<path class="st2" d="M739.79,49.65h-7.18v-13.6c0-3.32-2.71-6.02-6.02-6.02h-4.99v-7.18h4.99c7.28,0,13.21,5.92,13.21,13.21
									V49.65z"/>
							</g>
							<g>
								<path class="st41" d="M739.79,49.65h-7.18v-13.6c0-3.32-2.71-6.02-6.02-6.02h-4.99v-7.18h4.99
									c7.28,0,13.21,5.92,13.21,13.21V49.65z"/>
							</g>
							<path class="st18" d="M732.96,187.64c0.08-0.64,1.09-2.48,1.93-3.94c0.56-0.97,1.93-1.03,2.58-0.11
								c0.91,1.27,1.94,2.9,2.12,3.85c0.31,1.75-0.78,3.39-2.6,3.83C735.16,191.71,732.65,190.12,732.96,187.64z"/>
							<path class="st38" d="M741.45,53.36c1.17,0,1.43-0.99,1.43-1.79c0-0.8-0.81-1.43-1.97-1.43h-9.52
								c-1.16,0-1.97,0.63-1.97,1.43c0,0.8,0.27,1.79,1.43,1.79H741.45z"/>
							<path class="st38" d="M730.85,173.77c-1.16,0-1.43,0.99-1.43,1.79c0,0.81,0.81,1.43,1.97,1.43h9.52
								c1.16,0,1.97-0.63,1.97-1.43c0-0.81-0.27-1.79-1.43-1.79H730.85z"/>
							<path class="st43" d="M734.84,165.6c-1.12-1.73-3.2-4.94-3.2-9.64V69.7c0-4.69,2.08-7.91,3.2-9.64"/>
						</g>
						<g>
							<rect x="691.36" y="44.81" class="st38" width="8.62" height="21.21"/>
							<path class="st2" d="M673.27,38.92c4.27,7.57,15.81,16.06,30.83,12.06s19.72-16.72,16.82-30.03
								c-2.9-13.32-15.49-21.79-29.73-19.6S663.81,22.14,673.27,38.92z"/>
							<g>
								<g>
									<g>
										<defs>
											<path id="SVGID_11_" d="M673.27,38.92c4.27,7.57,15.81,16.06,30.83,12.06s19.72-16.72,16.82-30.03
												c-2.9-13.32-15.49-21.79-29.73-19.6S663.81,22.14,673.27,38.92z"/>
										</defs>
										<clipPath id="SVGID_12_">
											<use xlink:href="#SVGID_11_"  style="overflow:visible;"/>
										</clipPath>
										<g class="st45">
											<path class="st19" d="M688.12,33.19c0,0,13.44-14.96,24.05-6.06c10.61,8.9-12.23,12.33-12.23,12.33L688.12,33.19z"/>
											<path class="st18" d="M669.32,33.5c0,0,5.26-9.8,13.13-8.59c7.88,1.21,16.37,3.44,22.03,2.12
												c5.66-1.31,13.85-8,20.62-3.86s-3.34,34.27-3.34,34.27s-10.41,2.53-17.89,2.12c-7.48-0.4-20.41-0.81-25.87-3.03
												s-14.15-6.67-14.15-6.67L669.32,33.5z"/>
											<path class="st18" d="M696.49,20.3c-0.39,0.22-0.83,0.81-0.62,1.58c0.2,0.77,0.86,1.01,1.54,0.86
												c0.68-0.15,1.12-0.8,1.01-1.53C698.31,20.49,697.35,19.81,696.49,20.3z"/>
											<path class="st19" d="M681.89,38.28c-0.53,0.3-1.13,1.11-0.85,2.17c0.28,1.06,1.18,1.39,2.11,1.18s1.53-1.09,1.38-2.09
												C684.38,38.54,683.07,37.61,681.89,38.28z"/>
											<path class="st19" d="M697.38,34.35c-0.39,0.22-0.82,0.81-0.62,1.58c0.2,0.77,0.86,1.01,1.54,0.86
												c0.68-0.15,1.12-0.79,1-1.52C699.19,34.54,698.24,33.87,697.38,34.35z"/>
											<path class="st19" d="M702.17,38.25c-0.53,0.3-1.13,1.11-0.85,2.16c0.28,1.05,1.17,1.38,2.11,1.18
												c0.93-0.2,1.52-1.09,1.37-2.08C704.65,38.51,703.34,37.59,702.17,38.25z"/>
										</g>
									</g>
								</g>
							</g>
							<path class="st2" d="M720.92,20.95c-2.9-13.31-15.49-21.79-29.73-19.6c-0.73,0.11-1.45,0.28-2.17,0.47
								c9.31,2.3,16.6,9.41,18.71,19.13c2.9,13.32-1.81,26.03-16.82,30.03c-0.32,0.08-0.64,0.16-0.96,0.23
								c4.19,1.04,8.96,1.15,14.14-0.23C719.12,46.98,723.82,34.26,720.92,20.95z"/>
							<path class="st46" d="M673.27,38.92c4.27,7.57,15.81,16.06,30.83,12.06s19.72-16.72,16.82-30.03
								c-2.9-13.32-15.49-21.79-29.73-19.6S663.81,22.14,673.27,38.92z"/>
							<path class="st22" d="M685.43,40.02c-2.16-1.55-3.83-3.41-4.85-5.22c-3.43-6.09-2.09-11.62-0.36-15.18
								c1.19-2.44,2.89-4.62,4.86-6.32"/>
							<path class="st10" d="M699.75,55.07c2.1,0,2.38,1.96,2.38,1.96v14.42c0,0-0.28,1.96-2.38,1.96h-7.56
								c-2.1,0-2.38-1.96-2.38-1.96V57.03c0,0,0.28-1.96,2.38-1.96H699.75z"/>
						</g>
					</g>
					<g>
						<path class="st1" d="M534.47,216.68c0,0,0.23,10.92,0.23,12.05c0,1.13,13.18,8.11,12.73,23.31
							c-0.4,13.42-7.03,47.81-16.48,63.59c-1.94,3.25-5.47,5.21-9.25,5.21l0,0c-3.79,0-7.31-1.96-9.25-5.21
							c-9.45-15.78-16.08-50.17-16.48-63.59c-0.45-15.2,12.73-22.18,12.73-23.31s0.23-12.05,0.23-12.05H534.47z"/>
						<g>
							<circle class="st5" cx="520.07" cy="271.17" r="2.62"/>
							<circle class="st5" cx="530.67" cy="266.84" r="1.42"/>
							<path class="st5" d="M536.13,275.35c0,0.86-0.7,1.57-1.57,1.57c-0.86,0-1.57-0.7-1.57-1.57s0.7-1.57,1.57-1.57
								C535.43,273.78,536.13,274.48,536.13,275.35z"/>
							<path class="st5" d="M530.15,274.82c0,0.91-0.74,1.64-1.64,1.64s-1.64-0.74-1.64-1.64c0-0.91,0.74-1.64,1.64-1.64
								C529.42,273.19,530.15,273.92,530.15,274.82z"/>
							<circle class="st5" cx="520" cy="283.64" r="1.49"/>
							<path class="st5" d="M526.27,291.33c0,0.95-0.77,1.72-1.72,1.72c-0.95,0-1.72-0.77-1.72-1.72c0-0.95,0.77-1.72,1.72-1.72
								S526.27,290.38,526.27,291.33z"/>
							<circle class="st5" cx="513.28" cy="278.71" r="2.99"/>
						</g>
						<path class="st21" d="M521.7,320.25c-1.25,0-2.51-0.24-3.69-0.7c1.42-0.93,2.6-2.16,3.47-3.6
							c9.57-15.98,16.16-50.44,16.56-63.88c0.37-12.27-7.89-19.27-11.42-22.26c-0.56-0.47-1.14-0.97-1.31-1.18
							c-0.01-1.37-0.17-9.07-0.21-11.34h8.79c0.05,2.29,0.21,10.49,0.21,11.45c0,0.52,0.47,0.92,1.73,1.99
							c3.39,2.88,11.34,9.61,10.99,21.31c-0.4,13.33-6.92,47.48-16.39,63.3C528.62,318.36,525.27,320.25,521.7,320.25z"/>
						<path class="st22" d="M514.2,299.09c-5.61-15.88-9.55-37.63-9.83-47.29c-0.23-7.94,5.28-12.62,8.24-15.13"/>
						<path class="st47" d="M524.74,345.54v-7.27c4.18-1.38,5.48-5.12,4.63-9.04c-0.56-2.58-2.32-4.57-4.63-5.51v-3.31
							c-0.98,0.28-2,0.45-3.04,0.45s-2.06-0.16-3.04-0.45v3.29c-3.66,1.61-6.44,6.55-3.9,11.05c0.71,1.25,2.07,2.59,3.9,3.36v7.45"
							/>
						<path class="st2" d="M519.26,345.63v-7.94l-0.37-0.16c-1.53-0.65-2.88-1.81-3.61-3.1c-1.25-2.21-0.98-4.25-0.54-5.57
							c0.68-2.03,2.27-3.81,4.16-4.64l0.36-0.16v-2.9c0.82,0.18,1.64,0.28,2.44,0.28c0.8,0,1.63-0.09,2.44-0.28v2.95l0.37,0.15
							c2.21,0.9,3.77,2.75,4.27,5.08c0.88,4.06-0.7,7.18-4.24,8.35l-0.41,0.14v7.79L519.26,345.63L519.26,345.63L519.26,345.63z"/>
						<polyline class="st42" points="529.2,240.04 529.53,192.41 513.86,192.19 513.98,239.93 						"/>
						<polygon class="st2" points="529.2,212.14 529.53,192.41 513.86,192.19 513.98,212.04 						"/>
						<polygon class="st48" points="514.57,211.45 514.47,192.79 528.92,193 528.61,211.54 						"/>
						<path class="st10" d="M535.65,208.01c0,0,2.72,0.48,2.54,2.63c-0.18,2.15-1.99,2.27-4.35,2.27h-24.28
							c-2.36,0-4.17-0.12-4.35-2.27c-0.18-2.15,2.54-2.63,2.54-2.63H535.65z"/>
						<rect x="508.24" y="150.25" width="27.7" height="45.49"/>
						<path class="st10" d="M507.87,155.23c0,0-2.77-0.53-2.59-2.92s2.03-2.52,4.43-2.52h24.75c2.4,0,4.25,0.13,4.43,2.52
							c0.19,2.39-2.59,2.92-2.59,2.92H507.87z"/>
						<path class="st10" d="M507.87,163.56c0,0-2.77-0.53-2.59-2.92c0.19-2.39,2.03-2.52,4.43-2.52h24.75c2.4,0,4.25,0.13,4.43,2.52
							s-2.59,2.92-2.59,2.92H507.87z"/>
						<path class="st10" d="M507.87,171.89c0,0-2.77-0.53-2.59-2.92c0.19-2.39,2.03-2.52,4.43-2.52h24.75c2.4,0,4.25,0.13,4.43,2.52
							s-2.59,2.92-2.59,2.92H507.87z"/>
						<path class="st10" d="M507.87,180.21c0,0-2.77-0.53-2.59-2.92c0.19-2.39,2.03-2.52,4.43-2.52h24.75c2.4,0,4.25,0.13,4.43,2.52
							s-2.59,2.92-2.59,2.92H507.87z"/>
						<path class="st10" d="M507.87,188.54c0,0-2.77-0.53-2.59-2.92c0.19-2.39,2.03-2.52,4.43-2.52h24.75c2.4,0,4.25,0.13,4.43,2.52
							s-2.59,2.92-2.59,2.92H507.87z"/>
						<path class="st10" d="M507.87,196.87c0,0-2.77-0.53-2.59-2.92c0.19-2.39,2.03-2.52,4.43-2.52h24.75c2.4,0,4.25,0.13,4.43,2.52
							c0.19,2.39-2.59,2.92-2.59,2.92H507.87z"/>
						<path class="st1" d="M537.82,218.71c1.62,0,2.89-1.39,2.74-3.01c-0.12-1.25-0.32-2.56-0.43-3.3
							c-0.21-1.49-6.44-1.17-7.14-1.13c-0.05,0-0.1,0.01-0.14,0.01h-22.29c-0.05,0-0.1,0-0.14-0.01c-0.71-0.04-6.93-0.36-7.14,1.13
							c-0.1,0.73-0.31,2.05-0.43,3.3c-0.16,1.61,1.12,3.01,2.74,3.01H537.82z"/>
						<g>
							<g>
								<g>
									<defs>
										<path id="SVGID_13_" d="M514.76,334.73c1.31,2.32,4.85,4.93,9.46,3.7c4.6-1.23,6.05-5.12,5.16-9.21s-4.75-6.68-9.11-6.01
											C515.89,323.88,511.86,329.59,514.76,334.73z"/>
									</defs>
									<clipPath id="SVGID_14_">
										<use xlink:href="#SVGID_13_"  style="overflow:visible;"/>
									</clipPath>
									<path class="st49" d="M544.19,332.46c-5.02-2.46-11.04-3.33-15.91-1.36c-4.87,1.97-15.36-5.83-23.71,1.57
										c-8.35,7.4,6.38,17.51,7.8,16.93c1.42-0.58,36.19-13.94,36.19-13.94L544.19,332.46z"/>
								</g>
							</g>
						</g>
						<path class="st7" d="M514.76,334.73c1.31,2.32,4.85,4.93,9.46,3.7c4.6-1.23,6.05-5.12,5.16-9.21s-4.75-6.68-9.11-6.01
							C515.89,323.88,511.86,329.59,514.76,334.73z"/>
						<path class="st50" d="M517.89,332.97c-0.83-1.48-0.5-2.83-0.08-3.71c0.31-0.65,0.78-1.23,1.31-1.67"/>
					</g>
					<path class="st1" d="M379.26,104.3c0,0-2.06-0.36-1.92-1.99c0.14-1.63,1.51-1.72,3.29-1.72h18.4c1.79,0,3.16,0.09,3.29,1.72
						s-1.92,1.99-1.92,1.99H379.26z"/>
					<path class="st22" d="M385.1,186.25c-1.81-2.33-4.83-6.25-4.83-10.84v-45.61c0-4.59,3.02-8.5,4.83-10.84"/>
				</g>
			</g>
			<g>
				<g>
					<path class="st1" d="M154.69,497.16c0-1.42,0.11-3.07,3.83-3.07s27.28,0,30.34,0c3.07,0,1.75,3.83-1.31,6.02
						c-0.82,0.82,0,18.07,0,22.57c0,4.49,0,12.27,0,12.27h-33.3L154.69,497.16z"/>
					<g>
						<g>
							<g>
								<defs>
									<path id="SVGID_15_" d="M154.69,497.16c0-1.42,0.11-3.07,3.83-3.07s27.28,0,30.34,0c3.07,0,1.75,3.83-1.31,6.02
										c-0.82,0.82,0,18.07,0,22.57c0,4.49,0,12.27,0,12.27h-33.3L154.69,497.16z"/>
								</defs>
								<clipPath id="SVGID_16_">
									<use xlink:href="#SVGID_15_"  style="overflow:visible;"/>
								</clipPath>
								<path class="st51" d="M193.25,517.92c0,0-11.72-1.54-18.95-0.55c-7.23,0.98-28.37-2.08-28.37-2.08l0.11,22.34
									c0,0,5.15,4.05,14.02,2.85c8.87-1.21,12.27-2.19,21.03-2.96c8.77-0.77,16.54-2.19,16.54-4.71
									C197.63,530.3,193.25,517.92,193.25,517.92z"/>
							</g>
						</g>
					</g>
					<path class="st21" d="M188.87,494.09c-1.24,0-5.82,0-11.09,0c3.07,0,1.75,3.83-1.31,6.02c-0.82,0.82,0,18.07,0,22.57
						c0,4.49,0,12.27,0,12.27h11.09c0,0,0-7.78,0-12.27c0-4.49-0.82-21.74,0-22.57C190.62,497.93,191.93,494.09,188.87,494.09z"/>
					<path class="st7" d="M154.69,497.16c0-1.42,0.11-3.07,3.83-3.07s27.28,0,30.34,0c3.07,0,1.75,3.83-1.31,6.02
						c-0.82,0.82,0,18.07,0,22.57c0,4.49,0,12.27,0,12.27h-33.3L154.69,497.16z"/>
					<line class="st52" x1="161.52" y1="527.76" x2="161.83" y2="501.28"/>
				</g>
				<g>
					<path class="st15" d="M286.75,522.97v9.49c0,1.66-1.38,2.99-3.05,2.93l-3.89-0.15c-0.55-0.02-1.09-0.19-1.54-0.51
						c-2.37-1.63-9.86-7.14-9.71-11.36C268.74,518.38,286.75,522.97,286.75,522.97z"/>
					<path class="st15" d="M237.9,522.97v9.49c0,1.66,1.38,2.99,3.05,2.93l3.89-0.15c0.55-0.02,1.09-0.19,1.54-0.51
						c2.37-1.63,9.86-7.14,9.71-11.36C255.91,518.38,237.9,522.97,237.9,522.97z"/>
					<path class="st15" d="M263.15,523.62c0,0,0.06,10.12,0.06,10.89c0,0.77-2.83,1.12-2.83-0.06c0-1.18,0-11.24,0-11.24
						L263.15,523.62z"/>
					<path d="M240.02,519.85c-1.88,0-2.95,1.3-2.95,2.47s0.23,1.76,2.35,1.76h46.39c2.12,0,2-0.59,2-1.76s-1.06-2.47-2.95-2.47
						H240.02z"/>
					<path class="st16" d="M256.93,515.17c-0.77-1.67-1.24-3.89-1.28-6.07c-0.04-2.18,1.4-5.59,2.84-8.45
						c1.06-2.1,2.5-3.9,3.19-4.72c0.22-0.25,0.6-0.25,0.82,0c0.7,0.82,2.14,2.62,3.19,4.72c1.45,2.86,2.89,6.28,2.84,8.45
						c-0.04,2.18-0.52,4.39-1.28,6.07c-0.22,0.47-0.73,0.91-1.35,1.28c-2.35,1.42-5.28,1.42-7.63,0
						C257.66,516.08,257.15,515.64,256.93,515.17z"/>
					<path class="st11" d="M259.64,514.73c-0.37-0.8-0.59-1.85-0.61-2.89c-0.02-1.03,0.67-2.66,1.35-4.02c0.5-1,1.19-1.85,1.52-2.24
						c0.1-0.12,0.29-0.12,0.39,0c0.33,0.39,1.01,1.25,1.52,2.24c0.69,1.36,1.37,2.98,1.35,4.02c-0.02,1.03-0.25,2.09-0.61,2.89
						c-0.1,0.23-0.35,0.43-0.64,0.61c-1.12,0.67-2.51,0.67-3.62,0C259.99,515.16,259.75,514.95,259.64,514.73z"/>
					<g>
						<path class="st16" d="M272.27,497.52c0.62,1.9,1.08,3.74,1.61,5.53c0.52,1.78,1.06,3.53,1.84,4.97c0.17,0.38,0.41,0.67,0.62,1
							c0.12,0.13,0.23,0.26,0.35,0.4l0.08,0.1l0.15,0.16l0.3,0.32c0.78,0.88,1.32,1.97,1.52,3.08c0.21,1.11,0.13,2.21-0.13,3.21
							c-0.27,1-0.69,1.94-1.31,2.74c0.1-1.98-0.05-3.85-0.69-5.33c-0.32-0.73-0.76-1.34-1.31-1.84c-0.07-0.06-0.14-0.12-0.21-0.19
							l-0.26-0.25l-0.64-0.64c-0.34-0.46-0.7-0.92-0.94-1.41c-1.04-1.94-1.4-3.97-1.54-5.95
							C271.58,501.44,271.72,499.45,272.27,497.52z"/>
					</g>
					<g>
						<path class="st16" d="M250.92,497.52c0.55,1.93,0.7,3.91,0.58,5.9c-0.14,1.99-0.5,4.01-1.54,5.95
							c-0.23,0.49-0.61,0.95-0.94,1.41l-0.64,0.64l-0.26,0.25c-0.07,0.07-0.14,0.13-0.21,0.19c-0.55,0.5-0.99,1.1-1.31,1.84
							c-0.64,1.48-0.79,3.35-0.69,5.33c-0.62-0.79-1.04-1.73-1.31-2.74c-0.26-1-0.34-2.1-0.13-3.21c0.2-1.11,0.74-2.21,1.52-3.08
							l0.3-0.32l0.15-0.16l0.08-0.1c0.11-0.14,0.23-0.27,0.35-0.4c0.2-0.33,0.44-0.61,0.62-1c0.78-1.44,1.33-3.2,1.84-4.97
							C249.84,501.27,250.31,499.42,250.92,497.52z"/>
					</g>
				</g>
				<g>
					<path class="st2" d="M265.48,379.29l51.84-51.84c2.92-2.92,3.77-7.25,2.2-11.06c-1.58-3.8-5.26-6.26-9.38-6.26h-78.13
						c-2.29,0-4.16-1.87-4.16-4.16v-1.33c0-2.29,1.87-4.16,4.16-4.16h78.66c6.64,0,12.04-5.4,12.04-12.04v-2.2
						c0-6.64-5.4-12.04-12.04-12.04h-78.22c-2.29,0-4.16-1.87-4.16-4.16v-0.45c0-2.29,1.87-4.16,4.16-4.16h78.66
						c6.64,0,12.04-5.41,12.04-12.04c0-3.22-1.25-6.25-3.53-8.52c-2.27-2.27-5.29-3.52-8.51-3.52c-0.01,0-0.01,0-0.02,0l-79.08,0.11
						h-0.01c-1.11,0-2.15-0.43-2.93-1.21c-0.79-0.79-1.22-1.83-1.22-2.94v-1.31c0-2.29,1.87-4.16,4.16-4.16h78.66
						c6.64,0,12.04-5.41,12.04-12.04v-2.2c0-6.64-5.4-12.04-12.04-12.04h-78.22c-2.29,0-4.16-1.87-4.16-4.16v-0.45
						c0-2.29,1.87-4.16,4.16-4.16h78.66c6.64,0,12.04-5.41,12.04-12.05c0-6.64-5.4-12.04-12.04-12.04l-78.81-0.02
						c-2.29,0-4.16-1.87-4.16-4.16v-1.33c0-2.29,1.87-4.16,4.16-4.16h78.66c6.64,0,12.04-5.41,12.04-12.04v-2.2
						c0-6.64-5.4-12.04-12.04-12.04h-78.22c-2.29,0-4.16-1.87-4.16-4.16v-0.45c0-2.29,1.87-4.16,4.16-4.16h78.66
						c6.64,0,12.04-5.41,12.04-12.05c0-6.64-5.4-12.04-12.04-12.04H184.89c-9.35,0-16.97,7.61-16.98,16.97l-0.13,152.29
						c-6.82,1.63-12.35,7.45-13.3,13.59c-1.45,9.46,4.18,17.83,13.03,19.76c0.08,0.02,0.16,0.02,0.24,0.04l-0.01,9.28
						c-0.47,0.08-0.92,0.17-1.34,0.29c-12.33,3.44-14.9,18.37-9.23,26.08c2.76,3.76,6.53,6.14,10.55,7.03l-0.01,9.56
						c-5.53,1.22-9.64,4.88-11.56,8.27c-6.2,11,2.21,23.17,11.53,24.9l-0.07,82.29l7.88,0.01l0.07-82.57
						c6.1-1.57,10.87-6.28,12.26-12.67c1.93-8.85-1.2-17.3-11.18-19.96c-0.35-0.1-0.7-0.16-1.05-0.23l0.01-9.76
						c1.64-0.44,3.24-1.13,4.75-2.1c7.62-4.9,11.38-13.09,6.2-22.02c-2.82-4.87-6.9-7.5-10.93-8.65l0.01-9.55
						c5.5-1,10.02-4.61,11.84-11.43c2.66-9.98-2.98-17.65-8.02-20.49c-1.25-0.71-2.53-1.21-3.79-1.56l0.13-152.4
						c0.01-5.01,4.09-9.09,9.1-9.09h126.53c2.29,0,4.16,1.87,4.16,4.17c0,2.29-1.87,4.16-4.16,4.16h-78.66
						c-6.64,0-12.04,5.4-12.04,12.04v0.45c0,6.64,5.4,12.04,12.04,12.04h78.22c2.29,0,4.16,1.87,4.16,4.16v2.2
						c0,2.29-1.87,4.16-4.16,4.16h-78.66c-6.64,0-12.04,5.41-12.04,12.04v1.33c0,6.64,5.4,12.04,12.04,12.04l78.81,0.02
						c2.29,0,4.16,1.87,4.16,4.17c0,2.29-1.87,4.16-4.16,4.16h-78.66c-6.64,0-12.04,5.4-12.04,12.04v0.45
						c0,6.64,5.4,12.04,12.04,12.04h78.22c2.29,0,4.16,1.87,4.16,4.16v2.2c0,2.29-1.87,4.16-4.16,4.16h-78.66
						c-6.64,0-12.04,5.41-12.04,12.04v1.31c0,3.22,1.25,6.25,3.53,8.52c2.27,2.27,5.29,3.52,8.51,3.52c0.01,0,0.01,0,0.02,0
						l79.08-0.11h0.01c1.11,0,2.15,0.43,2.93,1.21c0.79,0.79,1.22,1.83,1.22,2.94c0,2.29-1.87,4.16-4.16,4.16h-78.66
						c-6.64,0-12.04,5.41-12.04,12.04v0.45c0,6.64,5.4,12.04,12.04,12.04h78.22c2.29,0,4.16,1.87,4.16,4.16v2.2
						c0,2.29-1.87,4.16-4.16,4.16h-78.66c-6.64,0-12.04,5.41-12.04,12.04v1.33c0,6.64,5.4,12.04,12.04,12.04h78.13
						c1.37,0,1.92,0.98,2.09,1.4c0.17,0.42,0.47,1.5-0.49,2.47l-51.84,51.84"/>
					<g>
						<polygon class="st2" points="167.71,358.76 167.72,349.2 175.61,349.02 175.59,358.78 						"/>
						<polygon class="st2" points="167.75,306.51 167.75,315.79 175.63,316.26 175.64,306.7 						"/>
						<polygon class="st2" points="175.67,264.43 175.67,273.22 167.78,273.11 167.79,264.73 						"/>
					</g>
					<path class="st18" d="M175.57,391.64l-0.07,82.57l-7.88-0.01l0.07-82.29C167.68,391.93,172.98,392.92,175.57,391.64z"/>
					<g>
						<path class="st20" d="M170.48,392.25c-1.57-0.1-2.8-0.32-2.8-0.32v0.3C168.54,392.29,169.53,392.32,170.48,392.25z"/>
						<path class="st2" d="M173.17,392.23l-0.07,81.99h2.39l0.07-82.57C174.9,391.97,174.06,392.14,173.17,392.23z"/>
					</g>
					<path class="st18" d="M175.67,264.58l0.13-143.76c0.01-5.01,4.09-9.09,9.1-9.09h126.4c1.99,0,3.8,1.34,4.2,3.29
						c0.55,2.68-1.49,5.03-4.07,5.03h-78.66c-6.65,0-12.04,5.39-12.04,12.04v0.45c0,6.65,5.39,12.04,12.04,12.04h78.22
						c2.3,0,4.16,1.86,4.16,4.16v2.2c0,2.3-1.86,4.16-4.16,4.16h-78.66c-6.65,0-12.04,5.39-12.04,12.04v1.33
						c0,6.65,5.39,12.04,12.04,12.04l78.81,0.02c2.36,0,4.27,1.98,4.15,4.39c-0.11,2.25-2.13,3.94-4.38,3.94h-78.44
						c-6.65,0-12.04,5.39-12.04,12.04v0.45c0,6.65,5.39,12.04,12.04,12.04h78.22c2.3,0,4.16,1.86,4.16,4.16v2.2
						c0,2.3-1.86,4.16-4.16,4.16h-78.66c-6.65,0-12.04,5.39-12.04,12.04v0.92c0,3.13,1.05,6.23,3.17,8.54
						c2.31,2.51,5.48,3.9,8.87,3.9c0.01,0,0.01,0,0.02,0l79.08-0.11h0.01c1.11,0,2.15,0.43,2.93,1.21c0.91,0.91,1.34,2.15,1.19,3.45
						c-0.25,2.12-2.18,3.65-4.32,3.65h-78.47c-6.65,0-12.04,5.39-12.04,12.04v0.45c0,6.65,5.39,12.04,12.04,12.04h78.22
						c2.3,0,4.16,1.86,4.16,4.16v2.2c0,2.3-1.86,4.16-4.16,4.16h-78.66c-6.65,0-12.04,5.39-12.04,12.04v1.33
						c0,6.65,5.39,12.04,12.04,12.04h78.13c1.37,0,1.92,0.98,2.09,1.4s0.47,1.5-0.49,2.47l-25.57,29.29
						c-1.54,1.67-1.49,4.25,0.11,5.86l0,0c0.39,0.39,1.02,0.39,1.41,0l29.62-29.56c3.24-3.24,3.94-8.24,1.58-12.31
						c-1.85-3.19-5.4-5.02-9.09-5.02h-77.79c-2.3,0-4.16-1.86-4.16-4.16v-1.33c0-2.3,1.86-4.16,4.16-4.16h78.66
						c6.65,0,12.04-5.39,12.04-12.04v-2.2c0-6.65-5.39-12.04-12.04-12.04h-78.22c-2.3,0-4.16-1.86-4.16-4.16v-0.45
						c0-2.3,1.86-4.16,4.16-4.16h78.29c6.49,0,12.09-4.97,12.4-11.45c0.22-4.59-2.1-8.86-6.31-11.23c-1.73-0.98-3.73-1.42-5.72-1.42
						h-0.02l-79.08,0.11h-0.01c-1.36,0-2.63-0.65-3.44-1.81c-0.5-0.72-0.72-1.61-0.72-2.49v-1.16c0-2.3,1.86-4.16,4.16-4.16h78.66
						c6.65,0,12.04-5.39,12.04-12.04v-2.2c0-6.65-5.39-12.04-12.04-12.04h-78.22c-2.3,0-4.16-1.86-4.16-4.16v-0.45
						c0-2.3,1.86-4.16,4.16-4.16h78.66c6.64,0,12.04-5.41,12.04-12.05c0-6.64-5.4-12.04-12.04-12.04l-78.81-0.02
						c-2.3,0-4.16-1.86-4.16-4.16v-1.33c0-2.3,1.86-4.16,4.16-4.16h78.66c6.65,0,12.04-5.39,12.04-12.04v-2.2
						c0-6.65-5.39-12.04-12.04-12.04h-78.22c-2.3,0-4.16-1.86-4.16-4.16v-0.45c0-2.3,1.86-4.16,4.16-4.16h78.3
						c6.27,0,11.76-4.64,12.35-10.88c0.68-7.16-4.96-13.21-11.99-13.21H184.89c-9.35,0-16.97,7.61-16.98,16.97l-0.13,143.65"/>
					<g>
						<path class="st20" d="M308.42,249.22l-76.47,0.1c0.02,0,0.05,0.01,0.07,0.01c0.01,0,0.01,0,0.02,0l76.42-0.1
							C308.45,249.23,308.44,249.22,308.42,249.22L308.42,249.22z"/>
						<path class="st21" d="M232.46,196.76h-2.69c-2.3,0-4.16,1.86-4.16,4.16v0.45c0,2.3,1.86,4.16,4.16,4.16h2.69
							c-2.3,0-4.16-1.86-4.16-4.16v-0.45C228.3,198.62,230.16,196.76,232.46,196.76z"/>
						<path class="st21" d="M323.03,150.96v-2.2c0-6.65-5.39-12.04-12.04-12.04h-2.69c6.65,0,12.04,5.39,12.04,12.04v2.2
							c0,6.65-5.39,12.04-12.04,12.04h2.69C317.63,163,323.03,157.61,323.03,150.96z"/>
						<path class="st21" d="M322.72,219.77v-2.2c0-6.65-5.39-12.04-12.04-12.04h-2.69c6.65,0,12.04,5.39,12.04,12.04v2.2
							c0,6.65-5.39,12.04-12.04,12.04h2.69C317.33,231.82,322.72,226.43,322.72,219.77z"/>
						<path class="st21" d="M232.46,265.43h-2.69c-2.3,0-4.16,1.86-4.16,4.16v0.45c0,2.3,1.86,4.16,4.16,4.16h2.69
							c-2.3,0-4.16-1.86-4.16-4.16v-0.45C228.3,267.29,230.16,265.43,232.46,265.43z"/>
						<path class="st21" d="M232.02,231.82h-2.69c-2.3,0-4.16,1.86-4.16,4.16v1.16c0,0.88,0.22,1.76,0.72,2.49
							c0.81,1.16,2.08,1.81,3.44,1.81h0.01l2.66-0.01c-1.36-0.01-2.6-0.66-3.41-1.81c-0.5-0.72-0.72-1.61-0.72-2.49v-1.16
							C227.86,233.68,229.72,231.82,232.02,231.82z"/>
						<path class="st21" d="M232.02,300.48h-2.69c-2.3,0-4.16,1.86-4.16,4.16v1.33c0,2.3,1.86,4.16,4.16,4.16h2.69
							c-2.3,0-4.16-1.86-4.16-4.16v-1.33C227.86,302.34,229.72,300.48,232.02,300.48z"/>
						<path class="st21" d="M309.82,310.12h-2.69c3.69,0,7.24,1.82,9.09,5.02c2.36,4.07,1.66,9.07-1.58,12.31l-28.9,28.85
							c0.16,0.25,0.35,0.5,0.57,0.72c0.39,0.39,1.02,0.39,1.41,0l29.62-29.56c3.24-3.24,3.94-8.24,1.58-12.31
							C317.05,311.95,313.51,310.12,309.82,310.12z"/>
						<path class="st21" d="M311.12,172.66l-78.81-0.02c-2.3,0-4.16-1.86-4.16-4.16v-1.33c0-2.3,1.86-4.16,4.16-4.16h-2.69
							c-2.3,0-4.16,1.86-4.16,4.16v1.33c0,2.3,1.86,4.16,4.16,4.16l78.81,0.02c6.64,0,12.04,5.41,12.04,12.04
							c0,6.65-5.4,12.05-12.04,12.05h2.69c6.64,0,12.04-5.41,12.04-12.05C323.16,178.07,317.76,172.66,311.12,172.66z"/>
						<path class="st21" d="M232.76,127.95h-2.69c-2.3,0-4.16,1.86-4.16,4.16v0.45c0,2.3,1.86,4.16,4.16,4.16h2.69
							c-2.3,0-4.16-1.86-4.16-4.16v-0.45C228.6,129.81,230.46,127.95,232.76,127.95z"/>
						<path class="st21" d="M316.84,242.75c-1.73-0.98-3.73-1.42-5.72-1.42h-0.02l-2.62,0.01c1.97,0.01,3.94,0.44,5.66,1.41
							c4.21,2.37,6.53,6.64,6.31,11.23c-0.31,6.48-5.92,11.45-12.4,11.45h2.69c6.49,0,12.1-4.97,12.4-11.45
							C323.37,249.39,321.05,245.12,316.84,242.75z"/>
						<path class="st21" d="M311.42,103.85h-2.69c7.03,0,12.67,6.05,11.99,13.21c-0.59,6.25-6.08,10.88-12.35,10.88h2.69
							c6.27,0,11.76-4.64,12.35-10.88C324.08,109.89,318.44,103.85,311.42,103.85z"/>
						<path class="st21" d="M310.68,274.19h-2.69c6.65,0,12.04,5.39,12.04,12.04v2.2c0,6.65-5.39,12.04-12.04,12.04h2.69
							c6.65,0,12.04-5.39,12.04-12.04v-2.2C322.72,279.58,317.33,274.19,310.68,274.19z"/>
						<path class="st2" d="M173.09,120.82l-0.13,143.71l2.69,0.04l0.13-143.76c0.01-5.01,4.09-9.09,9.1-9.09h-2.69
							C177.18,111.74,173.1,115.81,173.09,120.82z"/>
					</g>
					<g>
						<g>
							<g>
								<defs>
									<path id="SVGID_17_" d="M156.15,367.03c2.84-5.03,10.51-10.68,20.49-8.02c9.98,2.66,13.11,11.11,11.18,19.96
										c-1.93,8.85-10.3,14.48-19.76,13.03S149.87,378.18,156.15,367.03z"/>
								</defs>
								<clipPath id="SVGID_18_">
									<use xlink:href="#SVGID_17_"  style="overflow:visible;"/>
								</clipPath>
								<path class="st53" d="M158.08,388.39c0,0,5.04-6.79,8.77-4.82c3.73,1.97,7.67,4.16,11.61,3.94
									c3.94-0.22,9.64,1.31,5.92,6.57C180.65,399.35,159.61,396.72,158.08,388.39z"/>
							</g>
						</g>
					</g>
					<path class="st21" d="M176.64,359.01c-3.05-0.82-5.89-0.85-8.44-0.36c0.54,0.1,1.09,0.21,1.64,0.36
						c9.98,2.66,13.11,11.11,11.18,19.96c-1.48,6.81-6.79,11.7-13.46,12.94c0.16,0.03,0.32,0.07,0.49,0.09
						c9.46,1.45,17.83-4.18,19.76-13.03C189.75,370.12,186.63,361.67,176.64,359.01z"/>
					<path class="st18" d="M167.78,484.79c0.08-0.64,1.09-2.48,1.93-3.94c0.56-0.97,1.93-1.03,2.58-0.11
						c0.91,1.27,1.94,2.9,2.12,3.85c0.31,1.75-0.78,3.39-2.6,3.84C169.98,488.86,167.48,487.28,167.78,484.79z"/>
					<path class="st18" d="M169.25,275.96c0.05-0.46,0.77-1.76,1.37-2.79c0.4-0.68,1.37-0.73,1.82-0.08c0.64,0.9,1.38,2.05,1.5,2.73
						c0.22,1.24-0.55,2.4-1.84,2.72C170.81,278.85,169.03,277.72,169.25,275.96z"/>
					<path class="st18" d="M169.25,285.25c0.05-0.46,0.77-1.76,1.37-2.79c0.4-0.68,1.37-0.73,1.82-0.08c0.64,0.9,1.38,2.05,1.5,2.73
						c0.22,1.24-0.55,2.4-1.84,2.72C170.81,288.13,169.03,287.01,169.25,285.25z"/>
					<path class="st54" d="M175.5,474.21l0.07-82.57c6.1-1.57,10.87-6.28,12.26-12.67c1.93-8.85-1.2-17.3-11.18-19.96
						c-0.35-0.1-0.7-0.16-1.05-0.23l0.01-9.76c1.64-0.44,3.24-1.13,4.75-2.1c7.62-4.9,11.38-13.09,6.2-22.02
						c-2.82-4.87-6.9-7.5-10.93-8.65l0.01-9.55c5.5-1,10.02-4.61,11.84-11.43c2.66-9.98-2.98-17.65-8.02-20.49
						c-1.25-0.71-2.53-1.21-3.79-1.56l0.13-152.4c0.01-5.01,4.09-9.09,9.1-9.09h126.53c2.29,0,4.16,1.87,4.16,4.17
						c0,2.29-1.87,4.16-4.16,4.16h-78.66c-6.64,0-12.04,5.4-12.04,12.04v0.45c0,6.64,5.4,12.04,12.04,12.04h78.22
						c2.29,0,4.16,1.87,4.16,4.16v2.2c0,2.29-1.87,4.16-4.16,4.16h-78.66c-6.64,0-12.04,5.41-12.04,12.04v1.33
						c0,6.64,5.4,12.04,12.04,12.04l78.81,0.02c2.29,0,4.16,1.87,4.16,4.17c0,2.29-1.87,4.16-4.16,4.16h-78.66
						c-6.64,0-12.04,5.4-12.04,12.04v0.45c0,6.64,5.4,12.04,12.04,12.04h78.22c2.29,0,4.16,1.87,4.16,4.16v2.2
						c0,2.29-1.87,4.16-4.16,4.16h-78.66c-6.64,0-12.04,5.41-12.04,12.04v1.31c0,3.22,1.25,6.25,3.53,8.52
						c2.27,2.27,5.29,3.52,8.51,3.52c0.01,0,0.01,0,0.02,0l79.08-0.11h0.01c1.11,0,2.15,0.43,2.93,1.21
						c0.79,0.79,1.22,1.83,1.22,2.94c0,2.29-1.87,4.16-4.16,4.16h-78.66c-6.64,0-12.04,5.41-12.04,12.04v0.45
						c0,6.64,5.4,12.04,12.04,12.04h78.22c2.29,0,4.16,1.87,4.16,4.16v2.2c0,2.29-1.87,4.16-4.16,4.16h-78.66
						c-6.64,0-12.04,5.41-12.04,12.04v1.33c0,6.64,5.4,12.04,12.04,12.04h78.13c1.37,0,1.92,0.98,2.09,1.4s0.47,1.5-0.49,2.47
						l-29.25,29.25"/>
					<path class="st54" d="M288.6,356.17l28.73-28.72c2.92-2.92,3.77-7.25,2.2-11.06c-1.58-3.8-5.26-6.26-9.38-6.26h-78.13
						c-2.29,0-4.16-1.87-4.16-4.16v-1.33c0-2.29,1.87-4.16,4.16-4.16h78.66c6.64,0,12.04-5.4,12.04-12.04v-2.2
						c0-6.64-5.4-12.04-12.04-12.04h-78.22c-2.29,0-4.16-1.87-4.16-4.16v-0.45c0-2.29,1.87-4.16,4.16-4.16h78.66
						c6.64,0,12.04-5.41,12.04-12.04c0-3.22-1.25-6.25-3.53-8.52c-2.27-2.27-5.29-3.52-8.51-3.52c-0.01,0-0.01,0-0.02,0l-79.08,0.11
						h-0.01c-1.11,0-2.15-0.43-2.93-1.21c-0.79-0.79-1.22-1.83-1.22-2.94v-1.31c0-2.29,1.87-4.16,4.16-4.16h78.66
						c6.64,0,12.04-5.41,12.04-12.04v-2.2c0-6.64-5.4-12.04-12.04-12.04h-78.22c-2.29,0-4.16-1.87-4.16-4.16v-0.45
						c0-2.29,1.87-4.16,4.16-4.16h78.66c6.64,0,12.04-5.41,12.04-12.05c0-6.64-5.4-12.04-12.04-12.04l-78.81-0.02
						c-2.29,0-4.16-1.87-4.16-4.16v-1.33c0-2.29,1.87-4.16,4.16-4.16h78.66c6.64,0,12.04-5.41,12.04-12.04v-2.2
						c0-6.64-5.4-12.04-12.04-12.04h-78.22c-2.29,0-4.16-1.87-4.16-4.16v-0.45c0-2.29,1.87-4.16,4.16-4.16h78.66
						c6.64,0,12.04-5.41,12.04-12.05c0-6.64-5.4-12.04-12.04-12.04H184.89c-9.35,0-16.97,7.61-16.98,16.97l-0.13,152.29
						c-6.82,1.63-12.35,7.45-13.3,13.59c-1.45,9.46,4.18,17.83,13.03,19.76c0.08,0.02,0.16,0.02,0.24,0.04l-0.01,9.28
						c-0.47,0.08-0.92,0.17-1.34,0.29c-12.33,3.44-14.9,18.37-9.23,26.08c2.76,3.76,6.53,6.14,10.55,7.03l-0.01,9.56
						c-5.53,1.22-9.64,4.88-11.56,8.27c-6.2,11,2.21,23.17,11.53,24.9l-0.07,82.29"/>
					<line class="st43" x1="170.83" y1="408.7" x2="170.76" y2="468.77"/>
					<g>
						<g>
							<g>
								<defs>
									<path id="SVGID_19_" d="M166.4,316.08c5.57-1.55,14.98-0.12,20.16,8.82c5.18,8.94,1.42,17.12-6.2,22.02
										c-7.62,4.9-17.53,2.96-23.18-4.76C151.5,334.44,154.07,319.52,166.4,316.08z"/>
								</defs>
								<clipPath id="SVGID_20_">
									<use xlink:href="#SVGID_19_"  style="overflow:visible;"/>
								</clipPath>
								<g class="st55">
									<path class="st19" d="M175.94,334.99c0,0-13.36-10.73-22.34-2.19C144.61,341.35,175.94,334.99,175.94,334.99z"/>
									<path class="st18" d="M191.71,333.68c0,0-8.77-7.88-16.21-3.5c-7.45,4.38-19.72,2.41-25.42-0.22
										c-5.69-2.63-0.66,18.62-0.66,18.62l38.99,3.94c0,0,2.19-2.19,2.63-4.16C191.49,346.38,191.71,333.68,191.71,333.68z"/>
								</g>
							</g>
						</g>
					</g>
					<path class="st21" d="M186.56,324.9c-4.92-8.49-13.66-10.21-19.29-9.02c4.51,0.87,9.31,3.52,12.5,9.02
						c5.18,8.94,1.42,17.12-6.21,22.02c-1.79,1.15-3.71,1.91-5.66,2.32c4.18,0.88,8.6,0.16,12.46-2.32
						C187.97,342.03,191.73,333.84,186.56,324.9z"/>
					<line class="st56" x1="118.54" y1="235.3" x2="118.54" y2="528.77"/>
					<line class="st57" x1="98.82" y1="264.19" x2="172.43" y2="264.19"/>
					<path class="st10" d="M165.29,267.41c0,1.79,1.67,2.03,1.67,2.03h9.44c0,0,1.67-0.24,1.67-2.03v-6.45
						c0-1.79-1.67-2.03-1.67-2.03h-9.44c0,0-1.67,0.24-1.67,2.03V267.41z"/>
					<path class="st10" d="M111.68,267.68c0,1.94,1.81,2.2,1.81,2.2h10.23c0,0,1.81-0.26,1.81-2.2v-6.99c0-1.94-1.81-2.2-1.81-2.2
						h-10.23c0,0-1.81,0.26-1.81,2.2V267.68z"/>
					<path class="st15" d="M98.77,535.4c-0.73,0-1.01-0.94-0.41-1.34c3.53-2.35,10.94-6.98,14.69-6.98h12.27
						c3.76,0,11.17,4.63,14.69,6.98c0.61,0.4,0.32,1.34-0.41,1.34H98.77z"/>
					<g>
						<g>
							<g>
								<defs>
									<path id="SVGID_21_" d="M179.46,274.78c5.03,2.84,10.68,10.51,8.02,20.49c-2.66,9.98-11.11,13.11-19.96,11.18
										c-8.85-1.93-14.48-10.3-13.03-19.76C155.94,277.24,168.31,268.5,179.46,274.78z"/>
								</defs>
								<clipPath id="SVGID_22_">
									<use xlink:href="#SVGID_21_"  style="overflow:visible;"/>
								</clipPath>
								<path class="st58" d="M186.02,304.77c-3.73-4.16-8.98-7.23-14.24-7.23c-5.26,0-12.05-11.17-22.57-7.45
									c-10.52,3.73-0.66,18.62,0.88,18.62s38.78,0.66,38.78,0.66L186.02,304.77z"/>
							</g>
						</g>
					</g>
					<path class="st21" d="M179.46,274.78c-3.8-2.14-7.75-2.54-11.36-1.75c1.52,0.34,3.05,0.9,4.57,1.75
						c5.03,2.84,10.68,10.51,8.02,20.49c-1.82,6.82-6.33,10.43-11.83,11.43c8.35,1.34,16.09-1.95,18.62-11.43
						C190.14,285.3,184.49,277.63,179.46,274.78z"/>
					<path class="st59" d="M179.46,274.78c5.03,2.84,10.68,10.51,8.02,20.49c-2.66,9.98-11.11,13.11-19.96,11.18
						c-8.85-1.93-14.48-10.3-13.03-19.76C155.94,277.24,168.31,268.5,179.46,274.78z"/>
					<path class="st60" d="M163.58,297.84c-2.54-2.47-3.8-6.18-3.17-10.24c0.32-2.11,1.71-4.36,3.71-6.07"/>
					<path class="st59" d="M166.4,316.08c5.57-1.55,14.98-0.12,20.16,8.82c5.18,8.94,1.42,17.12-6.2,22.02
						c-7.62,4.9-17.53,2.96-23.18-4.76C151.5,334.44,154.07,319.52,166.4,316.08z"/>
					<path class="st60" d="M161.99,338.62c-1.82-2.48-2.23-6.53-1.01-10.06c0.41-1.2,1.09-2.57,2.21-3.8"/>
					<path class="st59" d="M156.15,367.03c2.84-5.03,10.51-10.68,20.49-8.02c9.98,2.66,13.11,11.11,11.18,19.96
						c-1.93,8.85-10.3,14.48-19.76,13.03S149.87,378.18,156.15,367.03z"/>
					<path class="st60" d="M164.54,383.96c-1.37-1.12-2.57-2.6-3.38-4.29c-1.11-2.28-1.97-5.81,0.23-9.7"/>
					<line class="st57" x1="98.82" y1="400.89" x2="172.43" y2="400.89"/>
					<path class="st10" d="M166.34,403.58c0,1.49,1.39,1.69,1.39,1.69h7.87c0,0,1.39-0.2,1.39-1.69v-5.38
						c0-1.49-1.39-1.69-1.39-1.69h-7.87c0,0-1.39,0.2-1.39,1.69V403.58z"/>
					<path class="st10" d="M111.68,404.39c0,1.94,1.81,2.2,1.81,2.2h10.23c0,0,1.81-0.26,1.81-2.2v-6.99c0-1.94-1.81-2.2-1.81-2.2
						h-10.23c0,0-1.81,0.26-1.81,2.2V404.39z"/>
					<g>
						<path class="st43" d="M172.76,113.75c-1.37,2.45-2.16,5.27-2.16,8.27l-0.13,132.97"/>
						<path class="st43" d="M226.85,125.26c-1.92,1.66-3.14,4.11-3.14,6.85v0.45c0,2.82,1.3,5.34,3.32,7"/>
						<path class="st43" d="M314.92,109.65c2.18,1.23,3.65,3.57,3.65,6.25c0,2.23-1.03,4.23-2.63,5.54"/>
						<path class="st43" d="M315.83,143.5c1.42,1.31,2.3,3.18,2.3,5.26v2.2c0,1.82-0.68,3.49-1.81,4.75"/>
						<path class="st43" d="M226.31,160.4c-1.86,1.66-3.04,4.07-3.04,6.76v1.33c0,2.7,1.19,5.13,3.07,6.79"/>
						<path class="st43" d="M315.9,179.39c1.46,1.31,2.37,3.22,2.37,5.32c0,1.97-0.8,3.76-2.1,5.06"/>
						<path class="st43" d="M226.81,193.85c-2.07,1.66-3.4,4.21-3.4,7.06v0.45c0,2.5,1.01,4.76,2.65,6.4"/>
						<path class="st43" d="M315.42,212.22c1.48,1.31,2.41,3.22,2.41,5.35v2.2c0,1.97-0.8,3.76-2.1,5.06"/>
						<path class="st43" d="M225.62,229.58c-1.64,1.64-2.65,3.9-2.65,6.4v1.31c0,2.42,0.94,4.69,2.65,6.4"/>
						<path class="st43" d="M316.17,248.32c1.36,1.35,2.1,3.15,2.1,5.06c0,2.38-1.17,4.49-2.96,5.79"/>
						<path class="st43" d="M226.06,263.19c-1.64,1.64-2.65,3.9-2.65,6.4v0.45c0,2.5,1.01,4.76,2.65,6.4"/>
						<path class="st43" d="M315.34,280.81c1.53,1.31,2.5,3.26,2.5,5.43v2.2c0,1.48-0.45,2.86-1.22,4"/>
						<path class="st43" d="M226.04,297.85c-1.88,1.66-3.07,4.09-3.07,6.79v1.33c0,2.5,1.01,4.76,2.65,6.4"/>
						<path class="st43" d="M310.15,315.01c2.17,0,4.03,1.24,4.86,3.25c0.83,2,0.4,4.2-1.14,5.74l-22.66,22.66"/>
					</g>
				</g>
				<g>
					<path class="st1" d="M289.31,377.86c-3.82-2.15-7.68-3.8-11.54-5c1.54-1.82,15.05-15.8,14.33-16.94
						c-1.1-1.75-8.98-7.23-10.3-7.45c-1.05-0.17-18.82,18.74-21.35,21.9c-29.43,0.47-55.36,24.26-59.24,49.52
						c-5.13,33.38,14.74,62.9,45.96,69.7c31.22,6.8,61.03-4.24,70.41-39.45C326.97,414.93,307.06,387.88,289.31,377.86z"/>
					<g>
						<g>
							<g>
								<defs>
									<path id="SVGID_23_" d="M289.31,377.86c17.75,10.01,37.66,37.07,28.28,72.28s-39.19,46.25-70.41,39.45
										c-31.22-6.8-51.09-36.33-45.96-69.7C206.34,386.51,249.97,355.69,289.31,377.86z"/>
								</defs>
								<clipPath id="SVGID_24_">
									<use xlink:href="#SVGID_23_"  style="overflow:visible;"/>
								</clipPath>
								<g class="st61">
									<g>
										<path class="st19" d="M251.51,423.36c0,0,48.71-14.03,61.9,6.13C326.6,449.65,251.51,423.36,251.51,423.36z"/>
										<path class="st18" d="M183.6,427.13c0,0,20.49-17.71,45.02-11.99c32.39,7.55,65.07,14.62,93.82,11.5
											c28.75-3.12-0.49,37.96-0.82,38.61c-0.33,0.66-21.03,32.53-26.78,33.02c-5.75,0.49-17.25,0.98-35.98-1.31
											c-18.73-2.3-18.07,2.3-37.79-4.11c-19.72-6.41-31.39,11.34-31.88-13.31C188.69,454.9,183.6,427.13,183.6,427.13z"/>
									</g>
									<g>
										<path class="st18" d="M261.2,413.03c0.72,0.41,1.53,1.51,1.15,2.93c-0.38,1.43-1.59,1.88-2.86,1.6
											c-1.27-0.28-2.07-1.48-1.87-2.83C257.84,413.37,259.6,412.13,261.2,413.03z"/>
										<path class="st19" d="M243.05,461.83c0.72,0.41,1.53,1.51,1.15,2.93c-0.38,1.43-1.59,1.88-2.86,1.6
											c-1.27-0.28-2.07-1.48-1.87-2.83C239.68,462.18,241.45,460.93,243.05,461.83z"/>
										<path class="st19" d="M281.66,434.88c0.72,0.41,1.53,1.51,1.15,2.93c-0.38,1.43-1.59,1.88-2.86,1.6
											c-1.27-0.28-2.07-1.48-1.87-2.83C278.29,435.23,280.06,433.98,281.66,434.88z"/>
										<path class="st18" d="M255.26,381.12c1.03,0.58,2.18,2.15,1.64,4.18c-0.55,2.04-2.27,2.68-4.07,2.29
											c-1.81-0.39-2.96-2.1-2.66-4.03C250.46,381.63,252.98,379.84,255.26,381.12z"/>
										<path class="st18" d="M235.78,393.96c1.39,0.78,2.93,2.89,2.2,5.63c-0.73,2.74-3.05,3.61-5.49,3.08s-3.98-2.83-3.58-5.44
											C229.31,394.63,232.71,392.23,235.78,393.96z"/>
										<path class="st19" d="M228.88,457.88c1.39,0.78,2.93,2.89,2.2,5.63c-0.73,2.74-3.05,3.61-5.49,3.08s-3.98-2.83-3.58-5.44
											C222.41,458.55,225.81,456.15,228.88,457.88z"/>
										<path class="st19" d="M294.38,428.37c1.55,0.88,3.29,3.24,2.47,6.32c-0.82,3.08-3.43,4.04-6.16,3.45
											c-2.73-0.59-4.47-3.18-4.02-6.1C287.12,429.13,290.95,426.43,294.38,428.37z"/>
										<path class="st19" d="M285.28,440.49c1.1,0.62,2.33,2.29,1.75,4.46c-0.58,2.17-2.42,2.86-4.35,2.44
											c-1.93-0.42-3.16-2.24-2.84-4.3C280.15,441.03,282.85,439.13,285.28,440.49z"/>
									</g>
								</g>
							</g>
						</g>
					</g>
					<path class="st21" d="M289.31,377.86c-3.86-2.18-7.77-3.82-11.68-5.02l0.14,0.02c1.54-1.82,15.09-15.91,14.38-17.05
						c-1.1-1.75-8.98-7.23-10.3-7.45c-1.04-0.17-18.83,18.82-21.38,22c-0.03,0-0.05,0-0.08,0.01c-1.73,0.1-3.44,0.29-5.15,0.53
						c2.11,0.91,4.21,1.92,6.31,3.1c19.06,10.75,40.44,39.8,30.37,77.61c-5.48,20.54-17.44,33.41-32.59,39.71
						c26.53,1.75,50.11-10.58,58.27-41.18C326.97,414.93,307.06,387.88,289.31,377.86z"/>
					<path class="st62" d="M217.2,483.8c-5.04,0-6.79-2.41-6.13-5.04c0.66-2.63,5.48-2.63,9.42-2.63h81.15c3.94,0,8.77,0,9.42,2.63
						c0.66,2.63-1.1,5.04-6.13,5.04H217.2z"/>
					<line class="st57" x1="298.84" y1="481.28" x2="320.32" y2="534.95"/>
					<line class="st57" x1="226.77" y1="481.28" x2="205.29" y2="534.95"/>
					<path class="st41" d="M275.9,372.31c4.48,1.22,8.97,3.05,13.41,5.55c17.75,10.01,37.66,37.07,28.28,72.28
						s-39.19,46.25-70.41,39.45c-31.22-6.8-51.09-36.33-45.96-69.7c3.88-25.24,29.77-49.01,59.17-49.52"/>
					<path class="st54" d="M289.31,377.86c-3.82-2.15-7.68-3.8-11.54-5c1.54-1.82,15.09-15.91,14.38-17.05
						c-1.1-1.75-8.98-7.23-10.3-7.45c-1.05-0.17-18.86,18.85-21.39,22.01c-29.43,0.47-55.36,24.26-59.24,49.52
						c-5.13,33.38,14.74,62.9,45.96,69.7c31.22,6.8,61.03-4.24,70.41-39.45C326.97,414.93,307.06,387.88,289.31,377.86z"/>
					<path class="st63" d="M225,465.66c-10.61-10.9-15.79-26.84-13.14-44.13c1.51-9.8,7.49-19.84,16.42-27.52"/>
				</g>
			</g>
		</g>
	</g>
</g>
<path class="st36" d="M471.02,408.17c1.04,1.83,3.83,3.9,7.47,2.92c3.64-0.97,4.78-4.05,4.08-7.28c-0.7-3.23-3.76-5.28-7.21-4.75
	C471.92,399.59,468.73,404.1,471.02,408.17z"/>
<path class="st36" d="M475.17,407.18c1.04,1.83,3.83,3.9,7.47,2.92c3.64-0.97,4.78-4.05,4.08-7.28c-0.7-3.23-3.76-5.28-7.21-4.75
	C476.06,398.59,472.88,403.11,475.17,407.18z"/>
<polygon class="st36" points="469.37,403.11 469.14,420.82 478.1,424.86 479.01,403.57 "/>
<path class="st36" d="M469.96,421.09c0.35,2.16,2.09,3.9,4.26,4.26c3.57,0.58,6.6-2.46,6.01-6.02c-0.36-2.15-2.09-3.89-4.24-4.24
	C472.42,414.5,469.37,417.53,469.96,421.09z"/>
<path class="st32" d="M540.25,342.09c0.24,0.43,0.9,0.91,1.75,0.69c0.85-0.23,1.12-0.95,0.95-1.71c-0.16-0.76-0.88-1.24-1.69-1.11
	C540.46,340.08,539.71,341.14,540.25,342.09z"/>
<path class="st32" d="M490.25,341.09c0.24,0.43,0.9,0.91,1.75,0.69s1.12-0.95,0.95-1.71c-0.16-0.76-0.88-1.24-1.69-1.11
	C490.46,339.08,489.71,340.14,490.25,341.09z"/>
<path class="st32" d="M551.25,312.09c0.24,0.43,0.9,0.91,1.75,0.69c0.85-0.23,1.12-0.95,0.95-1.71c-0.16-0.76-0.88-1.24-1.69-1.11
	C551.46,310.08,550.71,311.14,551.25,312.09z"/>
<path class="st32" d="M476.25,316.09c0.24,0.43,0.9,0.91,1.75,0.69s1.12-0.95,0.95-1.71c-0.16-0.76-0.88-1.24-1.69-1.11
	C476.46,314.08,475.71,315.14,476.25,316.09z"/>
</svg>
